<svg width="40" height="40" viewBox="0 0 40 40" fill="none" xmlns="http://www.w3.org/2000/svg">
<path d="M19.9959 1.49297e-05C23.061 -0.0100162 26.0868 0.688816 28.8371 2.04191C31.5873 3.39499 33.9874 5.36569 35.8499 7.80001C36.0859 8.1058 36.1908 8.49284 36.1415 8.87598C36.0922 9.25912 35.8927 9.60697 35.5869 9.84301C35.2811 10.0791 34.8941 10.184 34.5109 10.1346C34.1278 10.0853 33.7799 9.8858 33.5439 9.58001C31.075 6.37009 27.5465 4.14106 23.5873 3.29015C19.6281 2.43924 15.4954 3.02173 11.9257 4.93381C8.3559 6.84589 5.581 9.96335 4.09547 13.7306C2.60994 17.4979 2.51028 21.6703 3.81425 25.5042C5.11822 29.3381 7.74111 32.5845 11.2155 34.6648C14.6899 36.7452 18.7901 37.5243 22.7854 36.8634C26.7807 36.2025 30.4116 34.1445 33.0309 31.0561C35.6503 27.9677 37.088 24.0496 37.0879 20C37.0868 19.1295 37.0199 18.2604 36.8879 17.4C36.8298 17.0181 36.9258 16.6288 37.1548 16.3176C37.3838 16.0065 37.727 15.7991 38.1089 15.741C38.4908 15.6829 38.8802 15.7789 39.1913 16.0079C39.5024 16.2369 39.7098 16.5801 39.7679 16.962C40.3885 21 39.7575 25.1312 37.96 28.7999C36.1624 32.4686 33.2844 35.4988 29.7132 37.4829C26.1419 39.4671 22.0487 40.3099 17.9841 39.8981C13.9195 39.4863 10.0785 37.8397 6.97773 35.1796C3.87698 32.5195 1.66523 28.9737 0.639999 25.019C-0.385231 21.0643 -0.174774 16.8905 1.24307 13.059C2.66091 9.22752 5.21812 5.92213 8.57072 3.58747C11.9233 1.2528 15.9105 0.000848884 19.9959 1.49297e-05ZM14.8499 18.936L21.8219 12C21.9586 11.8501 22.1242 11.7294 22.3089 11.6453C22.4935 11.5612 22.6933 11.5155 22.8962 11.5108C23.099 11.5062 23.3007 11.5427 23.489 11.6183C23.6773 11.6938 23.8483 11.8067 23.9917 11.9503C24.1351 12.0938 24.2479 12.2649 24.3232 12.4533C24.3986 12.6417 24.4349 12.8434 24.4301 13.0462C24.4253 13.2491 24.3793 13.4488 24.2951 13.6334C24.2108 13.8179 24.09 13.9835 23.9399 14.12L18.0339 20L23.9399 25.88C24.1997 26.165 24.3397 26.5392 24.3309 26.9248C24.3221 27.3104 24.165 27.6777 23.8925 27.9506C23.6199 28.2234 23.2526 28.3808 22.8671 28.39C22.4815 28.3992 22.1072 28.2595 21.8219 28L14.8499 21.06C14.7095 20.9211 14.598 20.7557 14.522 20.5734C14.4459 20.3911 14.4067 20.1955 14.4067 19.998C14.4067 19.8005 14.4459 19.6049 14.522 19.4226C14.598 19.2403 14.7095 19.0749 14.8499 18.936Z" fill="#C08371"/>
</svg>
