<svg width="40" height="40" viewBox="0 0 40 40" fill="none" xmlns="http://www.w3.org/2000/svg">
<path d="M20.0041 40C16.939 40.01 13.9132 39.3112 11.1629 37.9581C8.41268 36.605 6.01256 34.6343 4.1501 32.2C3.91405 31.8942 3.80916 31.5071 3.85848 31.124C3.9078 30.7409 4.1073 30.393 4.4131 30.157C4.71889 29.9209 5.10593 29.816 5.48907 29.8653C5.8722 29.9147 6.22005 30.1142 6.4561 30.42C8.92503 33.6299 12.4535 35.8589 16.4127 36.7098C20.3719 37.5607 24.5046 36.9782 28.0743 35.0662C31.6441 33.1541 34.419 30.0366 35.9045 26.2693C37.3901 22.5021 37.4897 18.3297 36.1857 14.4958C34.8818 10.6619 32.2589 7.41547 28.7845 5.33514C25.3101 3.2548 21.2099 2.47567 17.2146 3.13658C13.2193 3.79749 9.58845 5.85551 6.96907 8.94389C4.34969 12.0323 2.91196 15.9504 2.9121 20C2.91322 20.8704 2.98008 21.7396 3.1121 22.6C3.17018 22.9819 3.07417 23.3712 2.84519 23.6823C2.61621 23.9935 2.27301 24.2009 1.8911 24.259C1.50919 24.317 1.11984 24.221 0.808722 23.9921C0.497599 23.7631 0.290182 23.4199 0.2321 23.038C-0.388474 19 0.242455 14.8688 2.04002 11.2001C3.83759 7.53135 6.71556 4.50114 10.2868 2.51702C13.8581 0.532898 17.9513 -0.309956 22.0159 0.101833C26.0805 0.513622 29.9215 2.1603 33.0223 4.82037C36.123 7.48044 38.3348 11.0263 39.36 14.981C40.3852 18.9357 40.1748 23.1095 38.7569 26.941C37.3391 30.7724 34.7819 34.0778 31.4293 36.4125C28.0767 38.7472 24.0895 39.9991 20.0041 40ZM25.1501 21.064L18.1781 28C18.0414 28.1499 17.8758 28.2706 17.6911 28.3547C17.5065 28.4387 17.3067 28.4845 17.1038 28.4891C16.901 28.4938 16.6993 28.4572 16.511 28.3817C16.3227 28.3062 16.1517 28.1932 16.0083 28.0497C15.8649 27.9062 15.7521 27.735 15.6768 27.5467C15.6014 27.3583 15.5651 27.1566 15.5699 26.9537C15.5747 26.7509 15.6207 26.5512 15.7049 26.3666C15.7892 26.182 15.91 26.0165 16.0601 25.88L21.9661 20L16.0601 14.12C15.8003 13.8349 15.6603 13.4608 15.6691 13.0752C15.6779 12.6896 15.835 12.3222 16.1075 12.0494C16.3801 11.7765 16.7474 11.6192 17.1329 11.61C17.5185 11.6008 17.8928 11.7404 18.1781 12L25.1501 18.94C25.2905 19.0789 25.402 19.2443 25.478 19.4266C25.5541 19.6089 25.5933 19.8044 25.5933 20.002C25.5933 20.1995 25.5541 20.3951 25.478 20.5773C25.402 20.7596 25.2905 20.925 25.1501 21.064Z" fill="#C08371"/>
</svg>
