<svg width="548" height="541" viewBox="0 0 548 541" fill="none" xmlns="http://www.w3.org/2000/svg">
<defs>
    <linearGradient id="paint0_linear_92_83" x1="74.741" y1="232.097" x2="377.281" y2="232.097" gradientUnits="userSpaceOnUse">
    <stop offset="0.004" stop-color="#E38DDD"/>
    <stop offset="1" stop-color="#9571F6"/>
    </linearGradient>
    <linearGradient id="paint1_linear_92_83" x1="268.373" y1="182.734" x2="328.621" y2="161.268" gradientUnits="userSpaceOnUse">
    <stop stop-color="#311944"/>
    <stop offset="1" stop-color="#893976"/>
    </linearGradient>
    <linearGradient id="paint2_linear_92_83" x1="370.136" y1="69.5072" x2="493.112" y2="471.789" gradientUnits="userSpaceOnUse">
    <stop stop-color="#FFC444"/>
    <stop offset="0.996" stop-color="#F36F56"/>
    </linearGradient>
    <linearGradient id="paint3_linear_92_83" x1="348.734" y1="76.2534" x2="569.822" y2="414.814" gradientUnits="userSpaceOnUse">
    <stop stop-color="#FFC444"/>
    <stop offset="0.996" stop-color="#F36F56"/>
    </linearGradient>
    <linearGradient id="paint4_linear_92_83" x1="226.05" y1="128.494" x2="189.558" y2="202.098" gradientUnits="userSpaceOnUse">
    <stop stop-color="#AB316D"/>
    <stop offset="1" stop-color="#792D3D"/>
    </linearGradient>
    <linearGradient id="paint5_linear_92_83" x1="209.177" y1="396.957" x2="238.23" y2="207.493" gradientUnits="userSpaceOnUse">
    <stop stop-color="#FF9085"/>
    <stop offset="1" stop-color="#FB6FBB"/>
    </linearGradient>
    <linearGradient id="paint6_linear_92_83" x1="195.627" y1="398.195" x2="231.755" y2="207.147" gradientUnits="userSpaceOnUse">
    <stop stop-color="#FF9085"/>
    <stop offset="1" stop-color="#FB6FBB"/>
    </linearGradient>
    <linearGradient id="paint7_linear_92_83" x1="399.026" y1="395.585" x2="220.679" y2="528.412" gradientUnits="userSpaceOnUse">
    <stop stop-color="#311944"/>
    <stop offset="1" stop-color="#893976"/>
    </linearGradient>
    <linearGradient id="paint8_linear_92_83" x1="315.616" y1="447.165" x2="467.242" y2="738.358" gradientUnits="userSpaceOnUse">
    <stop offset="0.004" stop-color="#E38DDD"/>
    <stop offset="1" stop-color="#9571F6"/>
    </linearGradient>
    <linearGradient id="paint9_linear_92_83" x1="294.534" y1="458.008" x2="502.195" y2="702.771" gradientUnits="userSpaceOnUse">
    <stop offset="0.004" stop-color="#E38DDD"/>
    <stop offset="1" stop-color="#9571F6"/>
    </linearGradient>
    <linearGradient id="paint10_linear_92_83" x1="226.578" y1="364.881" x2="381.849" y2="364.881" gradientUnits="userSpaceOnUse">
    <stop stop-color="#444B8C"/>
    <stop offset="0.996" stop-color="#26264F"/>
    </linearGradient>
    <linearGradient id="paint11_linear_92_83" x1="285.776" y1="240.55" x2="495.161" y2="810.715" gradientUnits="userSpaceOnUse">
    <stop stop-color="#AA80F9"/>
    <stop offset="0.996" stop-color="#6165D7"/>
    </linearGradient>
    <linearGradient id="paint12_linear_92_83" x1="259.542" y1="249.054" x2="673.018" y2="507.97" gradientUnits="userSpaceOnUse">
    <stop stop-color="#AA80F9"/>
    <stop offset="0.996" stop-color="#6165D7"/>
    </linearGradient>
    <linearGradient id="paint13_linear_92_83" x1="243.71" y1="192.847" x2="320.862" y2="316.54" gradientUnits="userSpaceOnUse">
    <stop stop-color="#AB316D"/>
    <stop offset="1" stop-color="#792D3D"/>
    </linearGradient>
    <linearGradient id="paint14_linear_92_83" x1="299.53" y1="169.638" x2="412.163" y2="470.447" gradientUnits="userSpaceOnUse">
    <stop stop-color="#FF9085"/>
    <stop offset="1" stop-color="#FB6FBB"/>
    </linearGradient>
    <linearGradient id="paint15_linear_92_83" x1="278.785" y1="177.752" x2="469.024" y2="421.857" gradientUnits="userSpaceOnUse">
    <stop stop-color="#FF9085"/>
    <stop offset="1" stop-color="#FB6FBB"/>
    </linearGradient>
    <linearGradient id="paint16_linear_92_83" x1="521.187" y1="359.488" x2="531.956" y2="378.382" gradientUnits="userSpaceOnUse">
    <stop stop-color="#AB316D"/>
    <stop offset="1" stop-color="#792D3D"/>
    </linearGradient>
    <linearGradient id="paint17_linear_92_83" x1="468.748" y1="317.232" x2="446.048" y2="256.715" gradientUnits="userSpaceOnUse">
    <stop stop-color="#AA80F9"/>
    <stop offset="0.996" stop-color="#6165D7"/>
    </linearGradient>
    <linearGradient id="paint18_linear_92_83" x1="471.649" y1="206.28" x2="467.791" y2="178.134" gradientUnits="userSpaceOnUse">
    <stop offset="0.004" stop-color="#26264F"/>
    <stop offset="1" stop-color="#444B8C"/>
    </linearGradient>
    <linearGradient id="paint19_linear_92_83" x1="463.229" y1="164.481" x2="464.447" y2="248.016" gradientUnits="userSpaceOnUse">
    <stop stop-color="#AB316D"/>
    <stop offset="1" stop-color="#792D3D"/>
    </linearGradient>
    <linearGradient id="paint20_linear_92_83" x1="-140.437" y1="127.426" x2="-119.031" y2="151.663" gradientUnits="userSpaceOnUse">
    <stop stop-color="#AB316D"/>
    <stop offset="1" stop-color="#792D3D"/>
    </linearGradient>
    <linearGradient id="paint21_linear_92_83" x1="376.252" y1="205.255" x2="385.428" y2="216.45" gradientUnits="userSpaceOnUse">
    <stop stop-color="#AB316D"/>
    <stop offset="1" stop-color="#792D3D"/>
    </linearGradient>
    <linearGradient id="paint22_linear_92_83" x1="-96.7639" y1="546.603" x2="-98.4761" y2="496.791" gradientUnits="userSpaceOnUse">
    <stop stop-color="#444B8C"/>
    <stop offset="0.996" stop-color="#26264F"/>
    </linearGradient>
    <linearGradient id="paint23_linear_92_83" x1="-109.601" y1="536.989" x2="-109.601" y2="457.696" gradientUnits="userSpaceOnUse">
    <stop stop-color="#FFC444"/>
    <stop offset="0.996" stop-color="#F36F56"/>
    </linearGradient>
    <linearGradient id="paint24_linear_92_83" x1="-81.7394" y1="534.028" x2="-81.7394" y2="454.729" gradientUnits="userSpaceOnUse">
    <stop stop-color="#FFC444"/>
    <stop offset="0.996" stop-color="#F36F56"/>
    </linearGradient>
    <linearGradient id="paint25_linear_92_83" x1="-75.6532" y1="537.037" x2="-85.3936" y2="486.641" gradientUnits="userSpaceOnUse">
    <stop stop-color="#444B8C"/>
    <stop offset="0.996" stop-color="#26264F"/>
    </linearGradient>
    <linearGradient id="paint26_linear_92_83" x1="-116.55" y1="365.929" x2="-195.638" y2="479.91" gradientUnits="userSpaceOnUse">
    <stop stop-color="#311944"/>
    <stop offset="1" stop-color="#893976"/>
    </linearGradient>
    <linearGradient id="paint27_linear_92_83" x1="-116.535" y1="365.931" x2="-195.623" y2="479.91" gradientUnits="userSpaceOnUse">
    <stop stop-color="#311944"/>
    <stop offset="1" stop-color="#893976"/>
    </linearGradient>
    <linearGradient id="paint28_linear_92_83" x1="15.4017" y1="433.657" x2="-145.177" y2="432.75" gradientUnits="userSpaceOnUse">
    <stop stop-color="#311944"/>
    <stop offset="1" stop-color="#893976"/>
    </linearGradient>
    <linearGradient id="paint29_linear_92_83" x1="445.643" y1="248.491" x2="485" y2="396.253" gradientUnits="userSpaceOnUse">
    <stop stop-color="#AA80F9"/>
    <stop offset="0.996" stop-color="#6165D7"/>
    </linearGradient>
    <linearGradient id="paint30_linear_92_83" x1="422.165" y1="253.014" x2="463.439" y2="399.949" gradientUnits="userSpaceOnUse">
    <stop stop-color="#AA80F9"/>
    <stop offset="0.996" stop-color="#6165D7"/>
    </linearGradient>
    <linearGradient id="paint31_linear_92_83" x1="207.903" y1="133.079" x2="194.498" y2="140.384" gradientUnits="userSpaceOnUse">
    <stop stop-color="#FFC444"/>
    <stop offset="0.996" stop-color="#F36F56"/>
    </linearGradient>
    <linearGradient id="paint32_linear_92_83" x1="260.815" y1="151.1" x2="253.584" y2="170.878" gradientUnits="userSpaceOnUse">
    <stop stop-color="#FFC444"/>
    <stop offset="0.996" stop-color="#F36F56"/>
    </linearGradient>
    <linearGradient id="paint33_linear_92_83" x1="31.1664" y1="327.558" x2="35.2893" y2="334.472" gradientUnits="userSpaceOnUse">
    <stop stop-color="#FFC444"/>
    <stop offset="0.996" stop-color="#F36F56"/>
    </linearGradient>
    <linearGradient id="paint34_linear_92_83" x1="-209.624" y1="512.658" x2="-209.624" y2="489.86" gradientUnits="userSpaceOnUse">
    <stop stop-color="#FFC444"/>
    <stop offset="0.996" stop-color="#F36F56"/>
    </linearGradient>
    <linearGradient id="paint35_linear_92_83" x1="-279.246" y1="519.149" x2="-279.246" y2="491.679" gradientUnits="userSpaceOnUse">
    <stop stop-color="#FFC444"/>
    <stop offset="0.996" stop-color="#F36F56"/>
    </linearGradient>
    <linearGradient id="paint36_linear_92_83" x1="-294.58" y1="411.203" x2="-204.675" y2="411.203" gradientUnits="userSpaceOnUse">
    <stop stop-color="#311944"/>
    <stop offset="1" stop-color="#893976"/>
    </linearGradient>
    <linearGradient id="paint37_linear_92_83" x1="-297.463" y1="344.24" x2="-203.735" y2="383.275" gradientUnits="userSpaceOnUse">
    <stop stop-color="#311944"/>
    <stop offset="1" stop-color="#893976"/>
    </linearGradient>
    <linearGradient id="paint38_linear_92_83" x1="-272.013" y1="329.066" x2="-177.33" y2="372.178" gradientUnits="userSpaceOnUse">
    <stop stop-color="#311944"/>
    <stop offset="1" stop-color="#893976"/>
    </linearGradient>
    <linearGradient id="paint39_linear_92_83" x1="224.422" y1="172.977" x2="155.903" y2="209.222" gradientUnits="userSpaceOnUse">
    <stop stop-color="#FFC444"/>
    <stop offset="0.996" stop-color="#F36F56"/>
    </linearGradient>
    <linearGradient id="paint40_linear_92_83" x1="-49.7816" y1="233.91" x2="132.226" y2="502.91" gradientUnits="userSpaceOnUse">
    <stop stop-color="#FFC444"/>
    <stop offset="0.996" stop-color="#F36F56"/>
    </linearGradient>
    <linearGradient id="paint41_linear_92_83" x1="-255.333" y1="209.458" x2="-253.626" y2="231.447" gradientUnits="userSpaceOnUse">
    <stop offset="0.004" stop-color="#E38DDD"/>
    <stop offset="1" stop-color="#9571F6"/>
    </linearGradient>
    <linearGradient id="paint42_linear_92_83" x1="171.739" y1="213.406" x2="121.889" y2="242.912" gradientUnits="userSpaceOnUse">
    <stop stop-color="#FFC444"/>
    <stop offset="0.996" stop-color="#F36F56"/>
    </linearGradient>
    <linearGradient id="paint43_linear_92_83" x1="-326.125" y1="28.2366" x2="-339.648" y2="51.4253" gradientUnits="userSpaceOnUse">
    <stop stop-color="#FFC444"/>
    <stop offset="0.996" stop-color="#F36F56"/>
    </linearGradient>
    <linearGradient id="paint44_linear_92_83" x1="-16.9277" y1="105.418" x2="18.6731" y2="314.543" gradientUnits="userSpaceOnUse">
    <stop stop-color="#444B8C"/>
    <stop offset="0.996" stop-color="#26264F"/>
    </linearGradient>
    <linearGradient id="paint45_linear_92_83" x1="-88.3065" y1="259.318" x2="111.713" y2="508.672" gradientUnits="userSpaceOnUse">
    <stop stop-color="#FFC444"/>
    <stop offset="0.996" stop-color="#F36F56"/>
    </linearGradient>
    <linearGradient id="paint46_linear_92_83" x1="-63.7813" y1="232.259" x2="-24.2255" y2="382.998" gradientUnits="userSpaceOnUse">
    <stop stop-color="#FFC444"/>
    <stop offset="0.996" stop-color="#F36F56"/>
    </linearGradient>
</defs>   
<path d="M282.228 10.312C223.028 33.852 217.353 94.028 164.046 99.192C117.598 103.692 99.9461 60.132 67.3521 67.937C17.7061 79.826 -13.5069 198.187 6.43207 295.51C27.0201 396.002 113.524 529.594 256.832 538.71C417.732 548.946 539.47 395.237 546.903 260.348C547.703 245.76 552.454 123.534 459.011 51.332C454.34 47.726 362.263 -21.516 282.228 10.312Z" fill="#F4F7FA"/>
<path d="M176.677 511.524C189.107 511.438 210.031 511.292 229.214 497.754C264.09 473.141 270.57 420.238 262.347 382.92C255.284 350.865 232.405 324.611 186.647 272.103C143.547 222.65 126.574 213.394 128.147 191.476C130.393 160.23 167.171 147.429 164.326 110.585C163.985 106.164 162.812 90.979 151.879 82.147C133.163 67.029 98.979 81.139 81.197 93.755C64.043 105.924 42.018 130.981 45.106 157.446C47.343 176.62 60.862 180.246 59.054 196.732C57.235 213.321 43 214.655 29.414 238.807C23.986 248.455 13.091 267.823 16.931 288.416C21.897 315.043 47.003 319.616 45.719 340.15C44.792 354.986 31.381 357.45 26.86 373.604C20.908 394.87 36.899 416.512 50.447 434.344C66.402 455.342 109.441 511.991 176.677 511.524Z" fill="url(#paint0_linear_92_83)"/>
<g style="mix-blend-mode:screen" opacity="0.16">
<path d="M141.048 88.71C149.894 100.48 104.989 125.096 98.8869 175.11C92.3209 228.923 134.681 279.31 154.257 302.594C187.657 342.322 207.319 342.718 224.688 380.803C231.563 395.876 245.888 427.279 232.388 459.853C231.134 462.879 216.651 496.411 184.616 503.978C148.28 512.561 116.989 481.212 90.0269 454.2C73.7349 437.878 41.1899 405.273 51.1619 384.521C57.2619 371.835 77.8379 366.5 92.8419 367.942C114.256 369.999 127.242 386.142 130.182 383.272C132.831 380.687 124.844 365.103 111.463 351.097C84.6979 323.081 63.7149 330.019 44.9109 305.963C42.6319 303.047 24.9108 279.682 32.4038 255.433C36.7278 241.447 49.5529 226.804 61.7179 227.671C75.4769 228.652 82.4519 249.05 86.2999 247.296C89.9799 245.619 85.8379 225.951 78.9059 207.11C68.7199 179.426 60.9959 176.597 59.1239 160.578C56.2679 136.138 71.1839 116.509 73.3679 113.718C93.8379 87.564 133.485 78.645 141.048 88.71Z" fill="white"/>
</g>
<path d="M395.769 204.169L316.658 181.221C314.646 180.672 312.764 179.727 311.121 178.443C309.478 177.158 308.107 175.559 307.089 173.739C306.07 171.919 305.424 169.915 305.189 167.843C304.953 165.77 305.133 163.672 305.717 161.67L329.453 87.97C331.953 79.77 336.741 77.2159 346.689 77.2009H366.861L427.189 98.55C431.068 99.7662 434.319 102.449 436.248 106.027C438.178 109.605 438.634 113.796 437.519 117.705L430.565 204.793C428.16 212.901 403.984 206.547 395.769 204.169Z" fill="url(#paint1_linear_92_83)"/>
<path d="M417.45 208.342L338.339 185.394C336.327 184.845 334.445 183.9 332.802 182.616C331.159 181.331 329.788 179.732 328.77 177.912C327.751 176.092 327.106 174.088 326.87 172.016C326.634 169.943 326.814 167.845 327.398 165.843L351.134 87.965C351.765 85.9986 352.782 84.1775 354.123 82.6076C355.465 81.0377 357.106 79.7504 358.95 78.8205C360.794 77.8906 362.805 77.3369 364.865 77.1914C366.925 77.0458 368.994 77.3115 370.95 77.973L448.869 102.723C452.748 103.939 455.999 106.622 457.928 110.2C459.858 113.778 460.314 117.969 459.199 121.878L436.656 197.954C435.473 201.869 432.79 205.158 429.193 207.104C425.595 209.05 421.374 209.495 417.45 208.342V208.342Z" fill="url(#paint2_linear_92_83)"/>
<path d="M393.444 154.858L380.928 151.089L372.119 180.327L356.237 175.665L380.394 95.811L408.627 104.682C417.525 107.477 423.75 111.696 427.303 117.34C430.857 122.984 431.506 129.581 429.251 137.132C427.651 142.505 425.208 146.65 421.922 149.569C418.337 152.626 413.928 154.554 409.25 155.112L415.881 192.349L415.654 193.111L398.954 188.211L393.444 154.858ZM384.932 137.8L397.58 141.652C401.501 142.846 404.847 142.728 407.616 141.297C410.386 139.866 412.315 137.325 413.405 133.674C414.52 129.949 414.388 126.709 413.01 123.953C411.632 121.197 408.851 119.167 404.667 117.864L392.114 113.964L384.932 137.8Z" fill="white"/>
<g style="mix-blend-mode:multiply" opacity="0.3">
<path style="mix-blend-mode:multiply" opacity="0.3" d="M383.678 173.301C386.168 148.739 412.119 139.637 411.999 117.368C411.948 107.949 407.25 97.301 394.47 85.446L371.264 78.0749C369.267 77.4008 367.156 77.1305 365.054 77.2796C362.952 77.4286 360.9 77.9942 359.018 78.9433C357.136 79.8924 355.462 81.2061 354.093 82.8081C352.723 84.4101 351.686 86.2684 351.041 88.2749L327.493 165.538C326.897 167.581 326.714 169.723 326.954 171.837C327.194 173.952 327.853 175.998 328.892 177.855C329.932 179.713 331.33 181.344 333.007 182.655C334.684 183.966 336.605 184.93 338.658 185.491L390.503 200.53C385.381 191.684 382.741 182.548 383.678 173.301Z" fill="url(#paint3_linear_92_83)"/>
</g>
<path d="M320.251 130.261C316.937 133.956 312.743 136.754 308.059 138.397L230.614 165.617C221.92 168.65 212.136 164.361 208.787 156.017L178.123 80.372C176.056 75.2634 176.06 69.5502 178.136 64.445C182.818 52.905 192.875 31.752 200.469 29.058L268.822 29.852C272.982 28.5666 277.473 28.8906 281.406 30.7596C285.339 32.6287 288.426 35.9066 290.056 39.944L338.312 92.633C339.863 97.979 339.949 101.45 336.242 108.933C332.986 115.499 325.423 124.487 320.251 130.261Z" fill="url(#paint4_linear_92_83)"/>
<path d="M328.029 108.88L247.682 136.91C238.988 139.943 229.204 135.654 225.855 127.31L194.017 47.937C190.617 39.455 195.07 30.257 203.939 27.414L285.89 1.14501C290.05 -0.140336 294.541 0.183596 298.474 2.05266C302.407 3.92173 305.494 7.19958 307.124 11.237L337.358 88.85C338.117 90.7731 338.476 92.8304 338.413 94.8967C338.351 96.963 337.869 98.995 336.996 100.869C336.123 102.743 334.878 104.42 333.337 105.797C331.795 107.174 329.989 108.223 328.029 108.88V108.88Z" fill="url(#paint5_linear_92_83)"/>
<path d="M253.41 120.052L220.373 37.113L248.8 27.904C258.561 24.742 266.699 24.2717 273.215 26.493C279.717 28.7037 284.415 33.5037 287.31 40.893C288.856 44.5661 289.269 48.6173 288.497 52.527C287.715 56.2444 285.717 59.5953 282.818 62.05C287.093 61.6903 291.362 62.8028 294.918 65.203C298.636 67.7833 301.459 71.4569 302.995 75.714C306.074 83.5653 305.995 90.332 302.757 96.014C299.514 101.711 293.417 106.148 284.467 109.327L253.41 120.052ZM250.935 66.466L263.182 62.388C271.432 59.4707 274.237 54.6727 271.596 47.994C270.121 44.2527 268.007 41.9043 265.254 40.949C262.501 39.9937 258.842 40.262 254.277 41.754L242.646 45.564L250.935 66.466ZM255.709 78.504L264.532 100.75L278.616 95.935C282.472 94.6163 285.105 92.6414 286.516 90.01C287.927 87.3787 287.975 84.3943 286.66 81.057C283.701 73.5457 278.426 70.9997 270.835 73.419L255.709 78.504Z" fill="white"/>
<g style="mix-blend-mode:multiply" opacity="0.3">
<path style="mix-blend-mode:multiply" opacity="0.3" d="M276.222 84.149C264.692 61.101 273.652 42.87 260.281 28.492C256.048 23.94 249.041 19.202 236.561 16.953L204.269 27.304C195.218 30.204 190.669 39.593 194.143 48.249L225.73 126.995C229.147 135.514 239.13 139.895 248.004 136.795L308.204 115.795C296.356 109.12 283.705 99.106 276.222 84.149Z" fill="url(#paint6_linear_92_83)"/>
</g>
<path d="M235.305 515.091L282.105 538.891C287.77 541.538 295.041 535.881 295.041 527.098V444.24C295.041 435.457 381.024 423.92 375.358 422.158L235.307 409.758C230.462 408.251 226.585 413.502 226.585 421.466V496.597C226.583 504.56 230.46 512.828 235.305 515.091Z" fill="url(#paint7_linear_92_83)"/>
<path d="M375.357 534.158L291.136 540.766C282.011 541.482 274.586 534.944 274.586 526.166V443.308C274.586 434.524 282.011 427.018 291.136 426.543L375.357 422.161C377.374 422.009 379.401 422.275 381.31 422.943C383.219 423.611 384.97 424.665 386.452 426.041C387.935 427.417 389.117 429.084 389.925 430.938C390.733 432.793 391.15 434.794 391.148 436.816V517.447C391.148 525.99 384.093 533.472 375.357 534.158Z" fill="url(#paint8_linear_92_83)"/>
<path d="M307 525.283V439.953L332.388 438.553C339.053 438.045 345.726 439.414 351.652 442.504C357.309 445.554 361.901 450.256 364.815 455.984C368.059 462.377 369.677 469.471 369.526 476.638V480.507C369.636 487.828 368.052 495.075 364.898 501.683C361.967 507.813 357.439 513.041 351.791 516.818C346.056 520.631 339.428 522.888 332.557 523.367L307 525.283ZM324.034 453.195V509.932L332.219 509.344C338.819 508.87 343.852 506.283 347.319 501.582C350.786 496.881 352.555 490.398 352.627 482.132V477.667C352.627 469.086 350.914 462.686 347.487 458.467C344.06 454.248 339.027 452.328 332.387 452.705L324.034 453.195Z" fill="white"/>
<path style="mix-blend-mode:multiply" opacity="0.3" d="M360.705 490.177C354.381 458.818 341.248 441.113 329.905 424.522L291.478 426.522C282.167 427.007 274.589 434.667 274.589 443.632V525.832C274.589 534.796 282.167 541.468 291.478 540.738L363.67 535.073C364.637 520.042 363.64 504.95 360.705 490.177V490.177Z" fill="url(#paint9_linear_92_83)"/>
<path d="M226.578 317.784V392.322C226.578 400.45 230.535 408.27 235.478 409.809L261.336 417.851L284.498 425.051C290.277 426.851 295.031 421.06 295.031 412.096V329.896C295.031 320.932 387.368 312.255 381.588 311.36L266.518 304.384L235.487 304.45C230.54 303.684 226.578 309.661 226.578 317.784Z" fill="url(#paint10_linear_92_83)"/>
<path d="M375.031 310.165L328.123 311.365L291.475 312.303C282.164 312.541 274.586 320.003 274.586 328.966V411.166C274.586 420.13 282.164 427.002 291.475 426.518L329.902 424.518L375.03 422.17C379.322 421.949 383.371 420.111 386.362 417.025C389.353 413.939 391.063 409.834 391.148 405.537V325.543C391.138 323.463 390.709 321.407 389.886 319.498C389.063 317.588 387.863 315.864 386.359 314.428C384.854 312.992 383.075 311.875 381.129 311.142C379.183 310.41 377.109 310.078 375.031 310.165V310.165Z" fill="url(#paint11_linear_92_83)"/>
<path d="M317.157 403.19V360.571L350.038 414.938L366.738 414.103V329.959L350.098 330.459V386.159L317.525 332.059C312.567 343.816 309.981 356.437 309.915 369.197C309.717 380.931 312.194 392.556 317.157 403.19V403.19Z" fill="white"/>
<path d="M300.068 331.97V417.437L317.157 416.582V403.189C312.192 392.555 309.714 380.93 309.91 369.195C309.976 356.435 312.562 343.814 317.52 332.057L317.157 331.457L300.068 331.97Z" fill="white"/>
<g style="mix-blend-mode:multiply" opacity="0.3">
<path style="mix-blend-mode:multiply" opacity="0.3" d="M328.125 311.365L291.477 312.303C282.166 312.541 274.588 320.003 274.588 328.966V411.166C274.588 420.13 282.166 427.003 291.477 426.518L329.904 424.518C319.039 408.63 309.83 393.789 309.912 369.192C309.988 345.7 318.499 327.472 328.125 311.365Z" fill="url(#paint12_linear_92_83)"/>
</g>
<path d="M235.305 304.358L284.715 312.071C290.38 312.955 295.039 306.503 295.039 297.647V214.104C295.039 205.248 382.202 198.145 376.539 198.152L316.631 196.546L235.307 198.152C230.462 198.159 226.585 204.674 226.585 212.704V288.456C226.583 296.487 230.46 303.602 235.305 304.358Z" fill="url(#paint13_linear_92_83)"/>
<path d="M375.357 310.157L291.136 312.311C282.011 312.545 274.586 305.611 274.586 296.831V213.971C274.586 205.188 282.011 198.071 291.136 198.082L375.357 198.155C379.505 198.116 383.499 199.725 386.46 202.63C389.421 205.535 391.108 209.497 391.148 213.645V294.276C391.087 298.454 389.407 302.444 386.461 305.407C383.515 308.369 379.534 310.072 375.357 310.157V310.157Z" fill="url(#paint14_linear_92_83)"/>
<path d="M348.332 280.568L318.832 281.113L313.177 298.705L295.039 299.114L325.766 213.796L341.358 213.752L371.597 297.387L353.95 297.787L348.332 280.568ZM323.401 270.74L343.815 270.412L333.576 238.958L323.401 270.74Z" fill="white"/>
<path style="mix-blend-mode:multiply" opacity="0.3" d="M353.768 238.956C349.281 221.369 336.568 208.037 322.659 198.111L291.474 198.084C282.163 198.076 274.585 205.336 274.585 214.3V296.5C274.585 305.464 282.163 312.537 291.474 312.3L328.122 311.363C343.11 286.283 360.768 266.392 353.768 238.956Z" fill="url(#paint15_linear_92_83)"/>
<path d="M443.563 194.491C443.563 194.491 439.304 190.647 438.572 188.342C437.84 186.037 441.572 180.675 443.627 176.012C445.682 171.349 444.944 179.06 444.788 180.812C444.632 182.564 442.767 185.975 445.411 190.381L443.563 194.491Z" fill="url(#paint16_linear_92_83)"/>
<path d="M446.378 186.868C446.378 186.868 441.59 222.516 479.152 247.649L439.183 257.183C439.183 257.183 426.39 233.262 435.652 193.64L446.378 186.868Z" fill="url(#paint17_linear_92_83)"/>
<path d="M484.068 220.783C482.105 216.917 481.296 216.94 480.813 214.899C479.713 210.249 482.551 204.343 484.956 204.261C486.507 204.208 486.635 206.619 489.917 210.376C493.939 214.976 496.379 214.376 498.746 218.37C499.3 219.305 501.791 223.511 500.259 226.651C498.304 230.658 490.594 231.293 487.372 228.202C485.844 226.732 486.486 225.542 484.068 220.783Z" fill="url(#paint18_linear_92_83)"/>
<path d="M489.848 224.951C489.848 224.951 488.471 232.299 489.448 238.273C490.334 243.673 500.336 249.281 502.253 250.89C504.17 252.499 497.168 254.244 490.745 253.403C484.322 252.562 466.736 246.935 464.063 243.803C461.39 240.671 467.175 242.212 472.039 241.618C476.903 241.024 481.548 232.872 481.689 228.711C481.83 224.55 489.848 224.951 489.848 224.951Z" fill="url(#paint19_linear_92_83)"/>
<path d="M487.753 230.435C486.225 231.034 484.568 231.227 482.943 230.996C481.318 230.764 479.78 230.115 478.481 229.112C474.581 225.994 480.381 216.412 484.346 216.292C485.197 216.356 486.025 216.592 486.782 216.987C487.538 217.381 488.206 217.925 488.746 218.586C489.42 219.405 489.46 219.951 490.586 221.269C491.625 222.484 492.086 222.593 492.24 223.183C492.44 223.921 492.098 225.154 489.428 227.274C489.947 227.11 490.503 227.107 491.024 227.264C491.545 227.421 492.007 227.732 492.349 228.155C492.49 228.436 492.55 228.751 492.523 229.064C492.359 230.51 490.471 231.179 487.753 230.435Z" fill="url(#paint20_linear_92_83)"/>
<path d="M379.692 204.878C379.692 204.878 376.714 204.463 377.643 198.778C378.371 194.32 377.82 192.821 376.767 193.611C375.714 194.401 375.567 196.977 375.567 196.977C373.219 194.891 371.368 192.307 370.148 189.413C368.567 185.123 367.548 188.736 367.212 190.881C366.876 193.026 369.47 199.687 370.938 200.928C372.406 202.169 374.551 207.643 374.551 207.643L379.692 204.878Z" fill="url(#paint21_linear_92_83)"/>
<path d="M489.829 519.408C491.361 522.533 490.929 523.876 490.549 524.467C489.431 526.201 486.739 524.567 479.711 525.396C478.261 525.616 476.782 525.565 475.351 525.244C473.669 524.844 471.687 523.952 471.771 523.502C471.802 523.338 472.101 523.272 472.214 523.248C474.164 522.832 486.373 519.086 486.373 519.086L489.829 519.408Z" fill="url(#paint22_linear_92_83)"/>
<path d="M490.765 512.537L489.675 519.523C489.675 519.523 486.675 521.644 485.886 519.069C485.319 517.217 485.335 512.225 485.335 512.225L490.765 512.537Z" fill="url(#paint23_linear_92_83)"/>
<path d="M456.553 513.017L459.499 521.061L463.78 520.379L462.788 512.931L456.553 513.017Z" fill="url(#paint24_linear_92_83)"/>
<path d="M460.828 525.491C462.9 523.032 464.75 523.255 465.128 521.566C465.24 520.863 465.133 520.142 464.82 519.502C464.507 518.863 464.005 518.335 463.381 517.991C461.657 517.122 459.569 518.48 459.097 518.786C455.892 520.87 456.765 524.128 453.743 525.541C452.792 525.887 451.914 526.409 451.155 527.079C450.724 527.479 449.655 528.484 449.905 529.179C450.195 529.979 452.1 529.949 453.911 529.923C456.085 529.892 457.172 529.877 458.217 529.223C459.666 528.314 459.228 527.389 460.828 525.491Z" fill="url(#paint25_linear_92_83)"/>
<path d="M513.672 345.433C513.01 359.389 511.08 373.256 507.907 386.862C505.06 399.027 503.507 401.106 502.521 409.539C500.372 427.889 506.242 430.649 506.884 451.456C507.238 467.842 504.408 484.14 498.551 499.447C496.751 504.326 494.663 509.094 492.298 513.726C490.154 515.516 486.952 514.742 483.575 513.98C482.775 493.137 481.634 473.514 480.831 452.672C477.473 421.272 474.115 389.872 470.756 358.472L513.672 345.433Z" fill="url(#paint26_linear_92_83)"/>
<path style="mix-blend-mode:multiply" opacity="0.3" d="M483.576 513.979C482.776 493.136 481.635 473.513 480.832 452.671C477.474 421.271 474.116 389.871 470.757 358.471L513.672 345.435C513.62 346.511 513.543 347.548 513.478 348.604C493.178 365.484 488.978 379.111 488.978 388.467C488.971 399.815 495.052 405.567 493.488 421.99C492.369 433.73 488.788 435.725 488.564 446.336C488.273 459.999 493.972 467.807 496.664 475.764C499.264 483.454 500.011 494.284 494.349 509.542C493.615 511.115 492.922 512.521 492.306 513.728C490.156 515.515 486.956 514.742 483.576 513.979Z" fill="url(#paint27_linear_92_83)"/>
<path d="M489.405 357.576C479.279 369.9 471.039 383.658 464.954 398.402C459.854 410.824 456.161 420.133 457.32 432.191C458.595 445.461 464.612 450.231 468.61 461.544C472.486 472.516 474.375 489.399 464.262 514.522L456.628 517.164C454.937 510.375 452.202 500.22 448.113 488.126C442.907 472.887 436.774 457.981 429.747 443.491C422.054 426.24 421.277 395.443 453.297 336.021L489.405 357.576Z" fill="url(#paint28_linear_92_83)"/>
<path d="M371.758 206.399L381.92 199.282C386.042 224.619 395.41 234.563 403.368 238.912C422.568 249.405 439.698 230.706 476.443 238.337C486.568 240.437 504.218 244.357 514.005 258.781C516.578 262.573 517.493 265.443 521.764 292.644C527.224 327.414 527.419 333.482 526.649 340.968C525.24 354.668 524.386 362.968 518.069 370.321C501.294 389.835 465.64 379.773 461.169 378.449C452.911 376.003 440.077 372.201 434.977 361.289C432.577 356.155 432.832 351.461 436.52 332.689C443.82 295.496 444.758 293.089 442.72 289.016C435.839 275.271 414.037 283.136 395.62 270.354C384.851 262.881 372.713 246.599 371.758 206.399Z" fill="url(#paint29_linear_92_83)"/>
<path style="mix-blend-mode:multiply" opacity="0.3" d="M477.879 373.486C474.284 366.112 479.115 359.318 473.815 350.455C467.06 339.16 454.906 342.995 450.333 334.65C442.512 320.378 473.297 300.473 467.041 277.75C464.055 266.902 453.625 259.05 444.914 256.074C425.573 249.474 412.922 266.305 394.789 261.041C389.29 259.347 384.368 256.162 380.569 251.841C384.979 261.141 390.455 266.765 395.62 270.35C414.038 283.131 435.84 275.267 442.72 289.012C444.759 293.085 443.826 295.492 436.52 332.685C432.833 351.461 432.578 356.155 434.977 361.285C440.077 372.197 452.911 375.999 461.168 378.445C469.992 381.008 479.143 382.266 488.331 382.18C482.567 379.845 479.465 376.738 477.879 373.486Z" fill="url(#paint30_linear_92_83)"/>
<path d="M208.644 155.957C208.644 155.957 205.388 146.701 200.613 143.081C195.838 139.461 196.497 125.695 196.497 125.695C196.497 125.695 201.024 129.042 202.555 133.166C204.086 137.29 205.171 141.058 207.125 143.081C209.079 145.104 211.9 155.957 211.9 155.957H208.644Z" fill="url(#paint31_linear_92_83)"/>
<path d="M250.26 170.448C250.694 169.797 249.06 163.719 253.895 161.983C256.427 161.072 259.609 159.841 262.063 158.875C264.535 157.902 266.552 156.037 267.714 153.648L267.72 153.636C267.834 153.4 267.873 153.134 267.83 152.875C267.787 152.615 267.666 152.376 267.481 152.189C267.297 152.002 267.06 151.876 266.801 151.829C266.543 151.782 266.276 151.816 266.038 151.927C263.08 153.289 258.917 154.882 256.889 154.169C253.548 152.995 249.609 156.991 248.307 160.355C247.005 163.719 246.538 169.58 246.538 169.58L250.26 170.448Z" fill="url(#paint32_linear_92_83)"/>
<path d="M131.931 340.537L134.111 333.037L125.011 326.292L119.337 324.17L122.696 334.67L131.931 340.537Z" fill="url(#paint33_linear_92_83)"/>
<path d="M143.196 491.639C143.196 491.639 138.217 504.164 139.528 509.719C136.579 509.689 133.636 509.427 130.728 508.933C131.792 506.153 132.65 503.298 133.295 500.391C133.669 497.068 133.844 493.726 133.819 490.382L143.196 491.639Z" fill="url(#paint34_linear_92_83)"/>
<path d="M198.076 520.933C197.522 521.578 197.192 522.385 197.135 523.233C197.119 523.761 197.215 524.287 197.417 524.775C198.266 527.009 199.599 527.304 201.038 529.675C201.917 531.123 201.751 531.56 202.557 532.214C203.567 532.916 204.791 533.242 206.016 533.138C208.69 533.161 211.362 533.01 214.016 532.686C212.23 530.383 210.327 528.05 208.309 525.686C207.423 524.651 206.539 523.639 205.656 522.651L200.403 520.876L198.076 520.933Z" fill="#26264F"/>
<path d="M202.444 495.428C202.444 495.428 205.444 511.096 201.626 515.483C198.371 519.87 203.198 516.741 203.198 516.741L208.963 521.772L212.421 527.746C212.421 527.746 209.237 512.411 210.087 506.325C210.937 500.239 211.36 496.136 211.36 496.136L202.444 495.428Z" fill="url(#paint35_linear_92_83)"/>
<path d="M213.767 324.042C213.767 324.042 221.834 331.26 221.834 360.98C221.834 390.7 218.013 455.235 218.013 455.235L211.899 501.435C211.899 501.435 205.559 501.661 201.313 500.387C197.492 482.979 191.265 453.533 194.237 428.908C195.511 402.159 183.623 368.618 183.623 368.618C183.623 368.618 173.433 402.584 166.215 419.567C158.997 436.55 145.256 489.753 143.982 493.574C135.536 494.34 131.929 492.106 131.929 492.106C131.929 492.106 137.344 434.851 142.439 413.198C147.534 391.545 147.109 339.322 155.601 324.462C174.706 316.824 213.767 324.042 213.767 324.042Z" fill="url(#paint36_linear_92_83)"/>
<path d="M213.767 324.042C213.767 324.042 221.834 331.26 221.834 360.98C221.834 390.7 218.012 455.235 218.012 455.235L211.898 501.435C211.898 501.435 205.558 501.661 201.312 500.387C197.491 482.98 191.264 453.533 194.236 428.908C195.51 402.16 183.622 368.619 183.622 368.619C183.622 368.619 173.432 402.585 166.214 419.568C158.996 436.551 145.254 489.754 143.981 493.575C135.536 494.341 131.928 492.108 131.928 492.108C131.928 492.108 137.343 434.853 142.438 413.2C147.533 391.547 147.108 339.324 155.6 324.464C174.706 316.825 213.767 324.042 213.767 324.042Z" fill="url(#paint37_linear_92_83)"/>
<path style="mix-blend-mode:multiply" opacity="0.25" d="M171.861 378.498C169.346 394.848 164.315 403.652 151.738 414.972C141.676 422.518 149.222 438.872 145.449 451.446C144.192 455.219 140.418 458.992 139.161 462.765C134.481 472.125 138.852 483.575 136.73 493.486C135.059 493.331 133.431 492.864 131.93 492.111C131.93 492.111 137.345 434.856 142.44 413.203C147.535 391.55 147.11 339.327 155.602 324.467C174.708 316.825 213.768 324.042 213.768 324.042C213.768 324.042 221.835 331.26 221.835 360.98C221.835 363.391 221.809 366.035 221.763 368.852C213.388 376.264 196.263 377.911 185.696 369.695C185.101 369.242 184.411 368.93 183.678 368.78L183.623 368.623L183.579 368.77C178.77 367.893 172.955 374.136 171.861 378.498Z" fill="url(#paint38_linear_92_83)"/>
<path d="M140.838 514.472C140.838 514.472 142.079 514.472 141.975 516.072C141.871 517.672 142.534 523.188 136.227 523.446C129.92 523.704 128.947 522.999 128.74 522.999C129.197 521.213 129.75 519.452 130.395 517.725L132.411 515.141L137.84 514.572L140.838 514.472Z" fill="#26264F"/>
<path d="M126.852 520.005C127.164 518.235 127.711 516.515 128.481 514.891C129.594 512.386 128.681 511.448 129.745 509.166C130.086 508.313 130.596 507.538 131.245 506.887C132.462 505.778 134.053 505.171 135.699 505.187C136.428 505.179 137.149 505.348 137.799 505.678C138.605 506.149 139.259 506.839 139.685 507.669C140.343 508.75 140.192 509.081 141.205 512.176C141.521 513.117 141.71 514.095 141.768 515.086C140.113 515.086 133.754 515.345 132.41 516.327C131.762 516.835 131.242 517.488 130.892 518.233C130.541 518.979 130.371 519.796 130.393 520.619C130.393 522.273 129.566 523.049 128.739 522.997C128.119 522.806 127.588 522.399 127.242 521.851C126.895 521.302 126.757 520.647 126.852 520.005V520.005Z" fill="#444B8C"/>
<path d="M203.252 513.282C201.831 513.304 200.789 514.435 200.003 517.159C199.217 519.883 195.444 522.295 199.845 521.718C204.246 521.141 207.445 527.378 209.016 529.684C210.587 531.99 214.809 534.038 214.704 531.784C214.599 529.53 212.737 528.478 212.213 526.172C211.689 523.866 206.492 513.231 203.252 513.282Z" fill="#444B8C"/>
<path d="M203.093 150.658C204.536 153.387 213.673 171.358 205.688 190.065C199.151 205.379 185.026 212.079 183.007 213C170.718 218.61 163.598 214.657 160.187 219.71C154.399 228.286 165.856 253.07 181.64 256.118C199.433 259.554 216.588 234.187 222.74 218.253C230.807 197.353 225.41 178.477 224.221 174.601C221.775 166.682 217.885 159.284 212.745 152.782L203.093 150.658Z" fill="url(#paint39_linear_92_83)"/>
<path d="M173.328 222.543C188.621 221.931 200.415 222.174 207.077 228.831C214.114 235.863 207.003 243.802 208.531 262.196C210.87 290.357 228.815 297.238 230.166 325.808C230.501 333.3 229.678 340.799 227.727 348.04C222.168 355.024 215.434 360.985 207.827 365.655C193.984 374.077 185.956 372.609 166.074 378.055C133.554 386.955 130.661 397.555 114.536 394.855C98.236 392.126 83.936 378.411 85.668 370.88C86.703 366.37 93.268 367.647 100.836 360.768C110.584 351.902 106.825 343.439 114.236 333.912C124.882 320.227 139.713 328.593 148.785 316.733C157.962 304.733 154.322 281.094 146.585 268.207C141.532 259.79 139.369 249.927 135.069 241.101C134.544 240.036 134.339 238.841 134.48 237.662C135.18 231.914 144.759 228.797 152.016 226.51C158.926 224.299 166.086 222.967 173.328 222.543Z" fill="url(#paint40_linear_92_83)"/>
<path d="M186.21 221.91L183.194 220.982C183.194 220.982 182.405 225.065 172.707 225.576C169.5 225.579 166.383 224.518 163.844 222.56L161.783 224.06C161.783 224.06 166.304 229.708 173.495 229.56C176.109 229.556 178.672 228.842 180.911 227.495C183.151 226.148 184.982 224.217 186.21 221.91Z" fill="url(#paint41_linear_92_83)"/>
<path d="M180.071 209.487C179.49 205.002 175.944 202.129 175.171 201.513C171.932 198.938 171.271 198.679 170.16 198.468L168.641 198.238C168.641 198.238 168.559 198.238 168.475 198.245C167.067 198.529 165.707 199.012 164.435 199.68C162.887 200.769 164.027 208.48 168.721 218.069L169.275 220.505C165.184 221.224 164.175 221.962 164.139 222.552C164.069 223.828 168.548 225.457 172.699 225.563C177.905 225.696 183.432 223.456 183.326 221.785C183.283 221.108 182.301 220.274 178.526 219.454L176.754 216.963C177.282 216.314 180.496 212.793 180.071 209.487Z" fill="url(#paint42_linear_92_83)"/>
<path d="M173.633 207.8C172.452 207.093 171.553 208.613 172.109 209.94C172.665 211.267 174.534 212.098 175.668 211.307C176.802 210.516 175.222 208.751 173.633 207.8Z" fill="url(#paint43_linear_92_83)"/>
<path d="M20.5941 207.777C36.1361 190.912 72.2941 195.537 92.3561 209.077C101.676 215.371 106.456 222.805 117.473 223.429C125.845 223.903 139.163 220.755 146.173 211.686C147.057 210.543 150.591 205.751 155.898 199.708C158.238 197.044 160.565 194.544 164.171 193.979C165.087 193.835 168.135 193.339 170.151 195.308C170.905 196.165 171.441 197.192 171.711 198.301C171.981 199.41 171.978 200.568 171.702 201.676C171.413 202.876 171.039 202.997 171.093 203.776C171.243 205.976 175.247 206.932 175.024 208.04C174.865 208.831 172.781 208.54 172.424 209.535C172.031 210.623 174.324 211.56 175.303 214.297C177.145 215.531 178.31 218.597 178.712 222.707C179.297 227.615 178.903 232.59 177.554 237.345C172.046 255.134 168.105 267.859 158.57 274.964C145.946 284.371 134.578 275.685 102.465 274.312C58.4921 272.431 47.5291 287.336 31.7251 277.139C11.9941 264.416 4.45812 225.288 20.5941 207.777Z" fill="url(#paint44_linear_92_83)"/>
<path d="M244.68 165.611C245.573 169.202 249.119 185.142 239.88 200.294C231.25 214.452 216.886 219.03 214.208 219.823C201.254 223.654 191.191 219.423 187.108 223.95C180.175 231.629 191.608 257.092 206.808 262.323C223.943 268.223 244.486 245.509 252.808 230.594C263.727 211.027 261.029 191.585 260.395 187.581C259.085 179.398 256.271 171.528 252.095 164.369C249.554 163.971 246.952 164.406 244.678 165.61L244.68 165.611Z" fill="url(#paint45_linear_92_83)"/>
<path style="mix-blend-mode:multiply" opacity="0.3" d="M114.049 384.083C117.959 380.074 113.655 371.99 119.431 365.983C124.792 360.405 130.862 364.911 139.492 360.112C150.561 353.956 147.511 342.685 158.085 336.626C165.685 332.269 169.262 336.954 181.085 334.669C192.885 332.388 207.257 324.253 214.356 309.715C217.047 304.156 218.505 298.082 218.632 291.907C223.939 301.389 229.444 310.475 230.169 325.807C230.504 333.299 229.681 340.798 227.73 348.039C222.171 355.023 215.437 360.984 207.83 365.654C193.987 374.076 185.959 372.608 166.077 378.054C133.557 386.954 130.664 397.554 114.539 394.854C104.124 393.11 94.547 386.879 89.426 380.642C104.454 387.326 111.211 386.993 114.049 384.083Z" fill="url(#paint46_linear_92_83)"/>
</svg>
