<svg width="26" height="26" viewBox="0 0 26 26" fill="none" xmlns="http://www.w3.org/2000/svg">
<path d="M7.06097 22.4964C7.25731 22.4962 7.44932 22.5542 7.61269 22.6631C7.77607 22.772 7.90348 22.9269 7.97879 23.1082C8.05411 23.2895 8.07394 23.4891 8.0358 23.6817C7.99765 23.8743 7.90323 24.0512 7.76449 24.1902C7.62574 24.3291 7.44891 24.4238 7.25636 24.4621C7.06381 24.5005 6.8642 24.481 6.68278 24.4059C6.50135 24.3308 6.34628 24.2036 6.23717 24.0404C6.12806 23.8771 6.06982 23.6852 6.06982 23.4889C6.07017 23.226 6.17466 22.974 6.36042 22.7879C6.54619 22.6019 6.79809 22.4971 7.06097 22.4964V22.4964Z" stroke="#C08371" stroke-width="1.5" stroke-miterlimit="10" stroke-linecap="round" stroke-linejoin="round"/>
<path d="M21.6594 22.4964C21.8557 22.4964 22.0476 22.5546 22.2108 22.6637C22.374 22.7727 22.5012 22.9277 22.5763 23.1091C22.6514 23.2904 22.6711 23.49 22.6328 23.6825C22.5945 23.875 22.5 24.0518 22.3612 24.1906C22.2224 24.3294 22.0456 24.424 21.8531 24.4622C21.6605 24.5005 21.461 24.4809 21.2796 24.4058C21.0983 24.3307 20.9433 24.2034 20.8342 24.0402C20.7252 23.877 20.667 23.6852 20.667 23.4889C20.6673 23.2258 20.772 22.9735 20.9581 22.7875C21.1441 22.6014 21.3963 22.4968 21.6594 22.4964V22.4964Z" stroke="#C08371" stroke-width="1.5" stroke-miterlimit="10" stroke-linecap="round" stroke-linejoin="round"/>
<path d="M1 1L3.6984 1.46703L4.94771 16.3511C4.9957 16.9368 5.26276 17.4828 5.69559 17.8803C6.12843 18.2778 6.69522 18.4975 7.28287 18.4955H21.4352C21.9981 18.4965 22.5424 18.294 22.9679 17.9255C23.3934 17.557 23.6715 17.0472 23.7509 16.4899L24.9821 7.98212C25.0178 7.7352 25 7.48349 24.9299 7.24406C24.8597 7.00463 24.7389 6.78308 24.5757 6.59445C24.4124 6.40581 24.2104 6.25451 23.9835 6.15079C23.7566 6.04708 23.51 5.99338 23.2605 5.99335H4.13171" stroke="#C08371" stroke-width="1.5" stroke-miterlimit="10" stroke-linecap="round" stroke-linejoin="round"/>
<path d="M15.7568 10.7882H19.3543" stroke="#C08371" stroke-width="1.5" stroke-miterlimit="10" stroke-linecap="round" stroke-linejoin="round"/>
</svg>
