<svg width="24" height="25" viewBox="0 0 24 25" fill="none" xmlns="http://www.w3.org/2000/svg">
<path d="M21.5 15.4639C21.4978 14.8636 21.3155 14.2778 20.9768 13.7822C20.6381 13.2866 20.1585 12.904 19.6 12.6839L21.47 5.68391C21.5091 5.53483 21.5131 5.37874 21.4819 5.22782C21.4507 5.0769 21.385 4.93525 21.29 4.81391C21.1929 4.70021 21.0715 4.60975 20.9348 4.54918C20.798 4.48861 20.6495 4.45947 20.5 4.46391H6.8L6.47 3.20391C6.41263 2.99082 6.28638 2.80269 6.11093 2.66884C5.93547 2.53499 5.72068 2.46294 5.5 2.46391H3.5V4.46391H4.73L7.21 13.7239C7.2686 13.9421 7.39934 14.134 7.58092 14.2683C7.76251 14.4027 7.98424 14.4716 8.21 14.4639H18.5C18.7652 14.4639 19.0196 14.5693 19.2071 14.7568C19.3946 14.9443 19.5 15.1987 19.5 15.4639C19.5 15.7291 19.3946 15.9835 19.2071 16.171C19.0196 16.3586 18.7652 16.4639 18.5 16.4639H5.5C5.23478 16.4639 4.98043 16.5693 4.79289 16.7568C4.60536 16.9443 4.5 17.1987 4.5 17.4639C4.5 17.7291 4.60536 17.9835 4.79289 18.171C4.98043 18.3586 5.23478 18.4639 5.5 18.4639H6.68C6.51554 18.917 6.46269 19.4031 6.52593 19.881C6.58917 20.3589 6.76665 20.8145 7.04332 21.2093C7.31999 21.604 7.68772 21.9263 8.11535 22.1488C8.54299 22.3713 9.01795 22.4874 9.5 22.4874C9.98205 22.4874 10.457 22.3713 10.8846 22.1488C11.3123 21.9263 11.68 21.604 11.9567 21.2093C12.2334 20.8145 12.4108 20.3589 12.4741 19.881C12.5373 19.4031 12.4845 18.917 12.32 18.4639H14.68C14.5303 18.8765 14.4729 19.3169 14.512 19.7541C14.551 20.1913 14.6856 20.6146 14.906 20.9941C15.1265 21.3737 15.4276 21.7002 15.788 21.9507C16.1485 22.2012 16.5595 22.3695 16.9921 22.4439C17.4247 22.5182 17.8683 22.4967 18.2917 22.3809C18.715 22.2651 19.1078 22.0577 19.4424 21.7736C19.7769 21.4894 20.045 21.1353 20.2277 20.7362C20.4105 20.3371 20.5034 19.9028 20.5 19.4639C20.4981 18.9473 20.3602 18.4403 20.1 17.9939C20.5276 17.7243 20.8802 17.351 21.1249 16.9087C21.3697 16.4664 21.4987 15.9694 21.5 15.4639ZM17.59 12.4639H9L7.34 6.46391H19.2L17.59 12.4639ZM9.5 20.4639C9.30222 20.4639 9.10888 20.4053 8.94443 20.2954C8.77998 20.1855 8.65181 20.0293 8.57612 19.8466C8.50043 19.6639 8.48063 19.4628 8.51921 19.2688C8.5578 19.0748 8.65304 18.8967 8.79289 18.7568C8.93275 18.6169 9.11093 18.5217 9.30491 18.4831C9.49889 18.4445 9.69996 18.4643 9.88268 18.54C10.0654 18.6157 10.2216 18.7439 10.3315 18.9083C10.4414 19.0728 10.5 19.2661 10.5 19.4639C10.5 19.7291 10.3946 19.9835 10.2071 20.171C10.0196 20.3586 9.76522 20.4639 9.5 20.4639ZM17.5 20.4639C17.3022 20.4639 17.1089 20.4053 16.9444 20.2954C16.78 20.1855 16.6518 20.0293 16.5761 19.8466C16.5004 19.6639 16.4806 19.4628 16.5192 19.2688C16.5578 19.0748 16.653 18.8967 16.7929 18.7568C16.9327 18.6169 17.1109 18.5217 17.3049 18.4831C17.4989 18.4445 17.7 18.4643 17.8827 18.54C18.0654 18.6157 18.2216 18.7439 18.3315 18.9083C18.4414 19.0728 18.5 19.2661 18.5 19.4639C18.5 19.7291 18.3946 19.9835 18.2071 20.171C18.0196 20.3586 17.7652 20.4639 17.5 20.4639Z" fill="#D9D9D9"/>
</svg>
