<svg width="24" height="25" viewBox="0 0 24 25" fill="none" xmlns="http://www.w3.org/2000/svg">
<path d="M18.9652 13.255C20.6356 13.2602 21.9898 14.6384 22 16.3436V19.3658C21.9899 21.0725 20.6371 22.4536 18.9652 22.4639H16.0046C14.3343 22.4535 12.9842 21.071 12.9791 19.3658V16.3436C12.9791 14.6378 14.3337 13.255 16.0046 13.255H18.9652ZM6.25058 13.255C6.56143 13.221 6.86401 13.3712 7.02984 13.6417C7.19568 13.9123 7.19568 14.2557 7.02984 14.5263C6.86401 14.7968 6.56143 14.947 6.25058 14.913H5.0348C4.25932 14.913 3.62923 15.552 3.62413 16.3436V19.328C3.64385 20.1132 4.26544 20.7436 5.0348 20.7586H8.01392C8.3872 20.7611 8.74604 20.6115 9.01086 20.3429C9.27568 20.0743 9.4246 19.709 9.42459 19.328V14.8467L9.41193 14.7352C9.39793 14.4387 9.54013 14.1532 9.79039 13.9912C10.0719 13.8089 10.4337 13.8197 10.7044 14.0183C10.9751 14.2169 11.1004 14.5635 11.0209 14.894V19.3564C11.0209 21.0674 9.66215 22.4544 7.98608 22.4544H5.0348C3.37322 22.4192 2.03447 21.0526 2 19.3564V16.3436C2 15.5228 2.32003 14.7358 2.88943 14.1563C3.45884 13.5768 4.23078 13.2525 5.0348 13.255H6.25058ZM18.9652 14.913H16.0046C15.2307 14.913 14.6032 15.5535 14.6032 16.3436V19.3658C14.6008 19.746 14.7476 20.1114 15.011 20.3802C15.2743 20.6491 15.6322 20.799 16.0046 20.7965H18.9652C19.3376 20.799 19.6955 20.6491 19.9589 20.3802C20.2222 20.1114 20.3691 19.746 20.3666 19.3658V16.3436C20.3666 15.9642 20.2189 15.6003 19.9561 15.332C19.6933 15.0637 19.3369 14.913 18.9652 14.913ZM18.9652 2.4639C20.6232 2.50409 21.9564 3.86932 21.9907 5.56196V8.57475C22.0006 9.39391 21.6913 10.1835 21.1309 10.7699C20.5704 11.3562 19.8048 11.6912 19.0023 11.7012H17.7773C17.3622 11.6559 17.0475 11.2983 17.0475 10.8722C17.0475 10.4461 17.3622 10.0886 17.7773 10.0432H18.9652C19.341 10.0408 19.7002 9.88532 19.9633 9.61142C20.2264 9.33752 20.3715 8.96779 20.3666 8.58422V5.56196C20.3566 4.77612 19.735 4.14156 18.9652 4.13135H16.0046C15.2307 4.13135 14.6032 4.77186 14.6032 5.56196V10.0811L14.5936 10.1851C14.5306 10.5929 14.1826 10.9009 13.768 10.8959C13.5522 10.891 13.3473 10.798 13.199 10.6378C13.0508 10.4776 12.9716 10.2635 12.9791 10.0432V5.56196C12.9767 4.74117 13.2943 3.95314 13.862 3.37187C14.4296 2.7906 15.2006 2.4639 16.0046 2.4639H18.9652ZM7.99536 2.4639C9.66932 2.4691 11.0251 3.8531 11.0302 5.56196V8.58422C11.0302 9.40501 10.7101 10.192 10.1407 10.7715C9.57132 11.351 8.79939 11.6753 7.99536 11.6728H5.0348C3.36445 11.6676 2.01018 10.2894 2 8.58422V5.56196C2.01013 3.85525 3.36294 2.47424 5.0348 2.4639H7.99536ZM7.99536 4.13135H5.0348C4.65833 4.12372 4.29469 4.27106 4.02582 4.54018C3.75696 4.80931 3.60549 5.17756 3.60557 5.56196V8.58422C3.59791 8.97352 3.74603 9.34919 4.01574 9.62452C4.28546 9.89985 4.65345 10.0511 5.0348 10.0432H7.99536C8.37112 10.0408 8.73038 9.88532 8.99346 9.61142C9.25654 9.33752 9.4017 8.96779 9.39675 8.58422V5.56196C9.39169 4.77401 8.76722 4.13652 7.99536 4.13135Z" fill="#D9D9D9"/>
</svg>
