<svg width="504" height="288" viewBox="0 0 504 288" fill="none" xmlns="http://www.w3.org/2000/svg">
<g clip-path="url(#clip0_87_2)">
<path d="M503.999 0H-0.000976562V288H503.999V0Z" fill="url(#paint0_radial_87_2)"/>
<g style="mix-blend-mode:overlay">
<path d="M440.3 83.914C439.201 82.8152 437.897 81.9436 436.462 81.3489C435.026 80.7542 433.488 80.4482 431.934 80.4482C430.38 80.4482 428.842 80.7542 427.406 81.3489C425.971 81.9436 424.666 82.8152 423.568 83.914L298.07 209.406C296.971 210.505 296.099 211.809 295.505 213.245C294.91 214.68 294.604 216.219 294.604 217.773C294.604 219.326 294.91 220.865 295.505 222.301C296.099 223.736 296.971 225.04 298.07 226.139C299.169 227.238 300.473 228.109 301.908 228.704C303.344 229.299 304.883 229.605 306.436 229.605C307.99 229.605 309.529 229.299 310.964 228.704C312.4 228.109 313.704 227.238 314.803 226.139L440.3 100.646C441.399 99.5475 442.27 98.2432 442.865 96.8078C443.46 95.3723 443.766 93.8338 443.766 92.28C443.766 90.7262 443.46 89.1877 442.865 87.7523C442.27 86.3168 441.399 85.0126 440.3 83.914Z" fill="#707070"/>
</g>
<g style="mix-blend-mode:overlay">
<path d="M376.289 203.774C375.127 202.613 373.552 201.961 371.91 201.961C370.268 201.961 368.692 202.613 367.531 203.774L301.853 269.454C301.278 270.029 300.822 270.711 300.51 271.463C300.199 272.214 300.039 273.019 300.039 273.832C300.039 274.646 300.199 275.451 300.51 276.202C300.822 276.953 301.278 277.636 301.853 278.211C302.428 278.786 303.11 279.242 303.862 279.553C304.613 279.864 305.418 280.025 306.231 280.025C307.044 280.025 307.849 279.864 308.6 279.553C309.351 279.242 310.034 278.786 310.609 278.211L376.289 212.532C377.45 211.37 378.102 209.795 378.102 208.153C378.102 206.511 377.45 204.936 376.289 203.774Z" fill="#707070"/>
</g>
<g style="mix-blend-mode:overlay">
<path d="M411.425 19.9C410.855 19.3303 410.179 18.8783 409.435 18.5699C408.691 18.2616 407.893 18.1029 407.087 18.1029C406.282 18.1029 405.484 18.2616 404.74 18.5699C403.996 18.8783 403.32 19.3303 402.75 19.9L337.683 84.966C337.113 85.5356 336.661 86.2119 336.353 86.9562C336.044 87.7005 335.886 88.4983 335.886 89.304C335.886 90.1097 336.044 90.9075 336.353 91.6518C336.661 92.3961 337.113 93.0724 337.683 93.642C338.833 94.7921 340.393 95.4382 342.02 95.4382C343.647 95.4382 345.207 94.7921 346.357 93.642L411.425 28.575C412.575 27.4244 413.221 25.8642 413.221 24.2375C413.221 22.6108 412.575 21.0506 411.425 19.9Z" fill="#707070"/>
</g>
<g style="mix-blend-mode:overlay">
<path d="M328.359 14.432C327.237 13.3108 325.716 12.6809 324.13 12.6809C322.545 12.6809 321.024 13.3108 319.902 14.432L256.468 77.866C255.347 78.9878 254.717 80.5089 254.717 82.095C254.717 83.6811 255.347 85.2022 256.468 86.324C257.023 86.8794 257.683 87.3201 258.408 87.6207C259.134 87.9213 259.912 88.076 260.697 88.076C261.482 88.076 262.26 87.9213 262.986 87.6207C263.711 87.3201 264.371 86.8794 264.926 86.324L328.359 22.89C328.914 22.3347 329.355 21.6754 329.656 20.9498C329.956 20.2242 330.111 19.4464 330.111 18.661C330.111 17.8756 329.956 17.0978 329.656 16.3722C329.355 15.6466 328.914 14.9873 328.359 14.432Z" fill="#707070"/>
</g>
<g style="mix-blend-mode:overlay">
<path d="M235.942 83.183C234.94 82.1807 233.75 81.3857 232.44 80.8432C231.131 80.3008 229.727 80.0216 228.31 80.0216C226.893 80.0216 225.489 80.3008 224.18 80.8432C222.87 81.3857 221.68 82.1807 220.678 83.183L106.2 197.661C104.177 199.686 103.041 202.431 103.041 205.294C103.041 208.156 104.177 210.901 106.2 212.926C108.225 214.949 110.97 216.085 113.833 216.085C116.695 216.085 119.44 214.949 121.465 212.926L235.942 98.447C236.944 97.4448 237.739 96.2549 238.282 94.9454C238.824 93.6359 239.103 92.2324 239.103 90.815C239.103 89.3976 238.824 87.9941 238.282 86.6846C237.739 85.3751 236.944 84.1852 235.942 83.183Z" fill="#707070"/>
</g>
<g style="mix-blend-mode:overlay">
<path d="M551.113 133.921C547.877 130.686 543.489 128.868 538.913 128.868C534.337 128.868 529.949 130.686 526.713 133.921L343.7 316.934C340.465 320.17 338.648 324.558 338.648 329.134C338.648 333.71 340.465 338.098 343.7 341.334C346.936 344.569 351.324 346.386 355.9 346.386C360.476 346.386 364.864 344.569 368.1 341.334L551.113 158.323C552.715 156.721 553.986 154.819 554.854 152.725C555.721 150.632 556.167 148.388 556.167 146.122C556.167 143.856 555.721 141.612 554.854 139.519C553.986 137.425 552.715 135.523 551.113 133.921Z" fill="#707070"/>
</g>
<g style="mix-blend-mode:overlay">
<path d="M97.164 187.313C95.5988 185.749 93.4767 184.87 91.264 184.87C89.0513 184.87 86.9292 185.749 85.364 187.313L-3.14499 275.82C-4.70949 277.385 -5.58838 279.507 -5.58838 281.72C-5.58838 283.933 -4.70949 286.055 -3.14499 287.62C-1.5802 289.185 0.542091 290.064 2.75501 290.064C4.96793 290.064 7.09021 289.185 8.65501 287.62L97.163 199.112C98.7271 197.547 99.6058 195.425 99.606 193.213C99.6062 191 98.7278 188.878 97.164 187.313Z" fill="#707070"/>
</g>
<g style="mix-blend-mode:overlay">
<path d="M81.1 13.241C80.5016 12.6425 79.7912 12.1677 79.0093 11.8438C78.2274 11.5199 77.3894 11.3532 76.543 11.3532C75.6967 11.3532 74.8586 11.5199 74.0767 11.8438C73.2948 12.1677 72.5844 12.6425 71.986 13.241L3.63601 81.6C3.03754 82.1983 2.5628 82.9087 2.2389 83.6905C1.915 84.4723 1.74829 85.3102 1.74829 86.1565C1.74829 87.0028 1.915 87.8407 2.2389 88.6225C2.5628 89.4043 3.03754 90.1147 3.63601 90.713C4.23432 91.3115 4.94467 91.7862 5.72648 92.1101C6.5083 92.434 7.34626 92.6007 8.19251 92.6007C9.03877 92.6007 9.87673 92.434 10.6585 92.1101C11.4404 91.7862 12.1507 91.3115 12.749 90.713L81.1 22.354C81.6985 21.7557 82.1732 21.0453 82.4971 20.2635C82.821 19.4817 82.9877 18.6438 82.9877 17.7975C82.9877 16.9513 82.821 16.1133 82.4971 15.3315C82.1732 14.5497 81.6985 13.8393 81.1 13.241Z" fill="#707070"/>
</g>
<g style="mix-blend-mode:overlay">
<path d="M200.877 174.579C199.912 173.614 198.766 172.848 197.505 172.325C196.244 171.803 194.892 171.534 193.527 171.534C192.162 171.534 190.81 171.803 189.549 172.325C188.288 172.848 187.142 173.614 186.177 174.579L75.9509 284.809C74.9853 285.774 74.2193 286.92 73.6967 288.181C73.174 289.442 72.905 290.794 72.905 292.159C72.905 293.524 73.174 294.876 73.6967 296.137C74.2193 297.398 74.9853 298.544 75.9509 299.509C76.9161 300.474 78.0619 301.24 79.323 301.763C80.5842 302.285 81.9359 302.554 83.3009 302.554C84.666 302.554 86.0177 302.285 87.2788 301.763C88.54 301.24 89.6858 300.474 90.6509 299.509L200.88 189.279C201.845 188.314 202.611 187.168 203.133 185.906C203.655 184.645 203.924 183.293 203.924 181.928C203.923 180.563 203.654 179.212 203.131 177.951C202.609 176.69 201.843 175.544 200.877 174.579Z" fill="#919191"/>
</g>
<g style="mix-blend-mode:overlay">
<path d="M261.271 0.450002C259.595 -1.22588 257.321 -2.16734 254.951 -2.16734C252.581 -2.16734 250.307 -1.22588 248.631 0.450002L153.838 95.243C152.162 96.9193 151.221 99.1924 151.221 101.562C151.221 103.933 152.162 106.206 153.838 107.882C154.668 108.712 155.653 109.37 156.737 109.819C157.822 110.269 158.984 110.5 160.158 110.5C161.331 110.5 162.493 110.269 163.578 109.819C164.662 109.37 165.647 108.712 166.477 107.882L261.271 13.089C262.947 11.4127 263.888 9.13962 263.888 6.7695C263.888 4.39938 262.947 2.12628 261.271 0.450002Z" fill="#919191"/>
</g>
<g style="mix-blend-mode:overlay">
<path d="M266.431 208.377C265.981 207.927 265.446 207.569 264.858 207.326C264.27 207.082 263.639 206.957 263.002 206.957C262.366 206.957 261.735 207.082 261.147 207.326C260.559 207.569 260.024 207.927 259.574 208.377L208.154 259.797C207.704 260.247 207.347 260.781 207.103 261.37C206.86 261.958 206.734 262.588 206.734 263.224C206.734 263.861 206.86 264.491 207.103 265.079C207.347 265.668 207.704 266.202 208.154 266.652C208.604 267.102 209.138 267.459 209.727 267.703C210.315 267.947 210.945 268.072 211.582 268.072C212.219 268.072 212.849 267.947 213.437 267.703C214.025 267.459 214.56 267.102 215.01 266.652L266.431 215.232C266.881 214.782 267.238 214.248 267.482 213.659C267.725 213.071 267.851 212.441 267.851 211.805C267.851 211.168 267.725 210.538 267.482 209.95C267.238 209.361 266.881 208.827 266.431 208.377Z" fill="#919191"/>
</g>
<g style="mix-blend-mode:overlay">
<path d="M526.947 70.207C524.772 68.0331 521.822 66.8119 518.747 66.8119C515.672 66.8119 512.722 68.0331 510.547 70.207L387.5 193.25C385.326 195.425 384.105 198.375 384.105 201.45C384.105 204.525 385.326 207.475 387.5 209.65C389.675 211.824 392.625 213.045 395.7 213.045C398.775 213.045 401.725 211.824 403.9 209.65L526.947 86.613C528.024 85.5358 528.879 84.257 529.462 82.8495C530.045 81.442 530.345 79.9335 530.345 78.41C530.345 76.8866 530.045 75.378 529.462 73.9705C528.879 72.563 528.024 71.2842 526.947 70.207Z" fill="#919191"/>
</g>
<g style="mix-blend-mode:overlay">
<path d="M94.674 139.3C93.7295 138.356 92.6083 137.606 91.3743 137.095C90.1403 136.584 88.8177 136.321 87.482 136.321C86.1463 136.321 84.8237 136.584 83.5897 137.095C82.3557 137.606 81.2345 138.356 80.29 139.3L-27.593 247.179C-28.5375 248.123 -29.2867 249.245 -29.7978 250.479C-30.3089 251.713 -30.572 253.035 -30.572 254.371C-30.572 255.707 -30.3089 257.029 -29.7978 258.263C-29.2867 259.497 -28.5375 260.619 -27.593 261.563C-26.6487 262.508 -25.5275 263.257 -24.2934 263.768C-23.0594 264.28 -21.7367 264.543 -20.401 264.543C-19.0652 264.543 -17.7426 264.28 -16.5085 263.768C-15.2745 263.257 -14.1533 262.508 -13.209 261.563L94.674 153.681C96.5803 151.774 97.6511 149.187 97.6511 146.491C97.6511 143.794 96.5803 141.207 94.674 139.3Z" fill="#919191"/>
</g>
<g style="mix-blend-mode:overlay">
<path d="M234.359 -55.619C232.64 -57.3384 230.598 -58.7024 228.352 -59.6329C226.105 -60.5635 223.698 -61.0424 221.266 -61.0424C218.834 -61.0424 216.427 -60.5635 214.18 -59.6329C211.934 -58.7024 209.892 -57.3384 208.173 -55.619L11.773 140.781C10.0535 142.5 8.6894 144.542 7.75876 146.788C6.82812 149.035 6.34912 151.443 6.34912 153.874C6.34912 156.306 6.82812 158.714 7.75876 160.961C8.6894 163.207 10.0535 165.249 11.773 166.968C15.2458 170.44 19.9556 172.391 24.8665 172.391C29.7775 172.391 34.4873 170.44 37.96 166.968L234.36 -29.432C236.08 -31.1515 237.444 -33.1928 238.374 -35.4394C239.305 -37.6861 239.784 -40.094 239.783 -42.5257C239.783 -44.9574 239.304 -47.3653 238.374 -49.6119C237.443 -51.8584 236.079 -53.8997 234.359 -55.619Z" fill="#919191"/>
</g>
<g style="mix-blend-mode:overlay">
<path d="M541.2 -36.373C538.593 -38.9787 535.059 -40.4424 531.373 -40.4424C527.687 -40.4424 524.153 -38.9787 521.546 -36.373L374.146 111.027C371.54 113.634 370.077 117.168 370.077 120.854C370.077 124.54 371.54 128.074 374.146 130.681C376.753 133.287 380.287 134.75 383.973 134.75C387.659 134.75 391.193 133.287 393.8 130.681L541.2 -16.72C543.805 -19.3266 545.269 -22.8611 545.269 -26.5465C545.269 -30.2319 543.805 -33.7664 541.2 -36.373Z" fill="#919191"/>
</g>
<g style="mix-blend-mode:overlay">
<path d="M361.154 59.416C359.815 58.0773 358.226 57.0153 356.477 56.2908C354.728 55.5663 352.854 55.1934 350.961 55.1934C349.067 55.1934 347.193 55.5663 345.444 56.2908C343.695 57.0153 342.106 58.0773 340.767 59.416L187.86 212.322C186.521 213.661 185.459 215.25 184.735 216.999C184.01 218.748 183.637 220.622 183.637 222.516C183.637 224.409 184.01 226.283 184.735 228.032C185.459 229.781 186.521 231.37 187.86 232.709C189.199 234.048 190.788 235.11 192.537 235.834C194.286 236.559 196.161 236.932 198.054 236.932C199.947 236.932 201.822 236.559 203.571 235.834C205.32 235.11 206.909 234.048 208.248 232.709L361.154 79.8C363.856 77.0965 365.374 73.4305 365.374 69.608C365.374 65.7855 363.856 62.1195 361.154 59.416Z" fill="#919191"/>
</g>
<path d="M9.52002 136.029L166.743 54.2L108.034 39.132L165.734 -9.223L68.969 -34.051L24.391 48.163L81.544 62.827L9.52002 136.029Z" fill="white"/>
<path d="M483.389 172.764L326.165 254.6L384.875 269.663L327.175 318.018L423.941 342.846L468.519 260.632L411.367 245.968L483.389 172.764Z" fill="white"/>
<path d="M156.4 252.4L156.306 251.909L141.954 177.16L142.444 177.06L369.764 133.415L369.864 133.906L384.216 208.653L383.726 208.753L156.4 252.4ZM143.124 177.955L157.193 251.23L383.041 207.867L368.972 134.593L143.124 177.955Z" fill="#FEFEFE"/>
<path d="M123.5 182.536L106.9 94.544L107.392 94.452L373.671 44.219L390.271 132.212L389.78 132.305L123.5 182.536ZM108.068 95.341L124.3 181.369L389.1 131.415L372.874 45.387L108.068 95.341Z" fill="#FEFEFE"/>
<path d="M359.677 144.649L150.502 166.302L157.591 234.779L366.765 213.126L359.677 144.649Z" fill="url(#paint1_radial_87_2)"/>
<path d="M189.225 215.827C186.458 215.533 183.757 214.795 181.225 213.641L184.531 203.441C186.648 204.379 188.874 205.045 191.158 205.424C193.418 205.84 195.725 205.941 198.013 205.724C199.367 205.663 200.697 205.341 201.929 204.776C202.259 204.628 202.535 204.381 202.719 204.069C202.902 203.758 202.984 203.396 202.953 203.036C202.868 202.204 202.284 201.633 201.2 201.324C199.466 200.909 197.702 200.631 195.925 200.492C193.275 200.244 190.644 199.816 188.052 199.211C185.921 198.678 183.959 197.618 182.344 196.129C180.555 194.383 179.493 192.026 179.37 189.529C179.099 187.099 179.589 184.645 180.77 182.504C182.123 180.159 184.128 178.259 186.542 177.034C189.638 175.449 193.02 174.497 196.488 174.234C199.188 173.953 201.911 173.97 204.607 174.285C207.092 174.548 209.524 175.176 211.824 176.151L208.8 186.258C205.205 184.77 201.311 184.15 197.432 184.448C193.99 184.803 192.355 185.812 192.526 187.477C192.607 188.271 193.181 188.814 194.242 189.106C195.946 189.496 197.679 189.749 199.424 189.861C202.07 190.051 204.698 190.441 207.285 191.029C209.437 191.55 211.426 192.596 213.074 194.074C214.881 195.798 215.955 198.151 216.074 200.646C216.347 203.068 215.858 205.515 214.674 207.646C213.309 209.981 211.307 211.878 208.901 213.114C205.812 214.719 202.43 215.682 198.958 215.945C195.72 216.285 192.454 216.245 189.225 215.827Z" fill="#FFDB00"/>
<path d="M249.383 202.832L234.291 204.389L232.338 211.589L218.721 212.989L231.989 171.483L245.152 170.127L266.607 208.054L252.764 209.48L249.383 202.832ZM244.701 193.566L239.814 183.978L236.984 194.361L244.701 193.566Z" fill="#FFDB00"/>
<path d="M266.372 167.939L279.763 166.559L282.785 195.893L300.715 194.044L301.785 204.428L270.465 207.655L266.372 167.939Z" fill="#FFDB00"/>
<path d="M339.154 190.369L340.195 200.469L307.174 203.869L303.08 164.153L335.364 160.825L336.404 170.925L317.284 172.895L317.764 177.548L334.559 175.817L335.553 185.463L318.753 187.192L319.291 192.413L339.154 190.369Z" fill="#FFDB00"/>
<path d="M370.2 64.2481L125.25 88.62L133.229 168.808L378.179 144.436L370.2 64.2481Z" fill="#002E4D"/>
<path d="M155.023 114.4L155.775 121.951L174.149 120.118L175.268 131.318L156.894 133.151L158.3 147.251L143.45 148.733L139.05 104.687L174.85 101.114L175.969 112.314L155.023 114.4Z" fill="white"/>
<path d="M181.465 100.446L196.315 98.964L199.56 131.495L219.445 129.511L220.594 141.026L185.86 144.492L181.465 100.446Z" fill="white"/>
<path d="M256.447 129.7L239.711 131.37L237.52 139.342L222.42 140.849L237.28 94.882L251.88 93.425L275.528 135.55L260.176 137.082L256.447 129.7ZM251.29 119.412L245.906 108.764L242.732 120.264L251.29 119.412Z" fill="white"/>
<path d="M285.539 134.323C282.475 133.986 279.485 133.158 276.684 131.871L280.384 120.571C282.728 121.617 285.194 122.363 287.724 122.793C290.229 123.261 292.786 123.38 295.324 123.147C296.825 123.085 298.3 122.733 299.668 122.11C300.035 121.948 300.343 121.675 300.548 121.33C300.753 120.985 300.845 120.585 300.812 120.185C300.719 119.263 300.073 118.63 298.874 118.285C296.953 117.817 294.999 117.502 293.029 117.343C290.091 117.059 287.177 116.575 284.305 115.894C281.945 115.295 279.773 114.114 277.988 112.458C276.01 110.515 274.841 107.896 274.715 105.126C274.423 102.431 274.973 99.7125 276.289 97.343C277.798 94.7488 280.028 92.6492 282.709 91.3C286.148 89.5538 289.9 88.5101 293.746 88.23C296.74 87.9285 299.758 87.9573 302.746 88.316C305.499 88.6173 308.193 89.325 310.739 90.416L307.347 101.621C303.366 99.9583 299.049 99.2567 294.747 99.573C290.93 99.9537 289.114 101.067 289.298 102.913C289.386 103.794 290.019 104.398 291.198 104.725C293.086 105.165 295.007 105.452 296.941 105.583C299.874 105.802 302.785 106.244 305.651 106.906C308.034 107.492 310.236 108.658 312.059 110.301C314.056 112.22 315.238 114.834 315.359 117.601C315.653 120.286 315.101 122.996 313.781 125.353C312.261 127.937 310.034 130.033 307.363 131.395C303.931 133.162 300.178 134.216 296.328 134.495C292.737 134.857 289.116 134.8 285.539 134.323Z" fill="white"/>
<path d="M362.053 82.426L366.447 126.472L351.6 127.954L349.981 111.72L336.263 113.088L337.883 129.323L323.033 130.805L318.633 86.759L333.481 85.277L335.04 100.877L348.757 99.509L347.2 83.908L362.053 82.426Z" fill="white"/>
<path d="M189.717 74.01C189.204 73.5742 188.787 73.0367 188.493 72.4315C188.199 71.8263 188.033 71.1665 188.007 70.494L187.432 64.736L190.961 64.384L191.525 70.038C191.535 70.6311 191.739 71.2047 192.104 71.672C192.272 71.8216 192.469 71.9348 192.682 72.0044C192.896 72.0739 193.122 72.0983 193.345 72.076C193.569 72.0538 193.785 71.9853 193.981 71.8749C194.177 71.7646 194.347 71.6148 194.482 71.435C194.747 70.9044 194.832 70.3023 194.726 69.719L194.161 64.064L197.631 63.719L198.206 69.477C198.313 70.1413 198.281 70.8205 198.112 71.4718C197.943 72.123 197.641 72.7323 197.225 73.261C196.239 74.2099 194.963 74.7997 193.601 74.9356C192.239 75.0714 190.871 74.7454 189.717 74.01Z" fill="#002E4D"/>
<path d="M207.31 63.236C208.019 63.4577 208.648 63.8832 209.118 64.4594C209.587 65.0357 209.877 65.7372 209.951 66.4769C210.025 67.2165 209.879 67.9616 209.533 68.6193C209.187 69.277 208.655 69.8184 208.003 70.176C207.237 70.5903 206.392 70.839 205.523 70.906L204.013 71.058L204.269 73.63L200.739 73.981L199.7 63.513L204.74 63.013C205.603 62.9066 206.478 62.9826 207.31 63.236ZM206.071 67.778C206.278 67.5104 206.374 67.1738 206.341 66.8372C206.308 66.5006 206.146 66.1896 205.891 65.968C205.56 65.7627 205.165 65.6869 204.782 65.755L203.496 65.883L203.741 68.336L205.027 68.207C205.416 68.1983 205.788 68.0454 206.071 67.778Z" fill="#002E4D"/>
<path d="M213.428 64.906L210.362 65.213L210.089 62.476L219.751 61.512L220.023 64.249L216.957 64.555L217.729 72.286L214.199 72.639L213.428 64.906Z" fill="#002E4D"/>
<path d="M224.413 71.151C223.492 70.7871 222.689 70.1764 222.092 69.3861C221.495 68.5958 221.127 67.6563 221.028 66.6707C220.93 65.6852 221.105 64.6915 221.534 63.7988C221.963 62.9061 222.63 62.1488 223.461 61.61C224.36 61.0519 225.374 60.7067 226.426 60.601C227.479 60.4953 228.541 60.6318 229.533 61C230.454 61.3641 231.257 61.9749 231.854 62.7653C232.451 63.5557 232.819 64.4952 232.918 65.4808C233.016 66.4665 232.841 67.4602 232.412 68.3529C231.983 69.2457 231.316 70.0031 230.485 70.542C229.586 71.0984 228.571 71.4422 227.519 71.547C226.467 71.6518 225.404 71.515 224.413 71.147V71.151ZM228.391 68.251C228.729 67.9931 228.99 67.6472 229.145 67.251C229.309 66.7985 229.369 66.3149 229.321 65.836C229.273 65.3572 229.118 64.8951 228.868 64.484C228.638 64.1273 228.315 63.8408 227.933 63.656C227.551 63.4814 227.13 63.4114 226.712 63.453C226.294 63.4946 225.895 63.6465 225.555 63.893C225.217 64.151 224.956 64.4969 224.801 64.893C224.637 65.3457 224.577 65.8293 224.625 66.3083C224.673 66.7873 224.827 67.2495 225.077 67.661C225.307 68.0175 225.631 68.304 226.013 68.489C226.395 68.663 226.816 68.7327 227.234 68.6911C227.652 68.6495 228.051 68.498 228.391 68.252V68.251Z" fill="#002E4D"/>
<path d="M246.584 63.493C246.955 63.7597 247.263 64.1056 247.484 64.5056C247.706 64.9056 247.835 65.3498 247.864 65.806C247.932 66.4478 247.816 67.0957 247.53 67.674C247.2 68.3065 246.693 68.8296 246.071 69.18C245.265 69.6327 244.368 69.8998 243.445 69.962C242.704 70.0353 241.956 70.0286 241.216 69.942C240.531 69.8724 239.86 69.7005 239.225 69.432L240.161 66.71C240.621 66.9153 241.105 67.0601 241.602 67.141C242.075 67.221 242.556 67.2385 243.033 67.193C243.38 67.174 243.715 67.0655 244.007 66.878C244.116 66.812 244.204 66.7163 244.261 66.6021C244.318 66.4878 244.341 66.3598 244.327 66.233C244.319 66.1158 244.277 66.0035 244.206 65.91C244.135 65.8165 244.038 65.7459 243.927 65.707C243.517 65.5931 243.086 65.5719 242.667 65.645L239.631 65.945L239.52 59.536L246.474 58.843L246.739 61.505L242.688 61.905L242.715 62.945L243.254 62.891C244.4 62.6828 245.583 62.8967 246.584 63.493Z" fill="#002E4D"/>
<path d="M251.6 68.491C250.825 68.1124 250.177 67.5156 249.736 66.774C249.245 65.8853 248.939 64.9059 248.838 63.8954C248.737 62.8848 248.843 61.8643 249.149 60.896C249.436 60.0825 249.953 59.3699 250.637 58.845C251.344 58.3435 252.17 58.0346 253.033 57.9485C253.895 57.8624 254.766 58.0022 255.558 58.354C256.332 58.7333 256.979 59.33 257.42 60.071C257.912 60.9592 258.218 61.9386 258.319 62.9491C258.42 63.9596 258.313 64.9801 258.006 65.948C257.721 66.7619 257.204 67.475 256.52 68C255.812 68.5 254.987 68.808 254.125 68.8939C253.262 68.9798 252.393 68.8406 251.6 68.49V68.491ZM254.774 63.304C254.599 61.5393 254.112 60.6963 253.315 60.775C252.518 60.8537 252.207 61.776 252.382 63.542C252.558 65.3067 253.045 66.149 253.843 66.069C254.641 65.989 254.951 65.066 254.774 63.3V63.304Z" fill="#002E4D"/>
<path d="M260.185 62.432C259.889 62.1733 259.648 61.8571 259.478 61.5026C259.308 61.1482 259.211 60.7629 259.194 60.37C259.124 59.8264 259.193 59.2739 259.394 58.764C259.578 58.3174 259.889 57.9348 260.289 57.664C260.709 57.3942 261.186 57.2276 261.683 57.1781C262.179 57.1285 262.68 57.1974 263.145 57.379C263.592 57.5639 263.975 57.877 264.245 58.279C264.543 58.7393 264.72 59.2672 264.761 59.814C264.822 60.2024 264.803 60.5991 264.706 60.9801C264.609 61.361 264.435 61.7182 264.196 62.03C263.698 62.5849 263.011 62.9336 262.27 63.0076C261.528 63.0816 260.785 62.8756 260.188 62.43L260.185 62.432ZM262.546 61.04C262.731 60.3754 262.66 59.6655 262.346 59.051C262.296 58.9637 262.223 58.8926 262.133 58.8464C262.044 58.8002 261.944 58.7809 261.844 58.7908C261.744 58.8008 261.649 58.8396 261.571 58.9025C261.492 58.9653 261.434 59.0496 261.403 59.145C261.217 59.8096 261.289 60.5197 261.603 61.134C261.652 61.2215 261.726 61.2927 261.815 61.3389C261.904 61.3852 262.005 61.4045 262.105 61.3946C262.204 61.3846 262.299 61.3458 262.378 61.2828C262.456 61.2198 262.514 61.1355 262.545 61.04H262.546ZM267.846 56.712L270.373 56.46L264.273 67.643L261.745 67.895L267.846 56.712ZM268.346 66.601C268.049 66.3427 267.809 66.0268 267.638 65.6725C267.468 65.3181 267.371 64.9329 267.354 64.54C267.285 63.9964 267.353 63.4441 267.554 62.934C267.738 62.4875 268.049 62.105 268.449 61.834C268.869 61.5642 269.346 61.3977 269.843 61.3482C270.339 61.2987 270.84 61.3675 271.305 61.549C271.752 61.7337 272.135 62.0469 272.405 62.449C272.704 62.9089 272.881 63.437 272.921 63.984C272.982 64.3724 272.963 64.7691 272.866 65.1501C272.769 65.531 272.595 65.8882 272.356 66.2C271.859 66.7552 271.172 67.1042 270.43 67.1782C269.688 67.2522 268.946 67.046 268.349 66.6L268.346 66.601ZM270.707 65.21C270.892 64.5454 270.821 63.8355 270.507 63.221C270.458 63.1336 270.384 63.0625 270.295 63.0162C270.206 62.97 270.105 62.9506 270.005 62.9604C269.905 62.9703 269.81 63.0089 269.732 63.0717C269.654 63.1345 269.595 63.2187 269.564 63.314C269.378 63.9789 269.45 64.6894 269.764 65.304C269.814 65.3911 269.887 65.4619 269.976 65.5079C270.065 65.5539 270.166 65.573 270.265 65.5631C270.365 65.5531 270.46 65.5145 270.538 65.4518C270.616 65.3892 270.674 65.3052 270.706 65.21H270.707Z" fill="#002E4D"/>
<path d="M282.081 65.4C281.16 65.0362 280.356 64.4255 279.759 63.6351C279.162 62.8447 278.794 61.9051 278.695 60.9193C278.597 59.9335 278.772 58.9397 279.201 58.0469C279.631 57.1541 280.298 56.3967 281.129 55.858C282.028 55.3024 283.043 54.9595 284.095 54.8555C285.147 54.7515 286.209 54.8892 287.2 55.258C288.121 55.622 288.924 56.2326 289.521 57.0229C290.118 57.8132 290.486 58.7527 290.585 59.7383C290.683 60.7239 290.508 61.7175 290.079 62.6102C289.65 63.5029 288.983 64.2602 288.152 64.799C287.253 65.3559 286.239 65.6999 285.187 65.8049C284.135 65.91 283.072 65.7732 282.081 65.405V65.4ZM286.059 62.5C286.397 62.2418 286.658 61.896 286.813 61.5C286.976 61.0472 287.036 60.5636 286.988 60.0846C286.94 59.6057 286.786 59.1436 286.536 58.732C286.306 58.3763 285.982 58.0903 285.601 57.905C285.219 57.7304 284.798 57.6604 284.38 57.702C283.962 57.7436 283.563 57.8955 283.223 58.142C282.884 58.3993 282.623 58.7454 282.468 59.142C282.304 59.5944 282.244 60.0777 282.292 60.5564C282.34 61.035 282.494 61.4969 282.744 61.908C282.974 62.2653 283.298 62.5522 283.681 62.737C284.063 62.9109 284.484 62.9806 284.902 62.9389C285.32 62.8973 285.719 62.7459 286.059 62.5Z" fill="#002E4D"/>
<path d="M295.555 56.636L295.734 58.431L300.102 57.995L300.367 60.657L296 61.093L296.334 64.443L292.805 64.795L291.76 54.326L300.27 53.477L300.535 56.139L295.555 56.636Z" fill="#002E4D"/>
<path d="M305.635 55.63L305.815 57.425L310.181 56.989L310.446 59.651L306.08 60.087L306.414 63.437L302.885 63.789L301.84 53.32L310.35 52.471L310.615 55.133L305.635 55.63Z" fill="#002E4D"/>
<path d="M221.862 243.373C221.135 243.292 220.426 243.095 219.762 242.79L220.642 240.103C221.198 240.353 221.784 240.531 222.386 240.632C222.981 240.743 223.589 240.771 224.192 240.716C224.549 240.702 224.9 240.618 225.225 240.47C225.312 240.431 225.385 240.366 225.433 240.284C225.482 240.202 225.504 240.107 225.496 240.012C225.474 239.793 225.32 239.643 225.035 239.561C224.579 239.449 224.115 239.374 223.647 239.336C222.948 239.269 222.255 239.153 221.572 238.991C221.011 238.849 220.496 238.568 220.072 238.175C219.602 237.713 219.325 237.091 219.294 236.433C219.225 235.792 219.356 235.146 219.669 234.582C220.027 233.965 220.558 233.466 221.195 233.145C222.012 232.731 222.904 232.483 223.818 232.416C224.53 232.345 225.247 232.352 225.957 232.436C226.612 232.507 227.252 232.676 227.857 232.936L227.05 235.599C226.104 235.204 225.079 235.037 224.057 235.111C223.149 235.201 222.717 235.466 222.762 235.905C222.782 236.115 222.933 236.258 223.212 236.336C223.66 236.439 224.117 236.506 224.576 236.536C225.273 236.588 225.965 236.693 226.647 236.849C227.213 236.989 227.736 237.266 228.17 237.657C228.644 238.113 228.925 238.734 228.955 239.391C229.025 240.029 228.894 240.673 228.579 241.233C228.218 241.848 227.689 242.346 227.054 242.67C226.238 243.09 225.346 243.341 224.431 243.407C223.576 243.495 222.714 243.484 221.862 243.373Z" fill="#EC1300"/>
<path d="M240.048 231.037L241.093 241.507L237.563 241.858L237.178 238L233.918 238.326L234.303 242.184L230.773 242.536L229.729 232.066L233.259 231.715L233.629 235.424L236.889 235.099L236.519 231.39L240.048 231.037Z" fill="#EC1300"/>
<path d="M245.653 240.583C244.732 240.219 243.928 239.609 243.331 238.819C242.733 238.028 242.365 237.089 242.267 236.103C242.169 235.117 242.344 234.123 242.773 233.231C243.203 232.338 243.87 231.581 244.701 231.042C245.6 230.485 246.614 230.141 247.667 230.036C248.719 229.931 249.782 230.068 250.773 230.436C251.694 230.8 252.497 231.411 253.094 232.201C253.691 232.992 254.059 233.931 254.157 234.917C254.256 235.902 254.081 236.896 253.652 237.789C253.223 238.682 252.556 239.439 251.725 239.978C250.825 240.533 249.81 240.875 248.758 240.979C247.706 241.083 246.644 240.946 245.653 240.578V240.583ZM249.631 237.683C249.969 237.425 250.23 237.079 250.384 236.683C250.548 236.23 250.608 235.747 250.56 235.268C250.512 234.789 250.358 234.327 250.108 233.916C249.878 233.56 249.554 233.273 249.173 233.088C248.791 232.914 248.37 232.844 247.952 232.886C247.534 232.928 247.135 233.079 246.795 233.325C246.457 233.583 246.196 233.929 246.041 234.325C245.877 234.777 245.816 235.261 245.864 235.74C245.912 236.219 246.066 236.681 246.316 237.092C246.546 237.449 246.87 237.736 247.253 237.92C247.635 238.095 248.056 238.165 248.474 238.123C248.892 238.081 249.291 237.929 249.631 237.682V237.683Z" fill="#EC1300"/>
<path d="M262.947 229.236C263.654 229.453 264.28 229.874 264.747 230.447C265.101 230.877 265.356 231.38 265.494 231.92C265.631 232.459 265.648 233.023 265.543 233.57C265.438 234.117 265.214 234.634 264.886 235.085C264.558 235.535 264.135 235.908 263.647 236.176C262.881 236.591 262.036 236.84 261.167 236.906L259.656 237.058L259.913 239.629L256.384 239.981L255.339 229.512L260.379 229.012C261.241 228.906 262.116 228.982 262.947 229.236ZM261.709 233.778C261.916 233.51 262.012 233.174 261.978 232.837C261.945 232.501 261.784 232.19 261.528 231.968C261.197 231.763 260.803 231.687 260.419 231.754L259.133 231.883L259.378 234.336L260.664 234.207C261.053 234.198 261.426 234.045 261.709 233.778Z" fill="#EC1300"/>
<path d="M282.147 226.837L283.191 237.307L280.291 237.595L275.839 233.236L276.312 237.992L272.873 238.336L271.829 227.866L274.729 227.577L279.182 231.936L278.707 227.18L282.147 226.837Z" fill="#EC1300"/>
<path d="M287.752 236.383C286.831 236.019 286.028 235.408 285.431 234.618C284.833 233.828 284.465 232.888 284.367 231.903C284.269 230.917 284.443 229.923 284.872 229.03C285.301 228.137 285.968 227.38 286.799 226.841C287.699 226.285 288.713 225.941 289.766 225.836C290.818 225.731 291.88 225.867 292.872 226.235C293.793 226.599 294.596 227.21 295.193 228C295.79 228.791 296.158 229.73 296.257 230.716C296.355 231.701 296.18 232.695 295.751 233.588C295.322 234.481 294.655 235.238 293.824 235.777C292.925 236.333 291.91 236.677 290.858 236.782C289.806 236.887 288.744 236.751 287.752 236.383ZM291.73 233.483C292.068 233.225 292.329 232.879 292.483 232.483C292.647 232.031 292.708 231.547 292.66 231.069C292.612 230.59 292.458 230.128 292.207 229.717C291.977 229.36 291.653 229.074 291.271 228.889C290.89 228.714 290.468 228.643 290.05 228.685C289.633 228.727 289.234 228.879 288.894 229.126C288.555 229.383 288.294 229.73 288.14 230.126C287.977 230.579 287.916 231.062 287.964 231.541C288.011 232.019 288.165 232.481 288.414 232.893C288.645 233.25 288.969 233.537 289.352 233.722C289.734 233.897 290.155 233.967 290.573 233.925C290.991 233.883 291.39 233.731 291.73 233.484V233.483Z" fill="#EC1300"/>
<path d="M314.092 223.649L311.786 234.449L308 234.83L305.752 229.406L304.531 235.177L300.747 235.554L296.353 225.419L299.987 225.057L302.405 230.827L303.741 224.682L306.986 224.357L309.412 230.203L310.74 223.983L314.092 223.649Z" fill="#EC1300"/>
<path d="M405.662 72.89C403.278 72.89 400.947 72.183 398.964 70.8582C396.981 69.5335 395.436 67.6506 394.524 65.4477C393.611 63.2447 393.372 60.8206 393.838 58.482C394.303 56.1434 395.451 53.9952 397.137 52.3091C398.823 50.6231 400.971 49.4749 403.31 49.0097C405.649 48.5445 408.073 48.7832 410.276 49.6957C412.479 50.6082 414.361 52.1535 415.686 54.1361C417.011 56.1187 417.718 58.4496 417.718 60.834C417.714 64.0303 416.443 67.0944 414.182 69.3545C411.922 71.6146 408.858 72.8861 405.662 72.89ZM405.662 49.778C403.475 49.778 401.338 50.4264 399.52 51.6413C397.701 52.8561 396.284 54.5829 395.448 56.6031C394.611 58.6233 394.392 60.8463 394.818 62.9909C395.245 65.1356 396.298 67.1056 397.844 68.6518C399.39 70.198 401.36 71.251 403.505 71.6776C405.65 72.1042 407.873 71.8852 409.893 71.0484C411.913 70.2116 413.64 68.7946 414.855 66.9764C416.07 65.1583 416.718 63.0207 416.718 60.834C416.715 57.9028 415.549 55.0927 413.476 53.02C411.403 50.9474 408.593 49.7815 405.662 49.778Z" fill="#FEFEFE"/>
<path d="M97.81 178.964C97.3594 178.964 96.919 178.83 96.5444 178.58C96.1698 178.33 95.8778 177.974 95.7054 177.558C95.533 177.141 95.4879 176.683 95.5758 176.242C95.6636 175.8 95.8806 175.394 96.1992 175.075C96.5178 174.757 96.9237 174.54 97.3656 174.452C97.8075 174.364 98.2655 174.409 98.6817 174.581C99.098 174.754 99.4538 175.046 99.7041 175.42C99.9544 175.795 100.088 176.235 100.088 176.686C100.087 177.29 99.8466 177.869 99.4196 178.296C98.9926 178.723 98.4138 178.963 97.81 178.964ZM97.81 175.408C97.5572 175.408 97.3101 175.483 97.1 175.623C96.8898 175.764 96.726 175.963 96.6293 176.197C96.5325 176.43 96.5072 176.687 96.5565 176.935C96.6059 177.183 96.7276 177.411 96.9063 177.59C97.085 177.768 97.3128 177.89 97.5607 177.939C97.8086 177.989 98.0655 177.963 98.2991 177.867C98.5326 177.77 98.7322 177.606 98.8726 177.396C99.013 177.186 99.088 176.939 99.088 176.686C99.0877 176.347 98.953 176.022 98.7134 175.783C98.4738 175.543 98.1488 175.408 97.81 175.408Z" fill="#FEFEFE"/>
<path d="M40.032 188.445C37.5304 188.445 35.085 187.703 33.0051 186.313C30.9252 184.923 29.3043 182.947 28.3472 180.636C27.3902 178.324 27.14 175.781 27.6284 173.328C28.1168 170.874 29.3217 168.621 31.0909 166.852C32.8601 165.083 35.1141 163.879 37.5677 163.392C40.0214 162.904 42.5645 163.155 44.8755 164.113C47.1865 165.071 49.1616 166.692 50.551 168.772C51.9403 170.853 52.6816 173.298 52.681 175.8C52.6763 179.153 51.3419 182.367 48.9707 184.738C46.5995 187.108 43.3849 188.441 40.032 188.445ZM40.032 164.145C37.7286 164.145 35.477 164.828 33.5617 166.108C31.6465 167.388 30.1537 169.207 29.2721 171.335C28.3904 173.463 28.1595 175.804 28.6084 178.063C29.0574 180.323 30.1662 182.398 31.7945 184.027C33.4229 185.656 35.4977 186.766 37.7567 187.216C40.0157 187.667 42.3574 187.437 44.4859 186.556C46.6143 185.676 48.4339 184.184 49.7146 182.269C50.9953 180.355 51.6796 178.103 51.681 175.8C51.6784 172.711 50.4503 169.749 48.2663 167.565C46.0823 165.381 43.1209 164.152 40.032 164.149V164.145Z" fill="#FEFEFE"/>
<path d="M116.773 248.3C115.736 248.3 114.723 247.993 113.861 247.417C112.999 246.841 112.327 246.022 111.931 245.064C111.534 244.107 111.43 243.053 111.633 242.036C111.835 241.019 112.334 240.086 113.067 239.353C113.8 238.62 114.734 238.121 115.751 237.919C116.768 237.716 117.822 237.82 118.779 238.217C119.737 238.614 120.555 239.286 121.131 240.148C121.707 241.01 122.014 242.023 122.014 243.06C122.012 244.449 121.459 245.781 120.477 246.763C119.494 247.746 118.162 248.298 116.773 248.3ZM116.773 238.818C115.934 238.818 115.114 239.067 114.417 239.533C113.72 239.999 113.176 240.661 112.855 241.436C112.534 242.211 112.45 243.063 112.613 243.886C112.777 244.709 113.181 245.464 113.774 246.057C114.367 246.651 115.122 247.055 115.945 247.218C116.768 247.382 117.62 247.298 118.395 246.977C119.17 246.657 119.833 246.113 120.299 245.416C120.765 244.719 121.014 243.899 121.014 243.06C121.013 241.935 120.567 240.856 119.771 240.06C118.976 239.264 117.898 238.817 116.773 238.815V238.818Z" fill="#FEFEFE"/>
<path d="M394.995 151.705C394.252 151.705 393.525 151.484 392.907 151.071C392.289 150.658 391.807 150.071 391.523 149.384C391.239 148.697 391.164 147.942 391.309 147.212C391.454 146.483 391.812 145.814 392.338 145.288C392.864 144.762 393.533 144.404 394.262 144.259C394.992 144.114 395.747 144.189 396.434 144.473C397.121 144.757 397.708 145.239 398.121 145.857C398.534 146.475 398.755 147.202 398.755 147.945C398.754 148.942 398.358 149.898 397.653 150.603C396.948 151.307 395.992 151.704 394.995 151.705ZM394.995 145.186C394.449 145.186 393.916 145.348 393.463 145.651C393.009 145.955 392.655 146.386 392.447 146.89C392.238 147.394 392.184 147.949 392.29 148.484C392.397 149.019 392.66 149.511 393.046 149.896C393.431 150.282 393.923 150.545 394.458 150.651C394.993 150.757 395.548 150.703 396.052 150.494C396.556 150.285 396.987 149.931 397.29 149.478C397.593 149.024 397.755 148.491 397.755 147.945C397.754 147.213 397.463 146.512 396.945 145.995C396.428 145.478 395.727 145.187 394.995 145.186Z" fill="#FEFEFE"/>
<path d="M336.032 33.186C334.41 33.186 332.825 32.7051 331.476 31.8041C330.128 30.903 329.077 29.6224 328.456 28.124C327.836 26.6257 327.673 24.9769 327.99 23.3863C328.306 21.7956 329.087 20.3345 330.234 19.1877C331.381 18.0409 332.842 17.26 334.432 16.9436C336.023 16.6272 337.672 16.7896 339.17 17.4102C340.668 18.0308 341.949 19.0819 342.85 20.4303C343.751 21.7788 344.232 23.3642 344.232 24.986C344.229 27.1597 343.364 29.2434 341.827 30.7805C340.289 32.3175 338.206 33.1826 336.032 33.186ZM336.032 17.778C334.608 17.778 333.216 18.2003 332.032 18.9914C330.848 19.7826 329.925 20.9071 329.38 22.2227C328.835 23.5383 328.693 24.986 328.97 26.3827C329.248 27.7793 329.934 29.0622 330.941 30.0692C331.948 31.0761 333.231 31.7619 334.627 32.0397C336.024 32.3175 337.472 32.1749 338.787 31.6299C340.103 31.085 341.227 30.1622 342.019 28.9781C342.81 27.7941 343.232 26.402 343.232 24.978C343.229 23.0694 342.469 21.2399 341.12 19.8903C339.77 18.5408 337.941 17.7812 336.032 17.778Z" fill="#FEFEFE"/>
</g>
<defs>
<radialGradient id="paint0_radial_87_2" cx="0" cy="0" r="1" gradientUnits="userSpaceOnUse" gradientTransform="translate(144.105 144) scale(205.19 205.344)">
<stop offset="0.163" stop-color="#FFE501"/>
<stop offset="1" stop-color="#FFB900"/>
</radialGradient>
<radialGradient id="paint1_radial_87_2" cx="0" cy="0" r="1" gradientUnits="userSpaceOnUse" gradientTransform="translate(163.4 266.084) rotate(-5.91007) scale(212.073 212.311)">
<stop offset="0.163" stop-color="#F93B00"/>
<stop offset="1" stop-color="#EB1000"/>
</radialGradient>
<clipPath id="clip0_87_2">
<rect width="504" height="288" fill="white"/>
</clipPath>
</defs>
</svg>
