<svg width="26" height="25" viewBox="0 0 26 25" fill="none" xmlns="http://www.w3.org/2000/svg">
<path d="M12.6985 23.5568C9.9532 21.8667 7.40193 19.8802 5.09056 17.6329C3.46157 16.0102 2.22337 14.038 1.4698 11.8657C0.114221 7.63351 1.69846 2.79614 6.14167 1.36476C7.29357 0.993152 8.51791 0.903844 9.71155 1.10436C10.9052 1.30487 12.0331 1.78934 13.0004 2.51694V2.51694C13.9669 1.79182 15.0931 1.30881 16.2847 1.10835C17.4762 0.907891 18.6984 0.995815 19.849 1.36476C24.2922 2.79614 25.8866 7.63351 24.5323 11.8657C23.7795 14.0403 22.5413 16.0147 20.9115 17.6392C18.5998 19.8843 16.0485 21.8687 13.3036 23.5568L13.0067 23.7412L12.6985 23.5568Z" stroke="#C08371" stroke-width="1.5" stroke-miterlimit="10" stroke-linecap="round" stroke-linejoin="round"/>
<path d="M17.7239 6.12125C18.3847 6.33492 18.9674 6.73959 19.3985 7.28417C19.8295 7.82875 20.0895 8.48883 20.1457 9.18108" stroke="#C08371" stroke-width="1.5" stroke-miterlimit="10" stroke-linecap="round" stroke-linejoin="round"/>
</svg>
