<svg width="24" height="25" viewBox="0 0 24 25" fill="none" xmlns="http://www.w3.org/2000/svg">
<path d="M10.4217 20.7248H6.42174C5.12562 20.7201 4.07474 19.6731 4.06522 18.377V10.4205C4.06776 9.98657 4.26191 9.57598 4.59565 9.29871L5.3 8.77697C5.55714 8.503 5.58329 8.08495 5.36229 7.78108C5.14129 7.4772 4.73552 7.37327 4.39565 7.53349L3.67391 8.07262C2.94588 8.63595 2.51384 9.50003 2.5 10.4205V18.3857C2.50478 20.5496 4.25781 22.3026 6.42174 22.3074H10.4217C10.854 22.3074 11.2043 21.957 11.2043 21.5248C11.2043 21.0926 10.854 20.7422 10.4217 20.7422V20.7248Z" fill="#008080"/>
<path d="M21.2913 10.403C21.2822 9.48938 20.8642 8.62787 20.1522 8.05522L14.1435 3.26391C12.8231 2.20256 10.9422 2.20256 9.62176 3.26391L7.71742 4.64652C7.35963 4.90346 7.27787 5.40178 7.53481 5.75957C7.79174 6.11735 8.29007 6.19911 8.64785 5.94217L10.5783 4.4987C11.336 3.8749 12.4293 3.8749 13.187 4.4987L19.1957 9.29C19.5415 9.56414 19.7458 9.97918 19.7522 10.4204V18.3857C19.7522 19.6823 18.701 20.7335 17.4044 20.7335H15.6218C15.4393 20.7335 15.2913 20.5855 15.2913 20.403V16.8117C15.2913 15.6673 14.3662 14.7383 13.2218 14.7335H10.6131C10.0619 14.7335 9.53326 14.9524 9.14352 15.3422C8.75377 15.7319 8.53481 16.2606 8.53481 16.8117V18.1857C8.53481 18.6179 8.88519 18.9683 9.31742 18.9683C9.74964 18.9683 10.1 18.6179 10.1 18.1857V16.8117C10.0977 16.6765 10.1498 16.546 10.2446 16.4495C10.3395 16.353 10.4691 16.2987 10.6044 16.2987H13.2131C13.4916 16.2987 13.7174 16.5245 13.7174 16.803V20.403C13.7222 21.4514 14.5734 22.2987 15.6218 22.2987H17.3609C19.5268 22.2987 21.2826 20.5429 21.2826 18.377L21.2913 10.403Z" fill="#008080"/>
</svg>
