<svg width="32" height="32" viewBox="0 0 32 32" fill="none" xmlns="http://www.w3.org/2000/svg">
<path fill-rule="evenodd" clip-rule="evenodd" d="M15.9999 12.5011C18.1637 12.5011 19.9177 14.228 19.9177 16.3583C19.9177 18.4881 18.1637 20.215 15.9999 20.215C13.8362 20.215 12.0822 18.4881 12.0822 16.3583C12.0822 14.228 13.8362 12.5011 15.9999 12.5011ZM15.9999 10.9587C12.9707 10.9587 10.515 13.3761 10.515 16.3583C10.515 19.34 12.9707 21.7578 15.9999 21.7578C19.0292 21.7578 21.4848 19.34 21.4848 16.3583C21.4848 13.3761 19.0292 10.9587 15.9999 10.9587ZM21.6542 9.66077C21.3501 9.66553 21.0542 9.76006 20.8036 9.93248C20.5531 10.1049 20.3591 10.3475 20.246 10.6299C20.1329 10.9122 20.1058 11.2217 20.1681 11.5194C20.2303 11.8171 20.3792 12.0897 20.5959 12.3031C20.8126 12.5165 21.0876 12.661 21.3862 12.7186C21.6849 12.7762 21.9939 12.7442 22.2744 12.6268C22.5549 12.5093 22.7945 12.3115 22.963 12.0583C23.1314 11.8051 23.2213 11.5077 23.2213 11.2036C23.2181 10.7912 23.0511 10.397 22.7572 10.1076C22.4634 9.81832 22.0666 9.65758 21.6542 9.66077ZM12.1714 7.98169H19.8285C22.3196 7.98169 24.339 9.96967 24.339 12.4216V20.2945C24.339 22.7469 22.3196 24.7344 19.8285 24.7344H12.1714C9.68032 24.7344 7.66092 22.7469 7.66092 20.2945V12.4216C7.66092 9.96967 9.68029 7.98169 12.1714 7.98169ZM11.4492 6.44616C8.48825 6.44616 6.08793 8.80929 6.08793 11.7239V20.9922C6.08793 23.9073 8.48822 26.27 11.4492 26.27H20.5507C23.5116 26.27 25.9119 23.9073 25.9119 20.9922V11.7239C25.9119 8.80926 23.5116 6.44616 20.5507 6.44616H11.4492ZM15.9999 0.870605C24.5535 0.870605 31.4874 7.80436 31.4874 16.3583C31.4874 24.9118 24.5535 31.8455 15.9999 31.8455C7.44642 31.8455 0.512451 24.9118 0.512451 16.3583C0.512451 7.80438 7.44642 0.870605 15.9999 0.870605Z" fill="#1F2937"/>
</svg>
