<svg width="24" height="26" viewBox="0 0 24 26" fill="none" xmlns="http://www.w3.org/2000/svg">
<path d="M11.7629 25.2581C10.2486 25.2845 8.78553 24.7096 7.6943 23.6593C6.60307 22.609 5.97264 21.169 5.94112 19.6548V18.4664C5.94112 18.1985 6.04756 17.9415 6.23703 17.7521C6.42649 17.5626 6.68346 17.4562 6.95141 17.4562C7.21935 17.4562 7.47632 17.5626 7.66579 17.7521C7.85525 17.9415 7.96169 18.1985 7.96169 18.4664V19.6548C7.98161 20.644 8.3929 21.585 9.10544 22.2715C9.81797 22.958 10.7736 23.334 11.7629 23.3171H18.1618C19.1552 23.3353 20.1152 22.9586 20.831 22.2695C21.5468 21.5805 21.9599 20.6355 21.9794 19.6422C21.9794 19.3742 22.0859 19.1172 22.2753 18.9278C22.4648 18.7383 22.7218 18.6319 22.9897 18.6319C23.2577 18.6319 23.5146 18.7383 23.7041 18.9278C23.8936 19.1172 24 19.3742 24 19.6422C23.9682 21.1603 23.3358 22.6039 22.2414 23.6566C21.1471 24.7093 19.68 25.2852 18.1618 25.2581H11.7629ZM11.7136 16.9902C11.5325 16.8071 11.4309 16.56 11.4309 16.3025C11.4309 16.045 11.5325 15.7979 11.7136 15.6149L13.7241 13.6032H0.973033C0.714968 13.6032 0.467474 13.5007 0.284995 13.3182C0.102516 13.1357 0 12.8882 0 12.6301C0 12.3721 0.102516 12.1246 0.284995 11.9421C0.467474 11.7596 0.714968 11.6571 0.973033 11.6571H16.0718C16.2638 11.6575 16.4513 11.7149 16.6105 11.8222C16.7697 11.9295 16.8934 12.0817 16.9659 12.2595C17.039 12.4374 17.058 12.633 17.0205 12.8217C16.983 13.0104 16.8906 13.1839 16.755 13.3203L13.0826 16.9927C12.9928 17.0828 12.8862 17.1543 12.7687 17.2031C12.6512 17.2519 12.5253 17.277 12.3981 17.277C12.2709 17.277 12.145 17.2519 12.0275 17.2031C11.9101 17.1543 11.8034 17.0828 11.7136 16.9927V16.9902ZM21.9769 15.2222V5.60422C21.9573 4.61488 21.5461 3.6737 20.8335 2.98713C20.1209 2.30057 19.1651 1.92468 18.1757 1.94193H11.7755C10.7828 1.92468 9.82375 2.3019 9.10877 2.99083C8.3938 3.67976 7.98127 4.62416 7.96169 5.61685V6.79257C7.96169 7.06051 7.85525 7.31749 7.66579 7.50695C7.47632 7.69642 7.21935 7.80286 6.95141 7.80286C6.68346 7.80286 6.42649 7.69642 6.23703 7.50695C6.04756 7.31749 5.94112 7.06051 5.94112 6.79257V5.61685C5.97297 4.09938 6.60484 2.65637 7.69836 1.6038C8.79189 0.551218 10.258 -0.0251444 11.7755 0.000915174H18.1744C19.6893 -0.0261589 21.1531 0.548422 22.2451 1.59874C23.3371 2.64906 23.9682 4.08944 24 5.60422V15.2196C24 15.4876 23.8936 15.7445 23.7041 15.934C23.5146 16.1235 23.2577 16.2299 22.9897 16.2299C22.7218 16.2299 22.4648 16.1235 22.2753 15.934C22.0859 15.7445 21.9794 15.4876 21.9794 15.2196L21.9769 15.2222ZM12.6431 10.566L11.7187 9.64916C11.5358 9.46725 11.4324 9.22038 11.431 8.96246C11.4296 8.70454 11.5303 8.45654 11.7111 8.27264C11.8002 8.18173 11.9064 8.10936 12.0236 8.05973C12.1408 8.0101 12.2667 7.98419 12.394 7.98348C12.5213 7.98278 12.6475 8.0073 12.7652 8.05563C12.883 8.10396 12.99 8.17514 13.0801 8.26506L14.007 9.18442C14.1887 9.3669 14.2907 9.61392 14.2907 9.87142C14.2907 10.1289 14.1887 10.3759 14.007 10.5584C13.9179 10.6504 13.8111 10.7234 13.693 10.7731C13.575 10.8228 13.4481 10.8482 13.32 10.8476C13.0661 10.8466 12.8228 10.7454 12.6431 10.566Z" fill="#C08371"/>
</svg>
