<svg width="56" height="61" viewBox="0 0 56 61" fill="none" xmlns="http://www.w3.org/2000/svg">
<circle cx="28" cy="33" r="28" fill="white"/>
<g clip-path="url(#clip0_32_335)">
<path d="M28.0002 7.40255C21.6124 7.40255 15.8825 10.1816 12.0149 14.5474C8.71821 18.2687 6.73886 23.095 6.73886 28.3773C6.73886 39.9613 16.2579 49.3521 28.0002 49.3521C39.7425 49.3521 49.2615 39.9613 49.2615 28.3773C49.2615 16.7933 39.7425 7.40255 28.0002 7.40255ZM28.0002 2.00128C42.7427 2.00128 54.7366 13.8335 54.7366 28.3773C54.7366 42.9211 42.7427 54.7533 28.0002 54.7533C13.2577 54.7533 1.26379 42.9211 1.26379 28.3773C1.26379 21.9919 3.61788 15.8181 7.89243 10.9931C12.9546 5.27869 20.2837 2.00128 28.0002 2.00128Z" fill="#008080"/>
<path d="M22.4935 50.9411C22.5244 50.7978 22.5852 50.6625 22.6722 50.544C22.7592 50.4254 22.8704 50.3263 22.9986 50.2529C23.1269 50.1794 23.2694 50.1334 23.417 50.1176C23.5647 50.1018 23.7142 50.1166 23.8559 50.1611C23.9982 50.1889 24.133 50.2462 24.2515 50.3291C24.37 50.412 24.4694 50.5187 24.5433 50.6422C24.6172 50.7656 24.6638 50.903 24.68 51.0452C24.6963 51.1875 24.6818 51.3314 24.6376 51.4674C24.6075 51.61 24.5473 51.7447 24.461 51.8626C24.3747 51.9805 24.2642 52.0791 24.1366 52.1519C24.009 52.2248 23.8672 52.2703 23.7204 52.2854C23.5736 52.3006 23.425 52.2852 23.2844 52.2401C23.1426 52.2124 23.0081 52.1556 22.8897 52.0734C22.7713 51.9912 22.6716 51.8855 22.597 51.763C22.5225 51.6405 22.4747 51.5041 22.4569 51.3625C22.439 51.2209 22.4515 51.0773 22.4935 50.9411ZM24.3164 51.3924C24.4215 50.9783 24.2953 50.4992 23.7811 50.3691C23.2948 50.2462 22.9306 50.5597 22.8155 51.0132C22.6991 51.4723 22.8796 51.911 23.3555 52.0309C23.8491 52.156 24.2045 51.8338 24.3158 51.3916L24.3164 51.3924Z" fill="white"/>
<path d="M25.7468 50.6214C25.9482 50.6185 26.1495 50.6314 26.349 50.6599C26.5958 50.6711 26.8319 50.7644 27.019 50.9245C27.0724 50.9802 27.1122 51.0471 27.1356 51.1201C27.1589 51.1932 27.1651 51.2704 27.1537 51.346C27.1319 51.4699 27.0687 51.5829 26.9741 51.6668C26.8795 51.7507 26.759 51.8008 26.6318 51.809L26.6306 51.8181C26.7172 51.8628 26.7902 51.9296 26.842 52.0114C26.8939 52.0932 26.9226 52.1872 26.9253 52.2835C26.9407 52.4841 26.9768 52.6828 27.0331 52.8764L26.7101 52.8321C26.6625 52.6638 26.6326 52.4911 26.6208 52.317C26.6269 52.1996 26.5855 52.0845 26.5059 51.9968C26.4262 51.9091 26.3148 51.8561 26.1959 51.8493L25.9044 51.8097L25.783 52.7057L25.4706 52.663L25.7468 50.6214ZM26.2477 51.6495C26.5778 51.6945 26.8048 51.5662 26.8369 51.33C26.873 51.0629 26.665 50.9158 26.3425 50.8685C26.2404 50.8518 26.1368 50.846 26.0336 50.851L25.9314 51.6058L26.2477 51.6495Z" fill="white"/>
<path d="M28.6402 52.0849L27.9142 50.8537L28.2725 50.8662L28.5912 51.4537C28.6796 51.6148 28.7473 51.7444 28.818 51.8926L28.8252 51.8928C28.8939 51.7587 28.9839 51.6254 29.0818 51.4707L29.4467 50.9069L29.7976 50.9188L28.9555 52.0894L28.9283 52.9781L28.6132 52.9673L28.6402 52.0849Z" fill="white"/>
<path d="M31.1795 51.8802L30.3938 50.9003L30.7512 50.8757L31.1098 51.3417C31.2096 51.4715 31.2818 51.5722 31.3625 51.6822L31.3697 51.6816C31.4279 51.5504 31.4816 51.4534 31.5601 51.3115L31.8512 50.8009L32.2083 50.7763L31.5539 51.841L32.3855 52.8582L32.0248 52.8831L31.6826 52.4471C31.5406 52.2797 31.4566 52.1675 31.3726 52.0522L31.3653 52.0525C31.2967 52.2005 31.2202 52.3448 31.1361 52.4848L30.8817 52.9619L30.5243 52.9866L31.1795 51.8802Z" fill="white"/>
<path d="M34.5876 51.7701L35.2859 50.2793L35.616 50.2005L35.9193 51.4207L36.236 51.3454L36.2869 51.5503L35.9704 51.6256L36.1029 52.159L35.8141 52.2276L35.6814 51.6944L34.6311 51.9448L34.5876 51.7701ZM35.6312 51.4897L35.468 50.8328C35.4425 50.7304 35.4205 50.6271 35.4021 50.523L35.3917 50.5256C35.3577 50.6392 35.3178 50.7509 35.2721 50.8604L34.8888 51.6603L34.8903 51.6663L35.6312 51.4897Z" fill="white"/>
<path d="M36.9593 51.1647L37.5028 49.6126L37.8238 49.5028L38.2487 50.688L38.556 50.5819L38.6273 50.7809L38.32 50.887L38.5057 51.4049L38.2257 51.5014L38.04 50.9835L37.0205 51.3352L36.9593 51.1647ZM37.9681 50.7837L37.7394 50.1457C37.7037 50.0462 37.6715 49.9458 37.6425 49.8438L37.6325 49.8474C37.6102 49.9637 37.5818 50.0788 37.5476 50.1923L37.247 51.0257L37.2491 51.0318L37.9681 50.7837Z" fill="white"/>
<path d="M27.9999 48.4595C39.2425 48.4595 48.3564 39.4684 48.3564 28.3773C48.3564 17.2863 39.2425 8.2952 27.9999 8.2952C16.7573 8.2952 7.64343 17.2863 7.64343 28.3773C7.64343 39.4684 16.7573 48.4595 27.9999 48.4595Z" stroke="#40A6BF" stroke-width="2" stroke-miterlimit="10"/>
<path d="M28.2223 54.6667C42.8271 54.6667 54.6667 42.9266 54.6667 28.4445C54.6667 13.9623 42.8271 2.22223 28.2223 2.22223C13.6174 2.22223 1.77783 13.9623 1.77783 28.4445C1.77783 42.9266 13.6174 54.6667 28.2223 54.6667Z" stroke="#40A6BF" stroke-width="2" stroke-miterlimit="10"/>
<path d="M29.8359 32.7307L38.415 44.7422C38.4478 44.8203 38.4617 44.905 38.4555 44.9894C38.4541 45.056 38.4394 45.1217 38.4122 45.1827C38.385 45.2437 38.3459 45.2987 38.2971 45.3447C38.2482 45.3907 38.1906 45.4268 38.1276 45.4507C38.0646 45.4747 37.9974 45.4861 37.9299 45.4843H35.7443C35.6524 45.4878 35.5609 45.4705 35.4768 45.4338C35.3927 45.3971 35.3182 45.3419 35.2589 45.2725L28.0965 35.1681L20.853 45.2725C20.7937 45.3419 20.7192 45.3971 20.6351 45.4338C20.5509 45.4705 20.4594 45.4878 20.3675 45.4843H18.3034C18.2344 45.4925 18.1645 45.4855 18.0986 45.4639C18.0326 45.4423 17.9724 45.4065 17.9221 45.3592C17.8719 45.3119 17.8328 45.2543 17.8078 45.1903C17.7828 45.1264 17.7724 45.0578 17.7774 44.9894C17.771 44.905 17.7849 44.8203 17.818 44.7422L26.356 32.7663" fill="#008080"/>
<path d="M26.3131 31.8876L26.2842 31.7205L26.1625 31.0161C26.0789 30.5305 26.0032 30.0364 25.93 29.5586C25.9009 29.3686 25.8708 29.1722 25.8407 28.9791L25.4906 26.9502L25.1089 24.9253L24.6759 22.9086C24.5355 22.3071 24.3778 21.6978 24.2253 21.1086L24.1735 20.9082C24.0532 20.4631 23.9154 20.013 23.7821 19.5778C23.7173 19.3663 23.6503 19.1475 23.5859 18.9314C23.4508 18.5112 23.3022 18.0862 23.1584 17.6752C23.0787 17.4473 22.9963 17.2117 22.9169 16.9788C22.766 16.5633 22.6041 16.1428 22.4475 15.7361C22.3608 15.5107 22.271 15.2776 22.184 15.0474C21.1536 12.4524 19.9616 9.9411 18.6411 7.58312C17.345 5.24653 15.8326 2.91124 14.1457 0.641428L14.0293 0.484823L14.1845 0.365398L14.4544 0.157753L14.6165 0.0330505L14.7407 0.194621C16.3845 2.33303 17.9619 4.66649 19.4292 7.13019C20.8747 9.57879 22.1655 12.0904 23.2659 14.5959L23.2666 14.5974L23.2672 14.599C23.3606 14.8214 23.4567 15.0473 23.5498 15.2657C23.7263 15.6804 23.9089 16.1091 24.081 16.5351L24.0816 16.5366L24.0822 16.5382L24.8357 18.4972L24.8365 18.4992L24.8372 18.5013L25.5488 20.4787L25.5495 20.4807L25.5501 20.4826L26.2219 22.4773L26.2229 22.48L26.2237 22.4828C26.2961 22.7207 26.3711 22.9628 26.4437 23.197C26.5758 23.6233 26.7124 24.0642 26.8398 24.5009L26.8403 24.5026L26.8408 24.5043C27.0186 25.1572 27.2068 25.8528 27.3816 26.5484L27.3822 26.5511L27.3828 26.5537C27.5463 27.2908 27.6925 27.9552 27.8271 28.6219L27.8278 28.6252L27.8283 28.6286C27.8624 28.8336 27.8978 29.0421 27.932 29.2438C27.9656 29.4418 28.0001 29.6451 28.0338 29.8477C28.2591 29.849 28.507 29.8506 28.7627 29.8531C29.1752 27.4838 29.7319 25.034 30.4181 22.5692C30.7674 21.2793 31.1711 19.9369 31.6179 18.5794C32.0507 17.2419 32.5221 15.9224 33.0186 14.6586C34.0371 12.0554 35.2325 9.52688 36.5713 7.14339C37.941 4.70509 39.482 2.38113 41.1516 0.236074L41.2759 0.0763041L41.437 0.200088L41.5966 0.322715L41.751 0.441359L41.6363 0.597792C40.0175 2.80522 38.5699 5.14509 37.3337 7.55239C36.1163 9.91355 35.0314 12.441 34.109 15.0647C33.6652 16.3269 33.2493 17.6384 32.8729 18.9627C32.5281 20.1989 32.2091 21.4976 31.8981 22.9323C31.4039 25.2946 30.9876 27.8594 30.5878 31.0034L30.5025 31.6744L30.4806 31.8462L30.3052 31.8495L29.6064 31.8627C28.8877 31.8765 28.1577 31.8797 27.4518 31.8829L27.1683 31.8841L26.485 31.8869L26.3131 31.8876Z" fill="#008080"/>
<path d="M14.5791 0.315486L14.3092 0.52314C15.9599 2.74406 17.4763 5.06641 18.8187 7.48638C20.1706 9.90055 21.3536 12.4075 22.3734 14.9759C22.618 15.6225 22.8728 16.2642 23.1085 16.9132C23.3315 17.5672 23.5686 18.2157 23.7799 18.8729C23.977 19.5348 24.1897 20.1916 24.3698 20.8577C24.5425 21.5263 24.7171 22.1936 24.8739 22.8654L25.3078 24.8863L25.6903 26.9152L26.0409 28.9472C26.1469 29.626 26.2459 30.3056 26.3625 30.9825L26.4842 31.6869L27.1673 31.6841C27.9791 31.6803 28.7908 31.6783 29.6025 31.6627L30.3013 31.6495L30.3867 30.9785C30.731 28.2705 31.1398 25.5676 31.6997 22.891C31.9892 21.5555 32.3102 20.226 32.6777 18.9087C33.0514 17.5938 33.4637 16.2897 33.9175 14.9991C34.8245 12.4191 35.8982 9.89534 37.1528 7.46197C38.4038 5.02599 39.8514 2.69045 41.472 0.480527L41.3125 0.357903C37.9325 4.70032 35.224 9.57767 33.2077 14.7309C32.7018 16.0186 32.2372 17.3233 31.8108 18.6412C31.3779 19.9565 30.9761 21.2836 30.6138 22.6219C29.9328 25.0679 29.3632 27.5494 28.9335 30.055C29.1565 30.0576 29.3795 30.0608 29.6025 30.0651L28.8182 30.7493C28.8554 30.5177 28.8939 30.2862 28.9335 30.055C28.5762 30.0509 28.2187 30.0486 27.8614 30.0469C27.8996 30.2794 27.9369 30.512 27.9722 30.7451L27.1673 30.0437C27.3987 30.0448 27.63 30.0457 27.8614 30.0469C27.7853 29.5846 27.7052 29.1231 27.6283 28.661C27.4889 27.9708 27.3371 27.2832 27.1848 26.5965C27.0132 25.9135 26.8297 25.2344 26.645 24.5562C26.4481 23.8812 26.2337 23.2113 26.0295 22.5403L25.3577 20.5457L24.6462 18.5682L23.8926 16.6091C23.6306 15.9606 23.3504 15.32 23.0799 14.6755C21.9557 12.1159 20.6715 9.63188 19.2544 7.23152C17.8281 4.83656 16.2744 2.52081 14.5791 0.315486ZM14.3297 0L14.9023 0.0737295C16.5509 2.21839 18.1328 4.55842 19.6041 7.02884L19.6049 7.03017C21.054 9.48488 22.3484 12.0036 23.452 14.5164L23.4546 14.5224C23.5478 14.7444 23.6438 14.97 23.7368 15.1883C23.9137 15.6037 24.0966 16.0333 24.2694 16.461L24.2718 16.4672L25.0284 18.4343L25.7426 20.4195L26.418 22.4253C26.4902 22.6627 26.5652 22.9046 26.6377 23.1385C26.77 23.5656 26.9068 24.0073 27.0347 24.4455L27.0367 24.4524C27.2147 25.1062 27.4033 25.803 27.5784 26.5002L27.581 26.511C27.7446 27.2491 27.8911 27.9144 28.026 28.5828L28.0285 28.5962C28.0625 28.8009 28.0979 29.0093 28.1321 29.2109C28.1565 29.3548 28.1813 29.5014 28.2061 29.6487C28.3302 29.6494 28.4597 29.6504 28.5923 29.6515C29.0027 27.3283 29.5507 24.9299 30.2224 22.5172C30.5725 21.2241 30.9771 19.8787 31.4249 18.5182C31.8591 17.1763 32.3317 15.8535 32.8296 14.5863C33.8513 11.9749 35.0506 9.43791 36.394 7.04642C37.7685 4.59946 39.3151 2.26714 40.9908 0.11423L41.5617 0.0422524L41.7213 0.164883L41.8006 0.715037C40.1881 2.914 38.746 5.24483 37.5146 7.64278C36.3013 9.99615 35.22 12.5151 34.3006 15.1303C33.8582 16.3883 33.4437 17.6955 33.0685 19.0157C32.7246 20.2484 32.4067 21.543 32.0966 22.973C31.6036 25.33 31.1881 27.8898 30.7891 31.0283L30.7037 31.6993L30.3091 32.0495L29.6103 32.0627C28.8901 32.0765 28.1594 32.0798 27.4527 32.0829L26.4858 32.087L26.0844 31.7541L25.9627 31.0497C25.8787 30.5623 25.8029 30.0673 25.7296 29.5887C25.7006 29.3993 25.6706 29.2035 25.6405 29.0112L25.291 26.9853L24.9101 24.9643L24.4779 22.9517C24.3381 22.3531 24.1809 21.7456 24.0289 21.158L23.9774 20.9588C23.8579 20.5171 23.7207 20.0691 23.588 19.6357C23.5233 19.4244 23.4564 19.2059 23.392 18.9897C23.2578 18.5726 23.1099 18.1496 22.9668 17.7405C22.8872 17.5129 22.8049 17.2775 22.7254 17.0445C22.5753 16.6313 22.414 16.2124 22.258 15.8071C22.1713 15.582 22.0817 15.3492 21.9946 15.119C20.9676 12.5326 19.7796 10.0298 18.4637 7.67985L18.4629 7.67845C17.1714 5.35019 15.6638 3.02239 13.9822 0.759713L14.0598 0.207654L14.3297 0Z" fill="white"/>
<path d="M13.7332 30.4228H42.499C42.6926 30.4228 42.8844 30.4604 43.0633 30.5335C43.2422 30.6065 43.4048 30.7137 43.5417 30.8487C43.6786 30.9838 43.7873 31.1442 43.8614 31.3207C43.9355 31.4971 43.9736 31.6863 43.9736 31.8773V32.3995C43.9736 32.4711 43.9593 32.5421 43.9315 32.6084C43.9037 32.6746 43.8629 32.7348 43.8115 32.7855C43.7601 32.8362 43.6991 32.8764 43.632 32.9038C43.5649 32.9313 43.4929 32.9454 43.4202 32.9454H12.7108C12.5909 32.9454 12.4759 32.8984 12.3912 32.8148C12.3064 32.7312 12.2588 32.6177 12.2588 32.4995V31.8773C12.2588 31.4916 12.4141 31.1216 12.6906 30.8488C12.9671 30.576 13.3422 30.4228 13.7332 30.4228Z" fill="#008080"/>
<path d="M21.2772 20.5433L21.1385 20.5032C20.6232 20.4632 20.5267 20.7553 20.255 21.6651L14.9762 35.2259C14.7043 36.1357 15.7431 37.0908 16.6653 37.3588L16.6814 37.3636C16.8288 37.4065 16.9874 37.3898 17.1224 37.3173C17.2573 37.2448 17.3576 37.1223 17.401 36.9769L21.5828 21.0968C21.5996 21.0407 21.6051 20.9818 21.5988 20.9236C21.5925 20.8654 21.5747 20.8089 21.5463 20.7575C21.5179 20.7061 21.4796 20.6607 21.4334 20.624C21.3872 20.5872 21.3341 20.5598 21.2772 20.5433Z" fill="#008080"/>
<path d="M35.3315 20.5433L35.4702 20.5032C35.9855 20.4632 36.082 20.7553 36.3537 21.6651L41.6325 35.2259C41.9044 36.1357 40.8656 37.0908 39.9434 37.3588L39.9273 37.3636C39.7799 37.4065 39.6213 37.3898 39.4863 37.3173C39.3514 37.2448 39.2511 37.1223 39.2077 36.9769L35.0259 21.0968C35.0091 21.0407 35.0037 20.9818 35.01 20.9236C35.0162 20.8654 35.0341 20.809 35.0624 20.7576C35.0908 20.7061 35.1292 20.6608 35.1754 20.624C35.2215 20.5872 35.2746 20.5598 35.3315 20.5433Z" fill="#008080"/>
</g>
<defs>
<clipPath id="clip0_32_335">
<rect width="56" height="56" fill="white"/>
</clipPath>
</defs>
</svg>
