<svg width="50" height="50" viewBox="0 0 50 50" fill="none" xmlns="http://www.w3.org/2000/svg">
<g clip-path="url(#clip0_69_309)">
<path d="M25.0001 6.60943C19.2967 6.60943 14.1807 9.09073 10.7275 12.9888C7.78403 16.3114 6.01675 20.6205 6.01675 25.3369C6.01675 35.6798 14.5159 44.0643 25.0001 44.0643C35.4843 44.0643 43.9834 35.6798 43.9834 25.3369C43.9834 14.994 35.4843 6.60943 25.0001 6.60943ZM25.0001 1.78687C38.163 1.78687 48.8718 12.3514 48.8718 25.3369C48.8718 38.3224 38.163 48.8869 25.0001 48.8869C11.8371 48.8869 1.1283 38.3224 1.1283 25.3369C1.1283 19.6357 3.23016 14.1233 7.04672 9.81523C11.5665 4.71312 18.1103 1.78687 25.0001 1.78687Z" fill="white"/>
<path d="M20.0835 45.4831C20.111 45.3551 20.1654 45.2343 20.2431 45.1285C20.3207 45.0227 20.42 44.9342 20.5345 44.8686C20.649 44.803 20.7763 44.7619 20.9081 44.7478C21.0399 44.7337 21.1734 44.7469 21.3 44.7867C21.427 44.8115 21.5473 44.8626 21.6531 44.9367C21.7589 45.0107 21.8477 45.106 21.9137 45.2162C21.9796 45.3264 22.0212 45.4491 22.0358 45.5761C22.0503 45.7031 22.0374 45.8315 21.9979 45.953C21.971 46.0803 21.9173 46.2006 21.8402 46.3059C21.7631 46.4111 21.6645 46.4992 21.5505 46.5642C21.4366 46.6292 21.31 46.6699 21.179 46.6834C21.0479 46.697 20.9152 46.6832 20.7896 46.6429C20.663 46.6182 20.543 46.5675 20.4373 46.4941C20.3315 46.4207 20.2425 46.3263 20.1759 46.2169C20.1094 46.1076 20.0667 45.9858 20.0508 45.8593C20.0349 45.7329 20.046 45.6047 20.0835 45.4831ZM21.7111 45.8861C21.8049 45.5163 21.6923 45.0885 21.2331 44.9724C20.7989 44.8627 20.4737 45.1426 20.371 45.5475C20.2671 45.9574 20.4282 46.349 20.8532 46.4561C21.2939 46.5678 21.6112 46.2802 21.7106 45.8853L21.7111 45.8861Z" fill="#1D4C58"/>
<path d="M22.9883 45.1976C23.1681 45.1951 23.3479 45.2066 23.526 45.232C23.7463 45.242 23.9572 45.3253 24.1242 45.4683C24.1718 45.518 24.2075 45.5777 24.2283 45.643C24.2491 45.7082 24.2547 45.7771 24.2445 45.8446C24.225 45.9553 24.1685 46.0561 24.0841 46.131C23.9996 46.206 23.892 46.2507 23.7785 46.258L23.7774 46.2662C23.8547 46.3061 23.9199 46.3657 23.9662 46.4387C24.0125 46.5118 24.0381 46.5957 24.0405 46.6817C24.0543 46.8608 24.0865 47.0382 24.1368 47.2111L23.8484 47.1715C23.8059 47.0212 23.7792 46.8671 23.7687 46.7116C23.7741 46.6068 23.7372 46.504 23.666 46.4257C23.5949 46.3474 23.4954 46.3001 23.3893 46.294L23.129 46.2586L23.0206 47.0586L22.7417 47.0205L22.9883 45.1976ZM23.4355 46.1156C23.7303 46.1558 23.933 46.0412 23.9616 45.8303C23.9938 45.5919 23.8081 45.4605 23.5202 45.4183C23.429 45.4034 23.3366 45.3982 23.2444 45.4027L23.1532 46.0766L23.4355 46.1156Z" fill="#1D4C58"/>
<path d="M25.5715 46.5043L24.9234 45.4051L25.2432 45.4162L25.5278 45.9408C25.6067 46.0846 25.6672 46.2003 25.7303 46.3326L25.7367 46.3328C25.7981 46.2131 25.8785 46.0941 25.9658 45.956L26.2917 45.4526L26.6049 45.4632L25.8531 46.5084L25.8288 47.3018L25.5475 47.2922L25.5715 46.5043Z" fill="#1D4C58"/>
<path d="M27.8389 46.3216L27.1373 45.4467L27.4565 45.4247L27.7766 45.8408C27.8658 45.9567 27.9302 46.0466 28.0023 46.1448L28.0087 46.1443C28.0607 46.0271 28.1086 45.9405 28.1787 45.8138L28.4385 45.358L28.7575 45.336L28.1731 46.2866L28.9156 47.1948L28.5936 47.2171L28.2881 46.8278C28.1613 46.6783 28.0862 46.5781 28.0112 46.4752L28.0048 46.4755C27.9435 46.6076 27.8752 46.7364 27.8001 46.8614L27.573 47.2874L27.2539 47.3095L27.8389 46.3216Z" fill="#1D4C58"/>
<path d="M30.8817 46.2233L31.5052 44.8922L31.7999 44.8218L32.0707 45.9113L32.3535 45.844L32.3989 46.027L32.1164 46.0943L32.2347 46.5705L31.9768 46.6318L31.8584 46.1556L30.9206 46.3793L30.8817 46.2233ZM31.8136 45.9729L31.6678 45.3864C31.645 45.2949 31.6254 45.2027 31.6089 45.1098L31.5997 45.1121C31.5693 45.2135 31.5337 45.3133 31.4929 45.411L31.1507 46.1252L31.152 46.1305L31.8136 45.9729Z" fill="#1D4C58"/>
<path d="M32.9993 45.6828L33.4846 44.297L33.7712 44.1989L34.1506 45.2572L34.4249 45.1625L34.4886 45.3401L34.2142 45.4348L34.3801 45.8972L34.13 45.9834L33.9642 45.521L33.054 45.835L32.9993 45.6828ZM33.9 45.3426L33.6958 44.773C33.664 44.6841 33.6352 44.5945 33.6093 44.5035L33.6004 44.5066C33.5805 44.6105 33.5552 44.7133 33.5246 44.8145L33.2562 45.5587L33.2581 45.5641L33.9 45.3426Z" fill="#1D4C58"/>
<path d="M24.9999 43.2674C35.0379 43.2674 43.1754 35.2396 43.1754 25.3369C43.1754 15.4342 35.0379 7.40643 24.9999 7.40643C14.9619 7.40643 6.82446 15.4342 6.82446 25.3369C6.82446 35.2396 14.9619 43.2674 24.9999 43.2674Z" stroke="#40A6BF" stroke-width="2" stroke-miterlimit="10"/>
<path d="M25.1984 48.8095C38.2384 48.8095 48.8095 38.3273 48.8095 25.3968C48.8095 12.4664 38.2384 1.98413 25.1984 1.98413C12.1583 1.98413 1.58728 12.4664 1.58728 25.3968C1.58728 38.3273 12.1583 48.8095 25.1984 48.8095Z" stroke="#40A6BF" stroke-width="2" stroke-miterlimit="10"/>
<path d="M26.6391 29.2239L34.299 39.9484C34.3283 40.0182 34.3407 40.0938 34.3352 40.1691C34.3339 40.2286 34.3208 40.2872 34.2965 40.3417C34.2723 40.3961 34.2373 40.4453 34.1937 40.4864C34.1501 40.5274 34.0987 40.5596 34.0424 40.581C33.9862 40.6024 33.9262 40.6126 33.8659 40.611H31.9145C31.8324 40.6141 31.7507 40.5986 31.6756 40.5659C31.6005 40.5331 31.534 40.4838 31.4811 40.4219L25.086 31.4001L18.6186 40.4219C18.5657 40.4838 18.4992 40.5331 18.424 40.5659C18.3489 40.5986 18.2672 40.6141 18.1852 40.611H16.3422C16.2806 40.6183 16.2182 40.6121 16.1593 40.5928C16.1005 40.5735 16.0467 40.5416 16.0018 40.4993C15.9569 40.4571 15.922 40.4056 15.8997 40.3485C15.8774 40.2914 15.8681 40.2302 15.8726 40.1691C15.8669 40.0938 15.8793 40.0181 15.9088 39.9484L23.5321 29.2557" fill="white"/>
<path d="M23.4938 28.4711L23.468 28.3218L23.3594 27.6929C23.2847 27.2594 23.2171 26.8182 23.1518 26.3916C23.1258 26.2219 23.0989 26.0466 23.072 25.8742L22.7594 24.0626L22.4186 22.2547L22.032 20.4541C21.9066 19.917 21.7659 19.373 21.6297 18.8469L21.5835 18.668C21.476 18.2706 21.353 17.8688 21.234 17.4802C21.1761 17.2913 21.1163 17.096 21.0588 16.903C20.9382 16.5278 20.8055 16.1484 20.6771 15.7814C20.606 15.5779 20.5324 15.3676 20.4615 15.1596C20.3267 14.7886 20.1822 14.4132 20.0424 14.0501C19.9649 13.8488 19.8848 13.6407 19.8071 13.4352C18.8871 11.1182 17.8228 8.87595 16.6438 6.77061C15.4865 4.68437 14.1362 2.59929 12.63 0.572674L12.5261 0.432849L12.6647 0.326219L12.9057 0.140822L13.0504 0.02948L13.1613 0.17374C14.629 2.08303 16.0374 4.16648 17.3475 6.36621C18.6381 8.55246 19.7906 10.795 20.7731 13.0321L20.7737 13.0334L20.7743 13.0348C20.8576 13.2333 20.9435 13.435 21.0265 13.6301C21.1842 14.0003 21.3472 14.3831 21.5008 14.7634L21.5014 14.7648L21.5019 14.7662L22.1747 16.5154L22.1754 16.5172L22.1761 16.519L22.8114 18.2846L22.812 18.2863L22.8126 18.288L23.4124 20.069L23.4132 20.0714L23.414 20.0739C23.4786 20.2864 23.5456 20.5025 23.6104 20.7116C23.7284 21.0922 23.8503 21.4858 23.9641 21.8758L23.9645 21.8773L23.9649 21.8788C24.1237 22.4617 24.2918 23.0828 24.4478 23.7039L24.4484 23.7063L24.4489 23.7087C24.5948 24.3668 24.7254 24.9599 24.8456 25.5553L24.8462 25.5582L24.8467 25.5612C24.8771 25.7443 24.9087 25.9304 24.9392 26.1105C24.9692 26.2873 25 26.4688 25.0302 26.6497C25.2313 26.6508 25.4527 26.6523 25.6809 26.6546C26.0492 24.5391 26.5463 22.3517 27.159 20.1511C27.4709 18.9993 27.8313 17.8007 28.2302 16.5888C28.6167 15.3945 29.0375 14.2164 29.4809 13.088C30.3903 10.7638 31.4575 8.50611 32.6529 6.378C33.8758 4.20095 35.2517 2.12598 36.7425 0.210751L36.8535 0.0680993L36.9973 0.178621L37.1398 0.288109L37.2777 0.394041L37.1752 0.533714C35.7299 2.50463 34.4374 4.5938 33.3336 6.74318C32.2467 8.85136 31.278 11.108 30.4544 13.4506C30.0582 14.5776 29.6868 15.7485 29.3508 16.9309C29.0429 18.0347 28.7581 19.1943 28.4804 20.4752C28.0392 22.5845 27.6675 24.8744 27.3105 27.6816L27.2343 28.2807L27.2148 28.4341L27.0581 28.437L26.4342 28.4488C25.7926 28.4611 25.1408 28.464 24.5105 28.4668L24.2573 28.4679L23.6473 28.4705L23.4938 28.4711Z" fill="#1D4C58"/>
<path d="M13.017 0.281684L12.776 0.467089C14.2498 2.45005 15.6037 4.52358 16.8023 6.68427C18.0094 8.83977 19.0657 11.0782 19.9762 13.3714C20.1945 13.9487 20.4221 14.5216 20.6325 15.1011C20.8316 15.685 21.0433 16.264 21.232 16.8508C21.4079 17.4418 21.5979 18.0282 21.7586 18.623C21.9129 19.2199 22.0688 19.8158 22.2088 20.4155L22.5962 22.2199L22.9377 24.0314L23.2507 25.8457C23.3454 26.4518 23.4338 27.0585 23.5379 27.663L23.6465 28.2919L24.2565 28.2894C24.9812 28.286 25.706 28.2842 26.4307 28.2702L27.0547 28.2585L27.1309 27.6594C27.4383 25.2415 27.8033 22.8282 28.3032 20.4384C28.5617 19.246 28.8484 18.0589 29.1764 16.8827C29.5101 15.7087 29.8782 14.5443 30.2834 13.3921C31.0932 11.0885 32.0519 8.83513 33.1721 6.66247C34.289 4.4875 35.5816 2.40218 37.0285 0.429042L36.886 0.319556C33.8682 4.19671 31.4499 8.55149 29.6497 13.1526C29.198 14.3023 28.7832 15.4672 28.4024 16.6439C28.0159 17.8183 27.6572 19.0032 27.3336 20.1982C26.7256 22.3821 26.2171 24.5977 25.8334 26.8348C26.0325 26.8371 26.2316 26.84 26.4307 26.8438L25.7304 27.4547C25.7637 27.2479 25.798 27.0412 25.8334 26.8348C25.5144 26.8312 25.1952 26.8291 24.8761 26.8276C24.9103 27.0351 24.9435 27.2429 24.9751 27.4509L24.2565 26.8247C24.463 26.8257 24.6696 26.8265 24.8761 26.8276C24.8082 26.4148 24.7367 26.0028 24.668 25.5901C24.5436 24.9739 24.408 24.36 24.272 23.7469C24.1189 23.1371 23.955 22.5307 23.7901 21.9252C23.6143 21.3225 23.4229 20.7244 23.2406 20.1253L22.6407 18.3443L22.0054 16.5787L21.3326 14.8296C21.0987 14.2505 20.8485 13.6786 20.607 13.1031C19.6032 10.8177 18.4566 8.5999 17.1914 6.45671C15.9178 4.31836 14.5306 2.25072 13.017 0.281684ZM12.7943 0L13.3055 0.0658299C14.7775 1.9807 16.1899 4.07001 17.5036 6.27575L17.5043 6.27693C18.7981 8.46865 19.9538 10.7175 20.9392 12.9611L20.9415 12.9665C21.0247 13.1646 21.1105 13.3661 21.1935 13.561C21.3514 13.9319 21.5147 14.3154 21.669 14.6973L21.6712 14.7028L22.3467 16.4592L22.9844 18.2317L23.5874 20.0226C23.6519 20.2346 23.7188 20.4505 23.7835 20.6594C23.9017 21.0407 24.0239 21.4351 24.1381 21.8264L24.1398 21.8325C24.2988 22.4163 24.4671 23.0383 24.6235 23.6609L24.6258 23.6705C24.7719 24.3295 24.9027 24.9236 25.0232 25.5204L25.0253 25.5323C25.0558 25.7151 25.0873 25.9012 25.1178 26.0811C25.1396 26.2096 25.1618 26.3406 25.1839 26.472C25.2948 26.4727 25.4104 26.4735 25.5287 26.4745C25.8952 24.4002 26.3845 22.2588 26.9842 20.1046C27.2968 18.9501 27.658 17.7488 28.0578 16.5341C28.4456 15.336 28.8675 14.1549 29.312 13.0235C30.2243 10.6918 31.2951 8.4267 32.4945 6.29144C33.7218 4.10666 35.1027 2.02423 36.5988 0.101991L37.1086 0.0377253L37.251 0.147217L37.3219 0.638426C35.8821 2.60179 34.5946 4.68289 33.4951 6.82391C32.4118 8.92514 31.4464 11.1742 30.6255 13.5092C30.2305 14.6324 29.8604 15.7995 29.5253 16.9783C29.2184 18.0789 28.9345 19.2349 28.6576 20.5116C28.2175 22.6161 27.8465 24.9016 27.4902 27.7039L27.414 28.3029L27.0616 28.6156L26.4377 28.6274C25.7947 28.6398 25.1422 28.6427 24.5112 28.6454L23.648 28.6491L23.2895 28.3519L23.1809 27.723C23.1059 27.2878 23.0382 26.8458 22.9728 26.4185C22.9468 26.2494 22.9201 26.0746 22.8933 25.9029L22.5812 24.094L22.241 22.2896L21.8552 20.4926C21.7304 19.9581 21.59 19.4157 21.4543 18.891L21.4083 18.7132C21.3016 18.3189 21.1791 17.9188 21.0606 17.5319C21.0029 17.3432 20.9431 17.1482 20.8856 16.9551C20.7658 16.5826 20.6337 16.205 20.506 15.8397C20.4349 15.6365 20.3614 15.4264 20.2904 15.2183C20.1564 14.8494 20.0124 14.4753 19.8731 14.1135C19.7958 13.9125 19.7157 13.7046 19.638 13.4991C18.721 11.1898 17.6603 8.95513 16.4853 6.85701L16.4846 6.85575C15.3315 4.77695 13.9855 2.69856 12.484 0.678315L12.5533 0.185405L12.7943 0Z" fill="white"/>
<path d="M12.2616 27.1632H37.9454C38.1183 27.1632 38.2895 27.1968 38.4492 27.262C38.609 27.3273 38.7541 27.4229 38.8764 27.5435C38.9986 27.6641 39.0956 27.8073 39.1618 27.9649C39.2279 28.1225 39.262 28.2913 39.262 28.4619V28.9281C39.262 28.9921 39.2492 29.0555 39.2244 29.1146C39.1996 29.1738 39.1632 29.2275 39.1173 29.2728C39.0714 29.318 39.0169 29.3539 38.957 29.3784C38.897 29.4029 38.8328 29.4155 38.7679 29.4155H11.3488C11.2417 29.4155 11.1391 29.3736 11.0634 29.2989C10.9877 29.2243 10.9452 29.123 10.9452 29.0174V28.4619C10.9452 28.1175 11.0839 27.7871 11.3308 27.5436C11.5776 27.3 11.9125 27.1632 12.2616 27.1632Z" fill="white"/>
<path d="M18.9974 18.3422L18.8735 18.3065C18.4135 18.2707 18.3273 18.5315 18.0847 19.3438L13.3715 31.4517C13.1287 32.264 14.0562 33.1167 14.8797 33.3561L14.894 33.3604C15.0256 33.3986 15.1672 33.3837 15.2877 33.319C15.4082 33.2542 15.4977 33.1449 15.5365 33.0151L19.2702 18.8364C19.2852 18.7863 19.2901 18.7337 19.2845 18.6817C19.279 18.6298 19.263 18.5794 19.2377 18.5335C19.2123 18.4876 19.1781 18.4471 19.1368 18.4142C19.0956 18.3814 19.0482 18.3569 18.9974 18.3422Z" fill="white"/>
<path d="M31.5458 18.3422L31.6697 18.3065C32.1297 18.2707 32.2159 18.5315 32.4585 19.3438L37.1717 31.4517C37.4145 32.264 36.487 33.1167 35.6635 33.3561L35.6492 33.3604C35.5176 33.3986 35.376 33.3837 35.2555 33.319C35.135 33.2542 35.0455 33.1449 35.0067 33.0151L31.273 18.8364C31.258 18.7863 31.2531 18.7337 31.2587 18.6818C31.2643 18.6298 31.2802 18.5794 31.3056 18.5335C31.3309 18.4876 31.3652 18.4471 31.4064 18.4143C31.4476 18.3814 31.495 18.3569 31.5458 18.3422Z" fill="white"/>
</g>
<defs>
<clipPath id="clip0_69_309">
<rect width="50" height="50" fill="white"/>
</clipPath>
</defs>
</svg>
