<svg width="84" height="84" viewBox="0 0 84 84" fill="none" xmlns="http://www.w3.org/2000/svg">
<g clip-path="url(#clip0_71_44)">
<path d="M42.0002 11.1038C32.4185 11.1038 23.8237 15.2724 18.0223 21.8211C13.0773 27.4031 10.1082 34.6425 10.1082 42.5659C10.1082 59.942 24.3868 74.028 42.0002 74.028C59.6137 74.028 73.8922 59.942 73.8922 42.5659C73.8922 25.1899 59.6137 11.1038 42.0002 11.1038ZM42.0002 3.00189C64.1139 3.00189 82.1048 20.7503 82.1048 42.5659C82.1048 64.3816 64.1139 82.13 42.0002 82.13C19.8865 82.13 1.89563 64.3816 1.89563 42.5659C1.89563 32.9879 5.42676 23.7271 11.8386 16.4896C19.4319 7.918 30.4254 3.00189 42.0002 3.00189Z" fill="#008080"/>
<path d="M33.7402 76.4117C33.7865 76.1966 33.8778 75.9937 34.0083 75.8159C34.1388 75.6381 34.3056 75.4894 34.498 75.3793C34.6903 75.2691 34.9041 75.2 35.1256 75.1763C35.347 75.1526 35.5712 75.1749 35.7839 75.2417C35.9973 75.2834 36.1995 75.3693 36.3772 75.4936C36.5549 75.618 36.7041 75.7781 36.8149 75.9632C36.9257 76.1484 36.9957 76.3545 37.02 76.5678C37.0444 76.7812 37.0228 76.997 36.9565 77.201C36.9113 77.415 36.821 77.617 36.6915 77.7938C36.5621 77.9707 36.3963 78.1186 36.2049 78.2279C36.0135 78.3371 35.8008 78.4054 35.5806 78.4281C35.3604 78.4509 35.1376 78.4277 34.9266 78.36C34.7139 78.3185 34.5122 78.2334 34.3346 78.1101C34.157 77.9868 34.0074 77.8282 33.8955 77.6445C33.7837 77.4608 33.7121 77.2561 33.6853 77.0437C33.6586 76.8313 33.6773 76.616 33.7402 76.4117ZM36.4746 77.0886C36.6322 76.4675 36.443 75.7487 35.6716 75.5536C34.9422 75.3693 34.3958 75.8396 34.2232 76.5198C34.0486 77.2085 34.3194 77.8664 35.0333 78.0463C35.7737 78.234 36.3067 77.7507 36.4738 77.0873L36.4746 77.0886Z" fill="white"/>
<path d="M38.6203 75.932C38.9224 75.9277 39.2244 75.947 39.5237 75.9898C39.8938 76.0066 40.248 76.1465 40.5286 76.3868C40.6087 76.4703 40.6685 76.5706 40.7035 76.6801C40.7385 76.7897 40.7478 76.9056 40.7307 77.019C40.698 77.2049 40.6031 77.3743 40.4612 77.5001C40.3193 77.626 40.1386 77.7011 39.9478 77.7134L39.946 77.7271C40.0759 77.7942 40.1854 77.8943 40.2632 78.0171C40.3409 78.1398 40.384 78.2808 40.3881 78.4252C40.4112 78.7262 40.4654 79.0242 40.5498 79.3146L40.0653 79.2481C39.9939 78.9956 39.949 78.7367 39.9314 78.4754C39.9404 78.2994 39.8784 78.1267 39.7589 77.9952C39.6394 77.8637 39.4723 77.7841 39.294 77.7739L38.8567 77.7145L38.6747 79.0585L38.206 78.9944L38.6203 75.932ZM39.3716 77.4742C39.8669 77.5417 40.2074 77.3492 40.2554 76.9949C40.3096 76.5944 39.9976 76.3737 39.5138 76.3027C39.3607 76.2777 39.2054 76.2689 39.0505 76.2765L38.8973 77.4087L39.3716 77.4742Z" fill="white"/>
<path d="M42.9603 78.1273L41.8714 76.2805L42.4087 76.2993L42.8869 77.1806C43.0194 77.4222 43.121 77.6165 43.227 77.8389L43.2378 77.8392C43.3408 77.638 43.4759 77.4381 43.6227 77.2061L44.1701 76.3603L44.6964 76.3782L43.4333 78.1341L43.3924 79.4671L42.9198 79.451L42.9603 78.1273Z" fill="white"/>
<path d="M46.7692 77.8202L45.5906 76.3504L46.1268 76.3135L46.6647 77.0125C46.8145 77.2072 46.9227 77.3582 47.0438 77.5232L47.0545 77.5224C47.1419 77.3255 47.2224 77.18 47.3402 76.9672L47.7767 76.2013L48.3125 76.1644L47.3308 77.7614L48.5782 79.2873L48.0373 79.3246L47.5239 78.6706C47.311 78.4195 47.1848 78.2512 47.0588 78.0782L47.048 78.0788C46.945 78.3008 46.8303 78.5172 46.7042 78.7271L46.3225 79.4428L45.7865 79.4799L46.7692 77.8202Z" fill="white"/>
<path d="M51.8814 77.6551L52.9288 75.419L53.424 75.3007L53.8789 77.1309L54.3541 77.018L54.4303 77.3254L53.9556 77.4384L54.1543 78.2385L53.7211 78.3414L53.5222 77.5415L51.9467 77.9172L51.8814 77.6551ZM53.4469 77.2346L53.2021 76.2492C53.1638 76.0955 53.1308 75.9406 53.1032 75.7844L53.0876 75.7883C53.0366 75.9587 52.9767 76.1263 52.9082 76.2905L52.3332 77.4904L52.3355 77.4993L53.4469 77.2346Z" fill="white"/>
<path d="M55.439 76.747L56.2543 74.4188L56.7358 74.2541L57.3731 76.032L57.834 75.8729L57.941 76.1713L57.48 76.3304L57.7587 77.1073L57.3386 77.252L57.06 76.4752L55.5308 77.0028L55.439 76.747ZM56.9522 76.1755L56.6092 75.2186C56.5556 75.0692 56.5074 74.9186 56.4638 74.7658L56.4488 74.771C56.4153 74.9455 56.3728 75.1182 56.3214 75.2884L55.8706 76.5385L55.8737 76.5477L56.9522 76.1755Z" fill="white"/>
<path d="M41.9998 72.6891C58.8637 72.6891 72.5346 59.2025 72.5346 42.5659C72.5346 25.9294 58.8637 12.4427 41.9998 12.4427C25.136 12.4427 11.4651 25.9294 11.4651 42.5659C11.4651 59.2025 25.136 72.6891 41.9998 72.6891Z" stroke="#40A6BF" stroke-width="2" stroke-miterlimit="10"/>
<path d="M42.3334 82C64.2407 82 82.0001 64.3899 82.0001 42.6666C82.0001 20.9434 64.2407 3.33331 42.3334 3.33331C20.4261 3.33331 2.66675 20.9434 2.66675 42.6666C2.66675 64.3899 20.4261 82 42.3334 82Z" stroke="#40A6BF" stroke-width="2" stroke-miterlimit="10"/>
<path d="M44.7539 49.0961L57.6224 67.1132C57.6718 67.2305 57.6926 67.3575 57.6833 67.4841C57.6812 67.584 57.6591 67.6825 57.6184 67.774C57.5776 67.8655 57.5189 67.9481 57.4456 68.0171C57.3723 68.0861 57.2859 68.1401 57.1914 68.176C57.0969 68.212 56.9961 68.2291 56.8949 68.2265H53.6165C53.4786 68.2316 53.3414 68.2057 53.2152 68.1506C53.089 68.0955 52.9772 68.0128 52.8883 67.9087L42.1447 52.7521L31.2794 67.9087C31.1905 68.0128 31.0788 68.0955 30.9526 68.1506C30.8264 68.2057 30.6892 68.2316 30.5513 68.2265H27.4551C27.3516 68.2387 27.2467 68.2283 27.1478 68.1958C27.049 68.1634 26.9586 68.1098 26.8832 68.0388C26.8078 67.9679 26.7492 67.8813 26.7117 67.7854C26.6742 67.6895 26.6586 67.5866 26.6661 67.4841C26.6565 67.3575 26.6774 67.2304 26.7269 67.1132L39.534 49.1495" fill="#008080"/>
<path d="M39.4696 47.8314L39.4263 47.5807L39.2438 46.5242C39.1184 45.7957 39.0049 45.0546 38.895 44.3378C38.8514 44.0528 38.8062 43.7582 38.761 43.4687L38.2359 40.4252L37.6634 37.3879L37.0138 34.3628C36.8032 33.4606 36.5667 32.5467 36.338 31.6628L36.2603 31.3623C36.0797 30.6946 35.873 30.0195 35.6731 29.3667C35.5759 29.0494 35.4754 28.7212 35.3789 28.397C35.1762 27.7667 34.9532 27.1293 34.7376 26.5128C34.6181 26.171 34.4945 25.8175 34.3753 25.4682C34.1489 24.8448 33.9061 24.2141 33.6713 23.6042C33.5411 23.266 33.4065 22.9164 33.276 22.5711C31.7303 18.6786 29.9424 14.9116 27.9617 11.3746C26.0175 7.86975 23.7489 4.36682 21.2185 0.962096L21.0439 0.727189L21.2768 0.548052L21.6816 0.236584L21.9247 0.04953L22.111 0.291886C24.5767 3.4995 26.9429 6.99969 29.1439 10.6952C31.3121 14.3681 33.2482 18.1356 34.8989 21.8939L34.8998 21.8961L34.9008 21.8984C35.0408 22.232 35.1851 22.5709 35.3247 22.8986C35.5895 23.5205 35.8633 24.1636 36.1215 24.8026L36.1224 24.8049L36.1233 24.8072L37.2536 27.7458L37.2547 27.7488L37.2558 27.7519L38.3232 30.7181L38.3242 30.7209L38.3252 30.7238L39.3329 33.7158L39.3343 33.72L39.3356 33.7242C39.4442 34.0811 39.5567 34.4442 39.6655 34.7954C39.8637 35.4349 40.0686 36.0962 40.2597 36.7513L40.2605 36.7538L40.2611 36.7564C40.5279 37.7357 40.8102 38.7791 41.0723 39.8225L41.0734 39.8265L41.0743 39.8306C41.3194 40.9362 41.5388 41.9327 41.7406 42.9328L41.7416 42.9378L41.7425 42.9428C41.7937 43.2504 41.8467 43.5631 41.898 43.8656C41.9484 44.1626 42.0001 44.4676 42.0507 44.7715C42.3886 44.7734 42.7605 44.7758 43.144 44.7797C43.7627 41.2257 44.5979 37.5509 45.6272 33.8538C46.1511 31.9188 46.7566 29.9053 47.4268 27.8691C48.076 25.8628 48.7831 23.8836 49.528 21.9879C51.0557 18.0831 52.8487 14.2903 54.857 10.715C56.9114 7.05759 59.223 3.57165 61.7274 0.354065L61.9139 0.11441L62.1555 0.300087L62.3949 0.484027L62.6265 0.661993L62.4544 0.896643C60.0263 4.20779 57.8549 7.71759 56.0006 11.3285C54.1745 14.8703 52.5472 18.6614 51.1635 22.597C50.4978 24.4903 49.8739 26.4575 49.3094 28.444C48.7921 30.2983 48.3137 32.2464 47.8471 34.3983C47.1059 37.9419 46.4814 41.789 45.8817 46.5051L45.7537 47.5116L45.7209 47.7692L45.4577 47.7742L44.4096 47.794C43.3316 47.8147 42.2366 47.8196 41.1777 47.8242L40.7524 47.8261L39.7274 47.8304L39.4696 47.8314Z" fill="#008080"/>
<path d="M21.8687 0.473198L21.4639 0.784679C23.9398 4.11606 26.2144 7.59958 28.228 11.2295C30.2559 14.8508 32.0304 18.6113 33.5601 22.4639C33.9269 23.4337 34.3093 24.3963 34.6627 25.3698C34.9973 26.3507 35.3529 27.3235 35.6698 28.3093C35.9655 29.3022 36.2846 30.2873 36.5546 31.2866C36.8138 32.2894 37.0757 33.2904 37.3108 34.2981L37.9618 37.3294L38.5354 40.3727L39.0613 43.4208C39.2204 44.439 39.3689 45.4583 39.5437 46.4737L39.7262 47.5303L40.751 47.5261C41.9686 47.5204 43.1862 47.5174 44.4038 47.494L45.452 47.4742L45.58 46.4677C46.0965 42.4057 46.7097 38.3514 47.5495 34.3365C47.9839 32.3332 48.4654 30.3389 49.0165 28.363C49.5771 26.3906 50.1955 24.4345 50.8762 22.4987C52.2368 18.6287 53.8474 14.843 55.7293 11.1929C57.6057 7.53896 59.7772 4.03564 62.2081 0.72076L61.9687 0.536824C56.8988 7.05045 52.836 14.3665 49.8116 22.0963C49.0527 24.0279 48.3559 25.9849 47.7162 27.9618C47.0668 29.9347 46.4642 31.9254 45.9207 33.9329C44.8992 37.6018 44.0448 41.3241 43.4003 45.0825C43.7348 45.0863 44.0693 45.0912 44.4038 45.0976L43.2272 46.1239C43.2831 45.7765 43.3408 45.4292 43.4003 45.0825C42.8643 45.0763 42.3281 45.0729 41.792 45.0703C41.8494 45.419 41.9053 45.768 41.9582 46.1176L40.751 45.0655C41.098 45.0671 41.445 45.0685 41.792 45.0703C41.6779 44.3769 41.5578 43.6846 41.4424 42.9914C41.2334 41.9562 41.0056 40.9248 40.7772 39.8947C40.5198 38.8703 40.2445 37.8515 39.9675 36.8343C39.6721 35.8218 39.3506 34.8169 39.0443 33.8105L38.0366 30.8185L36.9692 27.8523L35.839 24.9137C35.4459 23.9408 35.0256 22.98 34.6198 22.0132C32.9335 18.1738 31.0072 14.4478 28.8817 10.8472C26.7421 7.25481 24.4116 3.78118 21.8687 0.473198ZM21.4946 -3.05176e-05L22.3534 0.110564C24.8263 3.32755 27.1992 6.83759 29.4062 10.5432L29.4073 10.5452C31.581 14.2273 33.5226 18.0054 35.178 21.7746L35.1819 21.7836C35.3216 22.1165 35.4658 22.455 35.6052 22.7824C35.8705 23.4056 36.1449 24.0499 36.4041 24.6915L36.4077 24.7007L37.5425 27.6515L38.6139 30.6292L39.6269 33.6379C39.7354 33.9941 39.8478 34.3569 39.9565 34.7077C40.155 35.3484 40.3603 36.0109 40.5521 36.6683L40.555 36.6786C40.8221 37.6593 41.1049 38.7044 41.3676 39.7503L41.3714 39.7664C41.6169 40.8736 41.8366 41.8715 42.039 42.8742L42.0427 42.8942C42.0938 43.2014 42.1468 43.514 42.1981 43.8163C42.2347 44.0321 42.272 44.2521 42.3091 44.473C42.4954 44.4741 42.6896 44.4755 42.8884 44.4772C43.5041 40.9924 44.3261 37.3948 45.3336 33.7757C45.8588 31.8362 46.4656 29.818 47.1373 27.7773C47.7887 25.7644 48.4976 23.7802 49.2444 21.8794C50.777 17.9623 52.5759 14.1568 54.591 10.5696C56.6527 6.89916 58.9726 3.40067 61.4862 0.171314L62.3425 0.0633481L62.5819 0.247293L62.701 1.07252C60.2821 4.37098 58.119 7.86722 56.272 11.4641C54.4519 14.9942 52.83 18.7726 51.4509 22.6953C50.7873 24.5824 50.1656 26.5432 49.6027 28.5235C49.087 30.3726 48.6101 32.3145 48.1449 34.4594C47.4055 37.995 46.7822 41.8347 46.1836 46.5424L46.0556 47.5489L45.4636 48.0742L44.4154 48.094C43.3352 48.1148 42.2391 48.1196 41.179 48.1243L39.7288 48.1304L39.1265 47.6311L38.944 46.5745C38.8181 45.8434 38.7044 45.101 38.5944 44.383C38.5508 44.0989 38.5059 43.8052 38.4608 43.5168L37.9365 40.4778L37.3651 37.4465L36.7168 34.4276C36.5072 33.5297 36.2714 32.6183 36.0433 31.7369L35.9661 31.4382C35.7869 30.7757 35.5811 30.1036 35.382 29.4536C35.2849 29.1366 35.1846 28.8089 35.088 28.4845C34.8867 27.8588 34.6648 27.2244 34.4502 26.6107C34.3307 26.2693 34.2073 25.9162 34.0881 25.5668C33.8629 24.9469 33.621 24.3185 33.387 23.7107C33.257 23.3729 33.1226 23.0237 32.9919 22.6784C31.4514 18.7989 29.6694 15.0446 27.6955 11.5197L27.6943 11.5176C25.757 8.02525 23.4957 4.53356 20.9733 1.13954L21.0897 0.31145L21.4946 -3.05176e-05Z" fill="white"/>
<path d="M20.5997 45.6342H63.7484C64.0388 45.6341 64.3265 45.6905 64.5948 45.8001C64.8632 45.9098 65.107 46.0705 65.3124 46.2731C65.5178 46.4757 65.6808 46.7162 65.7919 46.981C65.9031 47.2457 65.9603 47.5294 65.9603 47.816V48.5992C65.9603 48.7067 65.9388 48.8132 65.8971 48.9125C65.8554 49.0119 65.7943 49.1022 65.7172 49.1782C65.6401 49.2542 65.5486 49.3146 65.4479 49.3557C65.3472 49.3969 65.2392 49.418 65.1302 49.418H19.0661C18.8862 49.418 18.7138 49.3476 18.5866 49.2221C18.4595 49.0967 18.3881 48.9266 18.3881 48.7492V47.816C18.3881 47.2373 18.6211 46.6824 19.0358 46.2732C19.4506 45.864 20.0131 45.6342 20.5997 45.6342Z" fill="#008080"/>
<path d="M31.9158 30.8149L31.7077 30.7548C30.9348 30.6948 30.79 31.1329 30.3824 32.4977L22.4643 52.8389C22.0564 54.2036 23.6146 55.6361 24.998 56.0382L25.0221 56.0454C25.2432 56.1097 25.4811 56.0847 25.6835 55.9759C25.886 55.8671 26.0363 55.6835 26.1015 55.4654L32.3741 31.6452C32.3994 31.5609 32.4076 31.4727 32.3982 31.3853C32.3888 31.298 32.3621 31.2134 32.3195 31.1362C32.2769 31.0591 32.2193 30.991 32.1501 30.9359C32.0808 30.8808 32.0012 30.8396 31.9158 30.8149Z" fill="#008080"/>
<path d="M52.9971 30.8149L53.2052 30.7548C53.9781 30.6948 54.1228 31.1329 54.5304 32.4977L62.4486 52.8389C62.8565 54.2036 61.2982 55.6361 59.9149 56.0382L59.8908 56.0454C59.6697 56.1097 59.4318 56.0847 59.2293 55.9759C59.0269 55.8671 58.8765 55.6835 58.8113 55.4654L52.5387 31.6452C52.5135 31.5609 52.5054 31.4727 52.5148 31.3854C52.5242 31.298 52.5509 31.2134 52.5935 31.1363C52.6361 31.0592 52.6936 30.9911 52.7629 30.936C52.8321 30.8808 52.9117 30.8397 52.9971 30.8149Z" fill="#008080"/>
</g>
<defs>
<clipPath id="clip0_71_44">
<rect width="84" height="84" fill="white"/>
</clipPath>
</defs>
</svg>
