<svg width="24" height="22" viewBox="0 0 24 22" fill="none" xmlns="http://www.w3.org/2000/svg">
<path d="M6.95934 21.5978C5.10739 21.5876 3.33499 20.8438 2.03052 19.5292C0.726046 18.2146 -0.00411035 16.4365 4.57061e-05 14.5845V7.01328C-0.00665057 5.16055 0.722686 3.38098 2.02771 2.06584C3.33273 0.750691 5.1066 0.00762286 6.95934 0L17.0383 0C18.8893 0.0133072 20.6598 0.75819 21.9636 2.0721C23.2674 3.38601 23.9986 5.16228 23.9976 7.01328V8.7675C23.9981 8.87938 23.9765 8.99025 23.9341 9.09379C23.8918 9.19733 23.8294 9.29151 23.7506 9.37096C23.6719 9.4504 23.5782 9.51355 23.475 9.55679C23.3718 9.60004 23.2612 9.62255 23.1493 9.62302L23.1373 9.59902C23.0257 9.59886 22.9152 9.57662 22.8123 9.53358C22.7093 9.49054 22.6159 9.42755 22.5373 9.34825C22.3793 9.18846 22.2901 8.97308 22.289 8.74831V7.01328C22.28 5.61971 21.7252 4.28515 20.7436 3.29592C19.762 2.30668 18.4318 1.74157 17.0383 1.72182H6.95934C5.56597 1.74188 4.23592 2.30709 3.25438 3.29625C2.27284 4.28542 1.71794 5.6198 1.70867 7.01328V14.5833C1.71763 15.977 2.27239 17.3117 3.25396 18.3011C4.23554 19.2905 5.56576 19.8559 6.95934 19.876H17.0383C18.4324 19.8568 19.7634 19.2918 20.7456 18.3023C21.7277 17.3127 22.2827 15.9775 22.2914 14.5833C22.3138 14.3723 22.4134 14.1771 22.5712 14.0353C22.7289 13.8934 22.9335 13.8149 23.1457 13.8149C23.3578 13.8149 23.5625 13.8934 23.7202 14.0353C23.8779 14.1771 23.9776 14.3723 24 14.5833C24.0013 16.4349 23.2699 18.2119 21.9656 19.5261C20.6613 20.8403 18.8899 21.5851 17.0383 21.5978H6.95934ZM9.65906 11.9748L4.71316 7.98638C4.53851 7.84139 4.42745 7.63388 4.40369 7.40813C4.37993 7.18238 4.44534 6.95629 4.58598 6.77811C4.65516 6.69095 4.74097 6.61841 4.83843 6.5647C4.93588 6.51099 5.04304 6.47719 5.15367 6.46524C5.2643 6.4533 5.3762 6.46345 5.48288 6.49512C5.58955 6.52679 5.68887 6.57934 5.77506 6.64972L10.7617 10.6285C11.0638 10.8676 11.4378 10.9978 11.823 10.9978C12.2083 10.9978 12.5823 10.8676 12.8843 10.6285L17.8194 6.64972H17.8302C17.918 6.58 18.0186 6.52824 18.1264 6.49741C18.2342 6.46658 18.347 6.45728 18.4583 6.47004C18.5697 6.48279 18.6774 6.51736 18.7754 6.57176C18.8735 6.62617 18.9598 6.69934 19.0295 6.78711C19.0992 6.87487 19.151 6.97551 19.1818 7.08328C19.2126 7.19105 19.2219 7.30384 19.2092 7.4152C19.1964 7.52656 19.1619 7.63432 19.1075 7.73233C19.0531 7.83033 18.9799 7.91666 18.8921 7.98638L13.957 11.9748C13.3496 12.4684 12.5907 12.7378 11.808 12.7378C11.0253 12.7378 10.2665 12.4684 9.65906 11.9748Z" fill="#444444"/>
</svg>
