<svg width="20" height="26" viewBox="0 0 20 26" fill="none" xmlns="http://www.w3.org/2000/svg">
<path d="M8.7225 25.0663C8.60436 25.0635 8.48793 25.0374 8.37991 24.9895C8.27189 24.9416 8.17442 24.8728 8.09309 24.787C8.01177 24.7013 7.94821 24.6003 7.90606 24.4899C7.86391 24.3795 7.84401 24.2619 7.8475 24.1438C7.85942 23.9064 7.96257 23.6829 8.13541 23.5199C8.30825 23.3568 8.5374 23.2668 8.775 23.2688C9.1775 23.2804 9.58625 23.2863 10.0013 23.2863C15.4375 23.2863 18.195 22.3475 18.195 20.495C18.195 18.62 15.4375 17.6763 10.0013 17.6763C4.565 17.6763 1.8075 18.6163 1.8075 20.47C1.8075 21.0763 2.02375 21.955 3.90125 22.5875C4.01279 22.6256 4.11574 22.6853 4.20422 22.7631C4.29269 22.841 4.36497 22.9355 4.41691 23.0413C4.46885 23.1471 4.49945 23.2621 4.50695 23.3798C4.51445 23.4974 4.49871 23.6153 4.46063 23.7269C4.42254 23.8384 4.36286 23.9414 4.28499 24.0298C4.20712 24.1183 4.11259 24.1906 4.00679 24.2425C3.90099 24.2945 3.78599 24.3251 3.66837 24.3326C3.55074 24.3401 3.43279 24.3243 3.32125 24.2863C0.57625 23.365 0 21.71 0 20.4725C0 16.36 5.7075 15.885 10 15.885C12.4725 15.885 20 15.885 20 20.4988C20 24.6088 14.2937 25.085 10 25.085C9.56667 25.085 9.14083 25.0788 8.7225 25.0663ZM3.26625 6.7775C3.25758 5.44387 3.64514 4.13769 4.37976 3.02459C5.11439 1.91149 6.163 1.0416 7.39265 0.525224C8.62229 0.00884716 9.97758 -0.130761 11.2867 0.1241C12.5958 0.378962 13.7997 1.01681 14.7458 1.95678C15.6919 2.89675 16.3376 4.09649 16.601 5.40389C16.8644 6.71129 16.7336 8.06746 16.2253 9.30044C15.7169 10.5334 14.8539 11.5877 13.7456 12.3296C12.6373 13.0714 11.3337 13.4675 10 13.4675C8.22065 13.4708 6.51259 12.7685 5.2503 11.5144C3.98801 10.2603 3.27452 8.55684 3.26625 6.7775ZM5.07375 6.7775C5.06756 7.75343 5.35132 8.70922 5.88904 9.52367C6.42675 10.3381 7.19422 10.9746 8.09411 11.3523C8.99401 11.73 9.98579 11.8319 10.9437 11.6453C11.9016 11.4586 12.7826 10.9916 13.4748 10.3036C14.167 9.61566 14.6393 8.73761 14.8318 7.78085C15.0243 6.82408 14.9284 5.83169 14.5562 4.9295C14.184 4.02732 13.5523 3.25598 12.7411 2.7133C11.93 2.17061 10.9759 1.88103 10 1.88125C8.69786 1.87859 7.44784 2.39264 6.52428 3.31058C5.60071 4.22852 5.07904 5.47537 5.07375 6.7775Z" fill="#444444"/>
</svg>
