<svg width="288" height="288" viewBox="0 0 288 288" fill="none" xmlns="http://www.w3.org/2000/svg">
<path d="M288 0H0V288H288V0Z" fill="white"/>
<path opacity="0.3" d="M221.91 36.008L168.488 89.43C168.688 90.1633 168.909 90.8877 169.151 91.603L224.083 36.672C223.366 36.432 222.641 36.2107 221.91 36.008ZM236.879 43.514L175.994 104.4C176.406 104.933 176.83 105.455 177.265 105.966L238.444 44.787C237.933 44.3497 237.411 43.9253 236.879 43.514ZM227.458 37.951L170.432 94.978C170.713 95.6353 171.01 96.2833 171.325 96.922L229.4 38.845C228.761 38.531 228.114 38.233 227.458 37.951ZM215.658 34.769L167.25 83.177C167.352 84.005 167.477 84.826 167.624 85.64L218.124 35.14C217.308 34.9947 216.485 34.871 215.656 34.769H215.658ZM240.877 47.009L179.491 108.394C179.962 108.87 180.444 109.334 180.937 109.786L242.268 48.455C241.815 47.9623 241.35 47.4803 240.875 47.009H240.877ZM210.322 34.432C209.696 34.432 209.075 34.452 208.456 34.478L166.956 75.978C166.93 76.599 166.909 77.219 166.909 77.845C166.909 78.178 166.927 78.507 166.933 78.838L211.312 34.46C210.984 34.449 210.655 34.432 210.322 34.432ZM186.205 41.746L174.227 53.725C172.882 55.7383 171.709 57.8607 170.719 60.07L192.551 38.238C190.341 39.2282 188.219 40.4016 186.205 41.746ZM199.696 35.746L168.227 67.216C167.932 68.389 167.689 69.581 167.49 70.789L203.27 35.011C202.061 35.2077 200.871 35.453 199.7 35.747L199.696 35.746ZM232.421 40.478L172.96 99.94C173.31 100.532 173.674 101.114 174.051 101.686L234.166 41.571C233.594 41.1943 233.012 40.8303 232.421 40.479V40.478ZM224.181 118.978L251.46 91.7C251.897 90.4053 252.272 89.084 252.586 87.736L220.218 120.105C221.565 119.792 222.886 119.417 224.181 118.98V118.978ZM211.612 121.219C212.627 121.188 213.635 121.135 214.631 121.037L253.52 82.15C253.62 81.15 253.671 80.15 253.7 79.132L211.612 121.219ZM247.422 100.392L232.874 114.939C238.814 111.32 243.802 106.333 247.422 100.394V100.392ZM253.332 72.007L204.489 120.849C205.339 120.964 206.196 121.053 207.06 121.116L253.6 74.579C253.533 73.7163 253.444 72.8597 253.332 72.009V72.007ZM247.479 55.385L187.867 115C188.459 115.358 189.059 115.703 189.667 116.034L248.511 57.189C248.183 56.579 247.839 55.9783 247.479 55.387V55.385ZM244.4 50.972L183.447 111.924C183.977 112.342 184.517 112.748 185.066 113.142L245.622 52.59C245.229 52.0413 244.822 51.502 244.4 50.972ZM250.035 60.319L192.8 117.558C193.462 117.851 194.132 118.127 194.81 118.387L250.868 62.328C250.607 61.65 250.331 60.9803 250.039 60.319H250.035ZM252.028 65.819L198.3 119.552C199.044 119.767 199.795 119.961 200.554 120.135L252.618 68.071C252.441 67.3117 252.246 66.5603 252.032 65.817L252.028 65.819Z" fill="#FFD000"/>
<path opacity="0.2" d="M80.7449 164.7L27.3219 218.123C27.5219 218.856 27.7432 219.581 27.9859 220.296L82.9179 165.364C82.2006 165.125 81.4762 164.904 80.7449 164.7ZM95.7129 172.206L34.8289 233.092C35.2402 233.625 35.6639 234.147 36.0999 234.657L97.2789 173.477C96.7669 173.042 96.2449 172.619 95.7129 172.207V172.206ZM86.2929 166.643L29.2659 223.672C29.5479 224.328 29.8456 224.975 30.1589 225.614L88.2359 167.538C87.5972 167.225 86.9496 166.927 86.2929 166.644V166.643ZM74.4929 163.462L26.0839 211.869C26.1846 212.698 26.3092 213.519 26.4579 214.332L76.9579 163.832C76.1419 163.687 75.3196 163.564 74.4909 163.463L74.4929 163.462ZM99.7089 175.7L38.3239 237.088C38.7906 237.563 39.2726 238.027 39.7699 238.478L101.1 177.147C100.648 176.655 100.184 176.173 99.7089 175.7ZM69.1569 163.124C68.5309 163.124 67.9099 163.146 67.2909 163.172L25.7909 204.672C25.7659 205.291 25.7439 205.912 25.7439 206.538C25.7439 206.871 25.7619 207.2 25.7699 207.53L70.1469 163.152C69.8179 163.142 69.4899 163.124 69.1569 163.124ZM45.0399 170.439L33.0609 182.418C31.7167 184.432 30.5433 186.555 29.5529 188.764L51.3849 166.932C49.1756 167.922 47.0532 169.095 45.0399 170.439V170.439ZM58.5309 164.439L27.0609 195.909C26.7669 197.082 26.5216 198.273 26.3249 199.482L62.0999 163.7C60.8952 163.9 59.7056 164.146 58.5309 164.439ZM91.2559 169.173L31.7939 228.634C32.1446 229.225 32.5086 229.807 32.8859 230.379L92.9999 170.265C92.4279 169.888 91.8466 169.524 91.2559 169.173ZM83.0159 247.673L110.295 220.394C110.731 219.099 111.106 217.778 111.421 216.431L79.0519 248.8C80.3992 248.485 81.7206 248.109 83.0159 247.673ZM70.4469 249.914C71.4609 249.884 72.4689 249.83 73.4649 249.732L112.354 210.844C112.454 209.844 112.506 208.844 112.535 207.824L70.4469 249.914ZM106.257 229.086L91.7079 243.635C97.6482 240.015 102.637 235.026 106.257 229.086V229.086ZM112.167 200.702L63.3239 249.545C64.1726 249.658 65.0296 249.747 65.8949 249.811L112.433 203.272C112.369 202.408 112.28 201.551 112.167 200.7V200.702ZM106.315 184.08L46.6999 243.692C47.2919 244.051 47.8919 244.395 48.4999 244.726L107.345 185.883C107.016 185.272 106.673 184.671 106.315 184.08V184.08ZM103.238 179.664L42.2859 240.616C42.8192 241.035 43.3589 241.442 43.9049 241.835L104.457 181.283C104.063 180.733 103.657 180.193 103.238 179.664ZM108.874 189.012L51.6339 246.252C52.2946 246.544 52.9642 246.82 53.6429 247.08L109.7 191.021C109.441 190.34 109.166 189.671 108.874 189.012ZM110.867 194.512L57.1319 248.245C57.8752 248.459 58.6266 248.653 59.3859 248.828L111.45 196.765C111.275 196.005 111.081 195.253 110.867 194.51V194.512Z" fill="#FF0C33"/>
<path d="M220.535 106.064L70.3 128.251V93.1L220.535 70.914V106.064Z" fill="#FFD000"/>
<path d="M242.93 179.009L47.906 207.809V124.188L242.93 95.388V179.009Z" fill="#FF0C33"/>
<path opacity="0.2" d="M242.929 95.387L152.668 108.717L70.3 191.086L127.649 196.033L242.93 179.008L242.929 95.387Z" fill="#7A0619"/>
<path d="M220.535 204.049L70.3 226.235V191.086L220.535 168.9V204.049Z" fill="#00274A"/>
<path d="M82.2941 211.512C81.8235 211.089 81.4573 210.562 81.2243 209.973C80.9913 209.384 80.8978 208.75 80.9511 208.119V202.456L84.4711 201.936V207.5C84.4147 208.061 84.5604 208.624 84.8821 209.087C85.0333 209.241 85.222 209.354 85.4297 209.414C85.6374 209.473 85.857 209.478 86.0671 209.427C86.3021 209.401 86.5291 209.327 86.7334 209.208C86.9377 209.089 87.1148 208.929 87.2531 208.737C87.5606 208.222 87.7036 207.626 87.6631 207.028V201.469L91.1231 200.957V206.62C91.178 208.008 90.6976 209.365 89.7811 210.409C88.7893 211.444 87.4626 212.093 86.0371 212.241C85.397 212.39 84.7328 212.401 84.0878 212.276C83.4429 212.15 82.8316 211.89 82.2941 211.512V211.512Z" fill="white"/>
<path d="M101.025 199.963C101.687 200.134 102.271 200.524 102.682 201.071C103.084 201.649 103.288 202.341 103.264 203.045C103.272 203.8 103.07 204.542 102.682 205.19C102.275 205.856 101.704 206.406 101.025 206.79C100.247 207.231 99.3921 207.517 98.506 207.633L97 207.853V210.385L93.479 210.904V200.604L98.506 199.862C99.3432 199.715 100.202 199.749 101.025 199.963V199.963ZM99.355 204.512C99.4745 204.387 99.5677 204.239 99.6292 204.077C99.6907 203.915 99.7192 203.742 99.713 203.569C99.7265 203.411 99.7008 203.252 99.6384 203.106C99.576 202.96 99.4787 202.832 99.355 202.732C99.0313 202.541 98.6459 202.485 98.281 202.574L97 202.764V205.176L98.281 204.986C98.6819 204.952 99.06 204.786 99.355 204.512V204.512Z" fill="white"/>
<path d="M107.2 201.271L104.143 201.723V199.031L113.776 197.608V200.3L110.72 200.751V208.351L107.2 208.872V201.271Z" fill="white"/>
<path d="M117.73 206.867C116.877 206.568 116.141 206.004 115.63 205.258C115.11 204.47 114.845 203.541 114.87 202.597C114.865 201.585 115.127 200.589 115.63 199.711C116.143 198.811 116.863 198.047 117.73 197.481C118.642 196.881 119.677 196.492 120.758 196.343C121.771 196.167 122.813 196.251 123.785 196.587C124.638 196.886 125.374 197.449 125.885 198.195C126.405 198.983 126.67 199.913 126.644 200.857C126.65 201.869 126.388 202.864 125.885 203.742C125.373 204.642 124.653 205.407 123.785 205.973C122.873 206.572 121.839 206.961 120.758 207.111C119.744 207.286 118.703 207.202 117.73 206.867V206.867ZM121.943 203.81C122.301 203.541 122.591 203.191 122.787 202.788C123 202.35 123.107 201.868 123.1 201.381C123.115 200.923 123.007 200.469 122.787 200.066C122.595 199.725 122.299 199.455 121.943 199.293C121.57 199.132 121.158 199.083 120.758 199.152C120.328 199.214 119.92 199.383 119.572 199.644C119.214 199.913 118.925 200.263 118.729 200.666C118.517 201.104 118.41 201.585 118.416 202.072C118.402 202.53 118.51 202.984 118.729 203.387C118.921 203.728 119.216 203.999 119.572 204.16C119.945 204.321 120.357 204.37 120.758 204.301C121.188 204.239 121.595 204.07 121.943 203.81V203.81Z" fill="white"/>
<path d="M142.295 193.4V195.533L138.819 204.212L134.971 204.779L138.282 196.685L136.269 196.985V198.485L133.36 198.915V194.723L142.295 193.4Z" fill="white"/>
<path d="M145.821 202.77C145.099 202.438 144.51 201.871 144.15 201.163C143.722 200.293 143.516 199.332 143.55 198.363C143.53 197.338 143.735 196.321 144.15 195.383C144.522 194.554 145.097 193.832 145.821 193.283C146.542 192.748 147.386 192.404 148.275 192.283C149.103 192.134 149.956 192.231 150.729 192.561C151.451 192.893 152.039 193.459 152.398 194.167C152.828 195.036 153.036 195.998 153.003 196.967C153.022 197.992 152.815 199.009 152.398 199.946C152.027 200.775 151.453 201.498 150.729 202.046C150.008 202.58 149.164 202.924 148.275 203.046C147.448 203.194 146.595 203.098 145.821 202.77V202.77ZM149.468 197.487C149.468 195.754 149.07 194.944 148.275 195.058C147.48 195.172 147.082 196.099 147.082 197.84C147.082 199.573 147.48 200.382 148.275 200.267C149.07 200.152 149.468 199.225 149.468 197.487V197.487Z" fill="white"/>
<path d="M155.2 196.317C154.929 196.066 154.718 195.756 154.584 195.411C154.45 195.067 154.396 194.697 154.425 194.328C154.414 193.774 154.537 193.225 154.782 192.728C155.011 192.272 155.353 191.883 155.775 191.596C156.2 191.305 156.688 191.117 157.198 191.047C157.676 190.965 158.167 191.009 158.623 191.175C159.04 191.333 159.389 191.629 159.614 192.014C159.868 192.469 159.993 192.986 159.973 193.507C160.002 194.317 159.724 195.109 159.196 195.724C158.682 196.31 157.97 196.688 157.196 196.785C156.849 196.858 156.491 196.854 156.146 196.773C155.801 196.692 155.478 196.537 155.2 196.317V196.317ZM163.328 190.292L165.849 189.92L158.72 201.271L156.199 201.642L163.328 190.292ZM157.669 194.828C157.812 194.513 157.876 194.167 157.855 193.822C157.882 193.494 157.817 193.165 157.669 192.871C157.624 192.789 157.554 192.723 157.47 192.681C157.386 192.64 157.291 192.625 157.198 192.639C157.096 192.66 157.001 192.704 156.919 192.768C156.838 192.833 156.772 192.916 156.729 193.01C156.585 193.325 156.521 193.67 156.542 194.016C156.515 194.344 156.58 194.673 156.729 194.967C156.775 195.048 156.844 195.114 156.928 195.156C157.011 195.197 157.106 195.212 157.198 195.199C157.299 195.178 157.394 195.133 157.475 195.069C157.556 195.004 157.621 194.922 157.664 194.828H157.669ZM162.851 200.043C162.58 199.791 162.369 199.482 162.235 199.137C162.1 198.792 162.046 198.422 162.075 198.053C162.065 197.499 162.187 196.95 162.433 196.453C162.662 195.998 163.004 195.608 163.425 195.321C163.851 195.031 164.339 194.843 164.85 194.772C165.328 194.69 165.819 194.734 166.275 194.899C166.691 195.058 167.041 195.355 167.266 195.739C167.519 196.194 167.643 196.71 167.624 197.23C167.653 198.041 167.377 198.833 166.849 199.449C166.334 200.034 165.623 200.411 164.849 200.509C164.501 200.583 164.142 200.58 163.796 200.499C163.449 200.419 163.125 200.263 162.846 200.043H162.851ZM165.32 198.553C165.464 198.238 165.527 197.893 165.506 197.547C165.533 197.219 165.469 196.89 165.32 196.597C165.275 196.515 165.205 196.449 165.121 196.407C165.037 196.366 164.943 196.351 164.85 196.364C164.748 196.384 164.652 196.429 164.571 196.493C164.489 196.557 164.424 196.64 164.38 196.734C164.236 197.049 164.172 197.394 164.194 197.74C164.166 198.068 164.231 198.397 164.38 198.691C164.426 198.773 164.495 198.839 164.579 198.881C164.663 198.922 164.757 198.937 164.85 198.924C164.951 198.903 165.046 198.858 165.126 198.793C165.207 198.729 165.272 198.647 165.315 198.553H165.32Z" fill="white"/>
<path d="M177.119 198.1C176.266 197.8 175.53 197.236 175.019 196.49C174.499 195.702 174.234 194.773 174.259 193.829C174.254 192.817 174.516 191.822 175.019 190.944C175.532 190.044 176.252 189.28 177.119 188.714C178.031 188.114 179.065 187.725 180.147 187.575C181.16 187.4 182.202 187.484 183.174 187.819C184.027 188.119 184.763 188.683 185.274 189.429C185.794 190.217 186.059 191.146 186.034 192.09C186.039 193.102 185.777 194.097 185.274 194.975C184.762 195.875 184.042 196.64 183.174 197.205C182.262 197.805 181.228 198.194 180.147 198.344C179.133 198.52 178.092 198.436 177.119 198.1V198.1ZM181.332 195.043C181.69 194.773 181.979 194.423 182.176 194.02C182.389 193.582 182.496 193.1 182.488 192.613C182.503 192.155 182.395 191.702 182.176 191.3C181.984 190.959 181.688 190.688 181.332 190.526C180.959 190.365 180.547 190.315 180.147 190.385C179.717 190.447 179.309 190.615 178.961 190.876C178.602 191.145 178.313 191.496 178.118 191.899C177.905 192.337 177.797 192.819 177.805 193.306C177.79 193.764 177.898 194.218 178.118 194.62C178.31 194.961 178.605 195.232 178.961 195.394C179.334 195.554 179.746 195.603 180.147 195.534C180.577 195.472 180.985 195.302 181.332 195.04V195.043Z" fill="white"/>
<path d="M191.586 188.737V190.5L195.94 189.857V192.475L191.586 193.119V196.414L188.066 196.933V186.633L196.552 185.379V188L191.586 188.737Z" fill="white"/>
<path d="M201.936 187.209V188.974L206.291 188.331V190.949L201.936 191.592V194.892L198.416 195.412V185.112L206.902 183.859V186.478L201.936 187.209Z" fill="white"/>
<path d="M104.592 104.306C105.128 104.941 105.406 105.754 105.37 106.584C105.374 107.259 105.219 107.926 104.916 108.53C104.614 109.134 104.173 109.658 103.63 110.059C102.146 111.118 100.409 111.768 98.594 111.943L89.574 113.275V97.468L98.135 96.2C99.7526 95.829 101.446 95.9737 102.977 96.614C103.489 96.8657 103.916 97.2609 104.207 97.7513C104.498 98.2418 104.64 98.8063 104.615 99.376C104.618 100.104 104.424 100.818 104.054 101.445C103.643 102.126 103.074 102.698 102.395 103.113C103.237 103.264 104.007 103.682 104.592 104.306V104.306ZM94.885 100.406V102.754L97.403 102.383C98.5783 102.21 99.166 101.731 99.166 100.948C99.166 100.165 98.5783 99.86 97.403 100.034L94.885 100.406ZM99.922 106.775C99.922 105.947 99.3263 105.621 98.135 105.797L94.885 106.277V108.761L98.135 108.281C99.3256 108.107 99.9213 107.606 99.922 106.779V106.775Z" fill="#00123C"/>
<path d="M108.414 94.686L113.814 93.886V109.692L108.414 110.492V94.686Z" fill="#00123C"/>
<path d="M128.17 99.243L132.863 98.55V105.233C131.867 106.052 130.755 106.718 129.563 107.211C128.385 107.721 127.147 108.079 125.878 108.275C124.338 108.541 122.756 108.414 121.278 107.904C119.976 107.448 118.857 106.584 118.085 105.44C117.292 104.22 116.888 102.787 116.929 101.332C116.919 99.7732 117.318 98.239 118.085 96.882C118.867 95.4985 119.976 94.3272 121.314 93.47C122.729 92.5527 124.329 91.958 126 91.728C127.404 91.4889 128.842 91.542 130.224 91.884C131.407 92.1847 132.481 92.8123 133.324 93.695L129.867 97.209C129.415 96.7256 128.849 96.3621 128.222 96.1511C127.594 95.94 126.924 95.8881 126.271 96C125.167 96.1147 124.148 96.6477 123.425 97.4895C122.701 98.3313 122.327 99.4181 122.379 100.527C122.345 101.028 122.42 101.53 122.6 101.999C122.779 102.468 123.059 102.892 123.42 103.241C123.802 103.558 124.251 103.783 124.733 103.9C125.215 104.016 125.718 104.022 126.202 103.915C126.894 103.811 127.561 103.583 128.17 103.24V99.243Z" fill="#00123C"/>
<path d="M146.92 96.475L151.613 95.781V102.466C150.616 103.283 149.504 103.949 148.313 104.442C147.135 104.952 145.897 105.31 144.628 105.506C143.088 105.773 141.505 105.645 140.028 105.135C138.726 104.68 137.606 103.816 136.835 102.672C136.042 101.451 135.639 100.018 135.679 98.563C135.669 97.0042 136.068 95.47 136.835 94.113C137.617 92.7298 138.725 91.5585 140.063 90.701C141.477 89.7844 143.075 89.1897 144.744 88.959C146.148 88.72 147.586 88.7731 148.968 89.115C150.151 89.4157 151.225 90.0433 152.068 90.926L148.612 94.44C148.16 93.9571 147.594 93.5939 146.967 93.3831C146.34 93.1723 145.67 93.1204 145.018 93.232C143.914 93.3467 142.895 93.8797 142.172 94.7215C141.448 95.5633 141.074 96.6501 141.126 97.759C141.092 98.26 141.167 98.7624 141.347 99.2311C141.527 99.6999 141.807 100.124 142.168 100.473C142.55 100.789 142.999 101.015 143.481 101.131C143.963 101.248 144.465 101.252 144.949 101.145C145.641 101.042 146.308 100.814 146.918 100.471L146.92 96.475Z" fill="#00123C"/>
<path d="M168.394 97.616V101.636L155.07 103.6V87.8L168.1 85.873V89.892L160.385 91.031V92.883L167.161 91.883V95.722L160.385 96.722V98.8L168.394 97.616Z" fill="#00123C"/>
<path d="M173.717 100.77C172.649 100.709 171.6 100.463 170.617 100.043L172.358 95.902C174.034 96.5779 175.856 96.8068 177.647 96.566C178.203 96.5136 178.745 96.3608 179.247 96.115C179.385 96.0514 179.503 95.9511 179.588 95.825C179.673 95.6989 179.722 95.5519 179.729 95.4C179.729 95.0667 179.519 94.8497 179.099 94.749C178.416 94.6127 177.722 94.5337 177.026 94.513C175.989 94.4633 174.957 94.34 173.937 94.144C173.127 93.9809 172.38 93.5899 171.784 93.017C171.46 92.6733 171.211 92.266 171.054 91.821C170.896 91.3759 170.833 90.9029 170.868 90.432C170.872 89.4251 171.166 88.4407 171.716 87.597C172.354 86.6329 173.223 85.8444 174.245 85.304C175.516 84.6243 176.902 84.1837 178.332 84.004C179.404 83.8431 180.49 83.7998 181.571 83.875C182.532 83.9302 183.479 84.1371 184.376 84.488L182.75 88.588C181.327 88.0532 179.794 87.8764 178.286 88.073C176.898 88.277 176.203 88.7103 176.202 89.373C176.202 89.689 176.408 89.8957 176.821 89.993C177.493 90.1186 178.174 90.1878 178.858 90.2C179.895 90.2256 180.929 90.3332 181.949 90.522C182.767 90.6817 183.525 91.0668 184.136 91.634C184.463 91.9732 184.715 92.3778 184.875 92.8213C185.035 93.2647 185.099 93.737 185.063 94.207C185.06 95.2101 184.766 96.1908 184.216 97.03C183.573 97.9898 182.705 98.7772 181.687 99.323C180.418 100.011 179.031 100.457 177.599 100.638C176.314 100.833 175.012 100.877 173.717 100.77V100.77Z" fill="#00123C"/>
<path d="M191.057 86.614L186.365 87.307V83.175L201.153 80.991V85.123L196.46 85.816V97.491L191.06 98.291L191.057 86.614Z" fill="#00123C"/>
<path d="M91.8 79.272L93.735 78.987V83.167L96.325 82.785V84.265L91.8 84.933V79.272Z" fill="#00123C"/>
<path d="M98.168 78.332L100.104 78.046V83.706L98.168 83.992V78.332Z" fill="#00123C"/>
<path d="M107.473 82.618L107.457 80.041L106.211 82.295L105.358 82.421L104.111 80.621V83.112L102.35 83.372V77.712L103.94 77.477L105.809 80.217L107.629 76.931L109.219 76.697L109.236 82.354L107.473 82.618Z" fill="#00123C"/>
<path d="M111.481 76.366L113.416 76.08V81.74L111.481 82.026V76.366Z" fill="#00123C"/>
<path d="M116.908 77.044L115.229 77.292V75.813L120.523 75.031V76.51L118.843 76.758V80.938L116.908 81.225V77.044Z" fill="#00123C"/>
<path d="M127.105 78.279V79.719L122.335 80.419V74.759L127 74.074V75.514L124.236 75.922V76.585L126.663 76.226V77.6L124.236 77.959V78.7L127.105 78.279Z" fill="#00123C"/>
<path d="M129.163 73.755L131.991 73.337C132.555 73.2377 133.135 73.2699 133.685 73.431C134.145 73.5672 134.546 73.8539 134.824 74.245C135.104 74.6727 135.244 75.1771 135.224 75.688C135.233 76.2361 135.095 76.7765 134.824 77.253C134.547 77.7257 134.155 78.1211 133.685 78.403C133.167 78.7155 132.591 78.9177 131.991 78.997L129.163 79.415V73.755ZM131.909 77.522C132.291 77.4788 132.645 77.3016 132.909 77.022C133.164 76.7349 133.298 76.3599 133.283 75.976C133.298 75.8018 133.272 75.6266 133.207 75.4642C133.142 75.3019 133.04 75.157 132.909 75.041C132.766 74.9391 132.603 74.8686 132.43 74.8341C132.258 74.7996 132.08 74.802 131.909 74.841L131.098 74.961V77.646L131.909 77.522Z" fill="#00123C"/>
<path d="M142.263 73.3L140.582 73.548V72.068L145.882 71.286V72.766L144.201 73.014V77.195L142.267 77.48L142.263 73.3Z" fill="#00123C"/>
<path d="M147.69 71.019L149.623 70.733V76.394L147.69 76.679V71.019Z" fill="#00123C"/>
<path d="M156.994 75.305L156.977 72.728L155.73 74.982L154.879 75.108L153.633 73.308V75.8L151.87 76.06V70.4L153.461 70.166L155.33 72.906L157.148 69.62L158.74 69.386L158.756 75.044L156.994 75.305Z" fill="#00123C"/>
<path d="M165.773 72.569V74.009L161.002 74.709V69.049L165.666 68.36V69.8L162.904 70.208V70.871L165.33 70.513V71.887L162.904 72.245V72.989L165.773 72.569Z" fill="#00123C"/>
<path d="M172.945 72.7C172.475 72.5357 172.071 72.2256 171.79 71.815C171.504 71.3816 171.358 70.871 171.371 70.352C171.369 69.796 171.514 69.2494 171.79 68.767C172.071 68.2716 172.467 67.8511 172.945 67.541C173.446 67.2116 174.015 66.9975 174.609 66.914C175.166 66.8187 175.738 66.8652 176.273 67.049C176.743 67.2128 177.149 67.5229 177.43 67.934C177.716 68.3669 177.862 68.8773 177.848 69.396C177.851 69.9523 177.707 70.4994 177.43 70.982C177.148 71.4771 176.751 71.8975 176.273 72.208C175.772 72.5379 175.203 72.7518 174.609 72.834C174.052 72.9299 173.48 72.8839 172.945 72.7V72.7ZM175.262 71.02C175.458 70.8711 175.616 70.6787 175.725 70.458C175.842 70.217 175.901 69.9519 175.897 69.684C175.905 69.4323 175.846 69.1829 175.725 68.962C175.619 68.7753 175.457 68.6267 175.262 68.537C175.056 68.4486 174.83 68.4215 174.609 68.459C174.373 68.4934 174.149 68.5862 173.958 68.729C173.761 68.8768 173.602 69.0695 173.495 69.291C173.378 69.532 173.319 69.797 173.322 70.065C173.314 70.3168 173.374 70.5661 173.495 70.787C173.6 70.9747 173.762 71.1238 173.958 71.212C174.163 71.3005 174.389 71.3273 174.609 71.289C174.846 71.2552 175.07 71.1623 175.262 71.019V71.02Z" fill="#00123C"/>
<path d="M185.521 65.433V71.093L183.93 71.328L181.75 69.078V71.649L179.864 71.928V66.267L181.455 66.032L183.635 68.282V65.711L185.521 65.433Z" fill="#00123C"/>
<path d="M187.766 65.1L189.701 64.814V69L192.291 68.617V70.097L187.766 70.765V65.1Z" fill="#00123C"/>
<path d="M196.973 67.348V69.4L195.038 69.685V67.608L192.874 64.347L194.914 64.047L196.087 65.83L197.268 63.699L199.137 63.424L196.973 67.348Z" fill="#00123C"/>
<path d="M67.4391 180.8C64.6323 180.639 61.8748 179.992 59.2891 178.889L63.8591 168.009C68.2606 169.787 73.0494 170.389 77.7541 169.754C79.2172 169.613 80.6433 169.212 81.9651 168.569C82.3272 168.402 82.6364 168.138 82.859 167.807C83.0815 167.476 83.2088 167.09 83.2271 166.692C83.2271 165.821 82.6757 165.249 81.5731 164.978C79.779 164.621 77.9584 164.413 76.1301 164.357C73.4038 164.229 70.6903 163.906 68.0101 163.391C65.8825 162.96 63.9213 161.932 62.3551 160.429C60.7551 158.906 59.9551 156.641 59.9551 153.636C59.9646 150.991 60.7376 148.404 62.1811 146.187C63.8571 143.654 66.1423 141.583 68.8271 140.163C72.1664 138.374 75.8057 137.213 79.5641 136.737C82.38 136.315 85.2336 136.202 88.0741 136.4C90.6002 136.544 93.0874 137.088 95.4431 138.012L91.1721 148.788C87.4322 147.385 83.4052 146.92 79.4441 147.435C75.7941 147.974 73.9694 149.114 73.9701 150.854C73.9701 151.685 74.5111 152.227 75.5931 152.482C77.359 152.813 79.1496 152.996 80.9461 153.027C83.6715 153.095 86.3874 153.378 89.0681 153.875C91.2173 154.293 93.2066 155.304 94.8111 156.794C96.4351 158.295 97.2471 160.549 97.2471 163.554C97.2394 166.19 96.4664 168.768 95.0221 170.973C93.3336 173.495 91.051 175.564 88.3751 176.997C85.0419 178.805 81.4012 179.976 77.6391 180.451C74.2641 180.963 70.8411 181.08 67.4391 180.8V180.8Z" fill="white"/>
<path d="M133.15 164.061L117.15 166.424L114.324 174.08L99.8889 176.211L118.289 131.963L132.243 129.902L150.643 168.715L135.967 170.882L133.15 164.061ZM129.24 154.553L125.15 144.715L121.06 155.761L129.24 154.553Z" fill="white"/>
<path d="M155.946 126.4L170.146 124.3V154.972L189.153 152.166V163.03L155.953 167.93L155.946 126.4Z" fill="white"/>
<path d="M231.07 146.279V156.84L196.065 162.009V120.478L230.289 115.424V125.984L210.019 128.978V133.843L227.819 131.214V141.3L210.019 143.93V149.388L231.07 146.279Z" fill="white"/>
<path d="M247.086 77.756L242.055 77.512L240.49 82.3L239.167 77.44L234.13 77.431L238.344 74.671L236.8 69.877L240.727 73.032L244.807 70.078L243.021 74.787L247.086 77.756Z" fill="#FF0C33"/>
<path d="M42.614 232.339L34.962 228.212L28.962 234.501L30.522 225.949L22.686 222.183L31.302 221.025L32.46 212.409L36.225 220.245L44.777 218.685L38.488 224.685L42.614 232.339Z" fill="#00274A"/>
<path d="M96.2829 64.527L87.6939 62.14L83.1209 69.793L82.7379 60.886L74.0459 58.9L82.3999 55.785L81.5999 46.906L87.1449 53.886L95.3449 50.386L90.4199 57.817L96.2829 64.527Z" fill="#00274A"/>
<path d="M265.374 147.9L260.674 140.326L252.126 142.859L257.877 136.047L252.826 128.7L261.082 132.064L266.509 124.99L265.861 133.882L274.261 136.857L265.605 138.988L265.374 147.9Z" fill="#00274A"/>
<path d="M169.229 59.992L166.42 56.457L162.27 58.231L164.764 54.468L161.793 51.068L166.143 52.277L168.458 48.402L168.652 52.912L173.052 53.912L168.824 55.5L169.229 59.992Z" fill="#FFD000"/>
<path d="M253.134 206.26L244.705 204.407L240.69 212.048L239.847 203.459L231.341 202L239.249 198.544L238.006 190.004L243.736 196.457L251.474 192.635L247.107 200.08L253.134 206.26Z" fill="#FFD000"/>
<path d="M174.52 233.095L171.39 231.407L168.934 233.979L169.573 230.479L166.367 228.939L169.892 228.465L170.366 224.94L171.906 228.146L175.406 227.507L172.833 229.963L174.52 233.095Z" fill="#FF0C33"/>
<path d="M94.394 252.748L98.411 248.629L95.5 243.666L100.658 246.214L104.479 241.914L103.65 247.607L108.921 249.907L103.25 250.879L102.688 256.605L100.012 251.512L94.394 252.748Z" fill="#00274A"/>
<path d="M37.3221 151.078L31.4351 149.924L28.7661 155.3L28.0451 149.344L22.1101 148.466L27.5511 145.94L26.5511 140.024L30.6351 144.419L35.9521 141.642L33.0351 146.884L37.3221 151.078Z" fill="#FF0C33"/>
</svg>
